<svg id="Capa_1" data-name="Capa 1" xmlns="http://www.w3.org/2000/svg" viewBox="0 0 1920 1920"><defs><style>.cls-1{fill:#fff;fill-rule:evenodd;}</style></defs><path class="cls-1" d="M423.74,231.23c-104.69,0-182.15,91.62-178.68,191,3.33,95.46-1,219.1-32.12,319.93-31.22,101.12-84,165.18-170.26,173.4v92.85c86.24,8.23,139,72.29,170.26,173.41,31.13,100.82,35.45,224.46,32.12,319.93-3.47,99.35,74,191,178.69,191H1496.4c104.69,0,182.13-91.61,178.66-191-3.32-95.47,1-219.11,32.12-319.93,31.24-101.12,83.9-165.18,170.14-173.41V915.55c-86.24-8.22-138.9-72.28-170.14-173.4-31.12-100.82-35.44-224.47-32.12-319.93,3.47-99.35-74-191-178.66-191H423.74Zm862.77,899.64c0,136.83-102.06,219.81-271.42,219.81H726.78a31.09,31.09,0,0,1-31.09-31.1V604.38a31.09,31.09,0,0,1,31.09-31.1h286.66c141.22,0,233.9,76.5,233.9,193.94,0,82.44-62.34,156.24-141.78,169.16v4.31C1213.69,952.56,1286.51,1027.43,1286.51,1130.87Zm-302.86-459H819.26v232.2H957.71c107,0,166.06-43.1,166.06-120.14C1123.77,711.72,1073,671.85,983.65,671.85ZM819.26,996.18v255.89H989.7c111.43,0,170.46-44.72,170.46-128.75s-60.68-127.15-177.63-127.15H819.26Z"/></svg>