<svg id="Capa_1" data-name="Capa 1" xmlns="http://www.w3.org/2000/svg" viewBox="0 0 1920 1920"><defs><style>.cls-1{fill:#9d9d9c;}.cls-2{fill:#b2b2b2;}.cls-3{fill:#fff;}</style></defs><path class="cls-1" d="M1814.07,564.48c0-32.29-6.92-60.81-20.88-85.29-13.72-24.08-34.26-44.26-61.81-60.22Q1390.25,222.27,1049,25.84C987.67-9.55,928.24-8.25,867.41,27.64,776.88,81,323.67,340.68,188.62,418.9c-55.61,32.2-82.68,81.48-82.69,145.52q-.14,395.58-.09,791.15c0,31.58,6.63,59.56,20,83.67,13.73,24.8,34.55,45.53,62.74,61.85,135.06,78.22,588.33,337.86,678.83,391.26,60.86,35.91,120.29,37.19,181.6,1.8q341-196.9,682.48-393.14c28.18-16.31,49-37.06,62.73-61.84,13.33-24.12,20-52.09,20-83.67,0,0,0-527.3-.09-791"/><path class="cls-2" d="M962.61,957.43l-836.8,481.81c13.73,24.8,34.55,45.53,62.74,61.85,135.06,78.22,588.33,337.86,678.83,391.26,60.86,35.91,120.29,37.19,181.6,1.8q341-196.9,682.48-393.14c28.18-16.31,49-37.06,62.73-61.84Z"/><path class="cls-2" d="M1814.07,564.48c0-32.29-6.92-60.81-20.88-85.29L962.61,957.43l831.58,481.74c13.33-24.12,20-52.09,20-83.67,0,0,0-527.3-.09-791"/><path class="cls-3" d="M1455.29,777.31v90.06h90.06V777.31h45v90.06h90.06v45h-90.06v90.06h90.06v45h-90.06v90.06h-45v-90.06h-90.06v90.06h-45v-90.06h-90v-45h90V912.4h-90v-45h90V777.31Zm90.06,135.08h-90.06v90.07h90.06Z"/><path class="cls-3" d="M964.45,325c234.9,0,440,127.57,549.84,317.19l-1.07-1.82L1236.84,799.52c-54.45-92.19-154.27-154.41-268.79-155.7l-3.61,0C789.82,643.8,648.26,785.37,648.26,960A314.69,314.69,0,0,0,690,1116.87c54.5,95.14,157,159.32,274.49,159.32,118.26,0,221.3-65,275.52-161.16l-1.31,2.31,276,159.87c-108.65,188-310.93,315.2-543.1,317.73l-7.07,0c-235.64,0-441.31-128.36-550.89-319a632.11,632.11,0,0,1-84.1-316c0-350.68,284.29-635,635-635Z"/></svg>