<svg id="Design" xmlns="http://www.w3.org/2000/svg" xmlns:xlink="http://www.w3.org/1999/xlink" viewBox="0 0 288 116.7"><defs><style>.cls-1{fill:none;}.cls-2{fill:url(#linear-gradient);}.cls-3{clip-path:url(#clip-path);}.cls-4{fill:url(#linear-gradient-2);}.cls-5{fill:url(#linear-gradient-3);}.cls-6{fill:url(#linear-gradient-4);}.cls-7{fill:url(#linear-gradient-5);}.cls-8{fill:url(#linear-gradient-6);}.cls-9{fill:url(#linear-gradient-7);}.cls-10{fill:url(#linear-gradient-8);}.cls-11{fill:url(#linear-gradient-9);}.cls-12{fill:url(#linear-gradient-10);}.cls-13{fill:url(#linear-gradient-11);}.cls-14{fill:url(#linear-gradient-12);}.cls-15{fill:url(#linear-gradient-13);}.cls-16{fill:url(#linear-gradient-14);}.cls-17{fill:url(#linear-gradient-15);}.cls-18{fill:url(#linear-gradient-16);}.cls-19{fill:url(#linear-gradient-17);}.cls-20{fill:url(#linear-gradient-18);}.cls-21{fill:url(#linear-gradient-19);}.cls-22{fill:url(#linear-gradient-20);}.cls-23{fill:url(#linear-gradient-21);}.cls-24{fill:url(#linear-gradient-22);}.cls-25{fill:url(#linear-gradient-23);}.cls-26{fill:url(#linear-gradient-24);}.cls-27{fill:#434343;}</style><linearGradient id="linear-gradient" x1="196.35" y1="196.35" x2="60.64" y2="60.64" gradientTransform="translate(-0.09 287.91) rotate(-89.96)" gradientUnits="userSpaceOnUse"><stop offset="0"/><stop offset="1" stop-color="#0e0e0e"/></linearGradient><clipPath id="clip-path"><rect class="cls-1" width="288" height="288"/></clipPath><linearGradient id="linear-gradient-2" x1="-949.46" y1="1170.57" x2="-947.41" y2="1168.52" gradientTransform="matrix(-49.97, -41.56, -7.67, 9.23, -38105.96, -50119.93)" gradientUnits="userSpaceOnUse"><stop offset="0" stop-color="#181818"/><stop offset="1" stop-color="#171717"/></linearGradient><linearGradient id="linear-gradient-3" x1="-948.82" y1="1199.92" x2="-946.77" y2="1197.87" gradientTransform="matrix(-49.97, -41.56, -16.63, 19.99, -27132.73, -63313.33)" gradientUnits="userSpaceOnUse"><stop offset="0" stop-color="#1a1a1a"/><stop offset="1" stop-color="#2b2b2b"/></linearGradient><linearGradient id="linear-gradient-4" x1="-955.52" y1="1205.18" x2="-953.47" y2="1203.13" gradientTransform="matrix(-32.29, -26.86, -21.74, 26.14, -4381.36, -57144.76)" gradientUnits="userSpaceOnUse"><stop offset="0" stop-color="#262626"/><stop offset="1" stop-color="#151515"/></linearGradient><linearGradient id="linear-gradient-5" x1="-974.69" y1="1199.42" x2="-972.64" y2="1197.37" gradientTransform="matrix(-16.91, -14.07, -16.63, 19.99, 3738.94, -37637.21)" gradientUnits="userSpaceOnUse"><stop offset="0" stop-color="#292929"/><stop offset="1" stop-color="#1d1d1d"/></linearGradient><linearGradient id="linear-gradient-6" x1="-974.41" y1="1205.57" x2="-972.36" y2="1203.52" gradientTransform="matrix(-16.91, -14.07, -21.74, 26.14, 10008.98, -45176.12)" gradientUnits="userSpaceOnUse"><stop offset="0" stop-color="#2d2d2d"/><stop offset="1" stop-color="#1b1b1b"/></linearGradient><linearGradient id="linear-gradient-7" x1="-996.43" y1="1092.39" x2="-994.38" y2="1090.34" gradientTransform="matrix(-10.76, -8.95, -3.2, 3.84, -6970.69, -13085.58)" gradientUnits="userSpaceOnUse"><stop offset="0" stop-color="#202020"/><stop offset="1" stop-color="#2b2b2b"/></linearGradient><linearGradient id="linear-gradient-8" x1="-1012.5" y1="1205.45" x2="-1010.45" y2="1203.4" gradientTransform="matrix(-8.46, -7.03, -21.74, 26.14, 17903.44, -38610.26)" gradientUnits="userSpaceOnUse"><stop offset="0" stop-color="#1d1d1d"/><stop offset="1" stop-color="#2b2b2b"/></linearGradient><linearGradient id="linear-gradient-9" x1="-952.79" y1="1212.48" x2="-950.74" y2="1210.43" gradientTransform="matrix(-36.9, -30.69, -31.33, 37.67, 3026.16, -74819.39)" gradientUnits="userSpaceOnUse"><stop offset="0"/><stop offset="1" stop-color="#212121"/></linearGradient><linearGradient id="linear-gradient-10" x1="-959.65" y1="1215.16" x2="-957.6" y2="1213.11" gradientTransform="matrix(-26.14, -21.74, -39.65, 47.67, 23262.42, -78701.18)" gradientUnits="userSpaceOnUse"><stop offset="0" stop-color="#070707"/><stop offset="1" stop-color="#060606"/></linearGradient><linearGradient id="linear-gradient-11" x1="-960.39" y1="1214.95" x2="-958.34" y2="1212.9" gradientTransform="matrix(-24.6, -20.46, -39.65, 47.67, 24676.42, -77525.33)" gradientUnits="userSpaceOnUse"><stop offset="0"/><stop offset="1" stop-color="#070707"/></linearGradient><linearGradient id="linear-gradient-12" x1="-949.23" y1="1214.22" x2="-947.18" y2="1212.17" gradientTransform="matrix(-49.97, -41.56, -35.81, 43.05, -3668.61, -91525.28)" gradientUnits="userSpaceOnUse"><stop offset="0" stop-color="#353535"/><stop offset="1" stop-color="#323232"/></linearGradient><linearGradient id="linear-gradient-13" x1="-952.45" y1="1217.65" x2="-950.4" y2="1215.6" gradientTransform="matrix(-38.44, -31.97, -48.6, 58.43, 22741.22, -101400.59)" gradientUnits="userSpaceOnUse"><stop offset="0" stop-color="#404040"/><stop offset="1" stop-color="#252525"/></linearGradient><linearGradient id="linear-gradient-14" x1="-953.05" y1="1217.12" x2="-951" y2="1215.07" gradientTransform="matrix(-36.9, -30.69, -48.6, 58.43, 24155.9, -100224.09)" gradientUnits="userSpaceOnUse"><stop offset="0" stop-color="#101010"/><stop offset="1" stop-color="#1d1d1d"/></linearGradient><linearGradient id="linear-gradient-15" x1="-972.52" y1="1177.05" x2="-970.47" y2="1175" gradientTransform="matrix(-16.91, -14.07, -7.67, 9.23, -7302.66, -24414.82)" gradientUnits="userSpaceOnUse"><stop offset="0" stop-color="#0c0c0c"/><stop offset="1"/></linearGradient><linearGradient id="linear-gradient-16" x1="-964.66" y1="1206.99" x2="-962.61" y2="1204.94" gradientTransform="matrix(-21.53, -17.9, -20.46, 24.6, 4050.91, -46839.1)" gradientUnits="userSpaceOnUse"><stop offset="0" stop-color="#1e1e1e"/><stop offset="1" stop-color="#282828"/></linearGradient><linearGradient id="linear-gradient-17" x1="-958.62" y1="1176.23" x2="-956.57" y2="1174.18" gradientTransform="matrix(-26.91, -22.38, -7.67, 9.23, -16663.37, -32200.03)" gradientUnits="userSpaceOnUse"><stop offset="0" stop-color="#0f0f0f"/><stop offset="1" stop-color="#040404"/></linearGradient><linearGradient id="linear-gradient-18" x1="-970.73" y1="1196.4" x2="-968.68" y2="1194.35" gradientTransform="matrix(-17.68, -14.71, -13.43, 16.15, -978.95, -33510.71)" gradientUnits="userSpaceOnUse"><stop offset="0" stop-color="#202020"/><stop offset="1" stop-color="#535353"/></linearGradient><linearGradient id="linear-gradient-19" x1="-957.96" y1="1201.73" x2="-955.91" y2="1199.68" gradientTransform="matrix(-26.91, -22.38, -15.99, 19.22, -6475.82, -44449.74)" gradientUnits="userSpaceOnUse"><stop offset="0" stop-color="#232323"/><stop offset="1" stop-color="#323232"/></linearGradient><linearGradient id="linear-gradient-20" x1="-962.55" y1="1202.45" x2="-960.5" y2="1200.4" gradientTransform="matrix(-22.3, -18.54, -17.27, 20.76, -585.73, -42770.54)" gradientUnits="userSpaceOnUse"><stop offset="0" stop-color="#131313"/><stop offset="1" stop-color="#040404"/></linearGradient><linearGradient id="linear-gradient-21" x1="-955.59" y1="1202.83" x2="-953.54" y2="1200.78" gradientTransform="matrix(-29.98, -24.94, -17.27, 20.76, -7801.59, -48739.4)" gradientUnits="userSpaceOnUse"><stop offset="0" stop-color="#171717"/><stop offset="1" stop-color="#383838"/></linearGradient><linearGradient id="linear-gradient-22" x1="-955.11" y1="1202.34" x2="-953.06" y2="1200.29" gradientTransform="matrix(-29.98, -24.94, -17.27, 20.76, -7785.64, -48758.62)" gradientUnits="userSpaceOnUse"><stop offset="0"/><stop offset="1" stop-color="#171717"/></linearGradient><linearGradient id="linear-gradient-23" x1="-963.74" y1="1214.25" x2="-961.69" y2="1212.2" gradientTransform="matrix(-20.76, -17.27, -33.25, 39.98, 20382.82, -65099.4)" gradientUnits="userSpaceOnUse"><stop offset="0" stop-color="#0c0c0c"/><stop offset="1" stop-color="#050505"/></linearGradient><linearGradient id="linear-gradient-24" x1="-951.83" y1="1213.87" x2="-949.78" y2="1211.82" gradientTransform="matrix(-35.37, -29.41, -33.25, 39.98, 6710.94, -76469.78)" gradientUnits="userSpaceOnUse"><stop offset="0" stop-color="#232323"/><stop offset="1" stop-color="#0c0c0c"/></linearGradient></defs><rect class="cls-2" width="288" height="288"/><g class="cls-3"><polygon class="cls-4" points="319.67 81.97 258.87 32.96 319.66 103.78 319.67 81.97"/><polygon class="cls-5" points="319.71 20.88 314.99 10.35 258.87 32.96 319.67 81.97 319.71 20.88"/><polygon class="cls-6" points="225.33 -27.9 243.36 6.74 298.03 -27.85 225.33 -27.9"/><polygon id="triangle36" class="cls-7" points="314.99 10.35 258.87 32.96 252.81 14.6 314.99 10.35"/><polygon class="cls-8" points="300.15 -27.85 252.81 14.6 314.99 10.35 306.28 -27.84 300.15 -27.85"/><polygon id="triangle36-2" data-name="triangle36" class="cls-9" points="258.87 32.96 243.36 6.74 252.81 14.6 258.87 32.96"/><polygon class="cls-10" points="298.03 -27.85 243.36 6.74 252.81 14.6 300.15 -27.85 298.03 -27.85"/><polygon id="triangle36-3" data-name="triangle36" class="cls-11" points="258.87 32.96 243.36 6.74 125.59 39.39 258.87 32.96"/><polygon class="cls-12" points="187.31 -27.92 125.59 39.39 243.36 6.74 225.33 -27.9 187.31 -27.92"/><polygon class="cls-13" points="116.97 -27.97 125.59 39.39 187.31 -27.92 116.97 -27.97"/><polygon class="cls-14" points="319.66 103.78 258.87 32.96 232.75 160.5 319.63 141.44 319.66 103.78"/><polygon id="triangle36-4" data-name="triangle36" class="cls-15" points="232.75 160.5 258.87 32.96 127.77 126.49 232.75 160.5"/><polygon id="triangle36-5" data-name="triangle36" class="cls-16" points="258.87 32.96 125.59 39.39 127.77 126.49 258.87 32.96"/><polygon id="triangle36-6" data-name="triangle36" class="cls-17" points="110.68 82.95 91.8 99.24 127.77 126.49 110.68 82.95"/><polygon id="triangle36-7" data-name="triangle36" class="cls-18" points="110.68 82.95 125.59 39.39 127.77 126.49 110.68 82.95"/><polygon id="triangle36-8" data-name="triangle36" class="cls-19" points="110.68 82.95 91.8 99.24 50.29 43.4 110.68 82.95"/><polygon id="triangle36-9" data-name="triangle36" class="cls-20" points="110.68 82.95 125.59 39.39 101.96 19.73 110.68 82.95"/><polygon id="triangle36-10" data-name="triangle36" class="cls-21" points="110.68 82.95 50.29 43.4 101.96 19.73 110.68 82.95"/><polygon class="cls-22" points="112.39 -27.97 101.96 19.73 125.59 39.39 116.97 -27.97 112.39 -27.97"/><polygon class="cls-23" points="43.73 -28.01 50.29 43.4 101.96 19.73 50.2 -28.01 43.73 -28.01"/><polygon class="cls-24" points="50.2 -28.01 101.96 19.73 112.39 -27.97 50.2 -28.01"/><polygon class="cls-25" points="39.55 -28.02 -9.25 60.51 50.29 43.4 43.73 -28.01 39.55 -28.02"/><polygon class="cls-26" points="-22.55 -28.05 -9.25 60.51 39.55 -28.02 -22.55 -28.05"/><path class="cls-27" d="M319.79,94.17l0,24.63-.22-.25L252,39.83l.17-.18Zm-.27,24,0-23.85L253.06,40.7Z"/><path class="cls-27" d="M319.83,26.29l0,68.2-.21-.17L251.83,39.71l.2-.08,62.5-25.19.05.11ZM319.54,94l0-67.62L314.4,14.77l-62.08,25Z"/><path class="cls-27" d="M296-28,234.79,10.78l-.06-.12L214.59-28Zm-61.15,38.4,60.29-38.15L215-27.78Z"/><g id="triangle36-11" data-name="triangle36"><path class="cls-27" d="M315.24,14.43,252,39.91l-6.82-20.68.16,0ZM252.15,39.58l61.53-24.8-68.17,4.67Z"/></g><path class="cls-27" d="M314.62,14.72h-.15L245,19.49l.27-.24L297.92-28h7l0,.1ZM245.7,19.19l68.61-4.7-9.63-42.21H298Z"/><g id="triangle36-12" data-name="triangle36"><path class="cls-27" d="M252.55,40.81,234.36,10l11.09,9.23v0ZM235.31,11.16l16.28,27.53-6.35-19.28Z"/></g><path class="cls-27" d="M298.29-28l-.24.21L245.35,19.5l-10.72-8.91.14-.1L295.57-28Zm-53,47.14,52.3-46.89h-2l-60.6,38.34Z"/><g id="triangle36-13" data-name="triangle36"><path class="cls-27" d="M252.29,39.86h-.21l-149.27,7.2L234.9,10.45l0,.09ZM105,46.71l146.82-7.08L234.78,10.75Z"/></g><path class="cls-27" d="M235,10.68l-.15,0L103.54,47.12l.29-.32,68.65-74.86,42.39,0Zm-130.71,36L234.65,10.52l-19.93-38.3-42.13,0Z"/><path class="cls-27" d="M172.82-28l-.2.2-68.79,75,0-.27-9.6-75ZM104,46.6l68.24-74.41-77.77-.05Z"/><path class="cls-27" d="M319.77,118.42l0,42-.1,0-96.77,21.23,0-.19L252,39.47l.17.2Zm-.27,41.81,0-41.72L252.14,40,223.21,181.35Z"/><g id="triangle36-14" data-name="triangle36"><path class="cls-27" d="M252.26,39.46l-.06.31L223.14,181.68l-.13-.05L106.08,143.76l.2-.15ZM223,181.35,251.89,40,106.62,143.67Z"/></g><g id="triangle36-15" data-name="triangle36"><path class="cls-27" d="M252.49,39.6l-.34.25L106.23,144v-.23L103.8,46.77h.12Zm-146,103.87L251.65,39.89,104.05,47Z"/></g><g id="triangle36-16" data-name="triangle36"><path class="cls-27" d="M106.63,144.08l-.36-.27-40.1-30.38.11-.1L87.4,95.11l.06.16ZM66.56,113.41l39.51,29.93L87.29,95.53Z"/></g><g id="triangle36-17" data-name="triangle36"><path class="cls-27" d="M106.49,144.42,87.21,95.32l0,0L104,46.19l0,.69Zm-19-49.11L106.21,143l-2.39-95.42Z"/></g><g id="triangle36-18" data-name="triangle36"><path class="cls-27" d="M87.55,95.3l-21.2,18.3-.08-.11L19.7,50.85l.59.39ZM66.39,113.24,87.14,95.33,20.75,51.83Z"/></g><g id="triangle36-19" data-name="triangle36"><path class="cls-27" d="M104.07,46.85l0,.08L87.29,95.86l-.07-.53L77.49,24.74ZM87.4,94.78l16.38-47.85-26-21.59Z"/></g><g id="triangle36-20" data-name="triangle36"><path class="cls-27" d="M87.51,95.57l-.23-.15L20,51.32l.2-.09L77.76,24.86l0,.16Zm-67-44.21,66.71,43.7L77.55,25.22Z"/></g><path class="cls-27" d="M104.09,47.19,77.52,25.09V25L89.16-28.11h5.29V-28ZM77.79,25l26,21.6L94.23-27.86H89.36Z"/><path class="cls-27" d="M77.88,25.08l-.17.07L20.12,51.53l0-.17L12.8-28.16h7.37l0,0ZM20.33,51.16,77.43,25,20.07-27.9h-7Z"/><path class="cls-27" d="M89.41-28.11l0,.15L77.73,25.28l-.16-.15L19.8-28.15ZM77.58,24.8,89.1-27.86l-68.66,0Z"/><path class="cls-27" d="M20.36,51.44l-.1,0L-46.21,70.57l.14-.27L8.21-28.16h4.84V-28ZM-45.7,70.16,20.09,51.25,12.82-27.91H8.35Z"/><path class="cls-27" d="M8.49-28.16l-.1.19L-46,70.75l0-.37L-60.88-28.2ZM-45.89,70l54-97.89-68.66,0Z"/></g></svg>