<svg xmlns="http://www.w3.org/2000/svg" xmlns:xlink="http://www.w3.org/1999/xlink" viewBox="0 0 2400 874.58"><defs><style>.cls-1{isolation:isolate;}.cls-2{fill:url(#radial-gradient);}.cls-3,.cls-5{opacity:0.5;}.cls-3{mix-blend-mode:screen;}.cls-4{fill:#d1d3d4;}.cls-5{mix-blend-mode:multiply;}.cls-6{fill:#808285;}</style><radialGradient id="radial-gradient" cx="1206.38" cy="880.58" r="770.6" gradientTransform="translate(-1217.43 -864.88) scale(2.02 2.02)" gradientUnits="userSpaceOnUse"><stop offset="0" stop-color="#e6e7e8"/><stop offset="0.2" stop-color="#e1e2e3"/><stop offset="0.43" stop-color="#d3d4d5"/><stop offset="0.69" stop-color="#bbbdbf"/><stop offset="0.95" stop-color="#9a9c9f"/><stop offset="1" stop-color="#939598"/></radialGradient></defs><g class="cls-1"><g id="BACKGROUND"><rect class="cls-2" width="2400" height="1700"/></g><g id="OBJECTS"><g class="cls-3"><path class="cls-4" d="M2005.85,1240.51v-1.75l-175.41-101.39V932.81l.75-.44,176.17-101.82,176.93,102.26v204.56l-.76.43Zm-172.39-104.89,173.91,100.52,173.9-100.52V934.56L2007.36,834l-173.9,100.52Z"/><path class="cls-4" d="M321.78,1308.73V1307L87.36,1171.48V898.69l.75-.43L323.29,762.33,559.22,898.69v272.79l-.75.44Zm-231.4-139L323.3,1304.36l232.9-134.63V900.44L323.29,765.82,90.38,900.44Z"/><polygon class="cls-4" points="2400 1110.62 2222.55 1008.05 2222.55 770.08 2400 667.51 2400 664.01 2220.28 767.89 2219.53 768.33 2219.53 1009.8 2400 1114.12 2400 1110.62"/><path class="cls-4" d="M1249.53,998.11l-94.32-54.52V834.54L1249.53,780l94.32,54.52V943.59l-.76.44Zm-91.3-56.27,91.3,52.77,91.3-52.77V836.29l-91.3-52.77-91.3,52.77Z"/><path class="cls-4" d="M744.31,965.41l-66-38.17V850.89l.76-.44,65.28-37.73,66,38.17v76.35l-.76.44Zm-63-39.92,63,36.43,63-36.43V852.64l-63-36.42-63,36.42Z"/><path class="cls-4" d="M1839,800l-49.25-28.47V714.57L1839,686.1l49.26,28.47v56.95Zm-46.23-30.22L1839,796.49l46.23-26.72V716.32L1839,689.59l-46.23,26.73Z"/><path class="cls-4" d="M1502.14,855.07l-96.9-56V687l96.9-56,96.9,56v112Zm-93.87-57.76,93.87,54.26L1596,797.31V688.77l-93.88-54.25-93.87,54.25Z"/><path class="cls-4" d="M1165.33,898.11l-134.14-77.53V665.5L1165.33,588l134.13,77.53V820.58Zm-131.11-79.28,131.11,75.79,131.11-75.79V667.25l-131.11-75.78-131.11,75.78Z"/><path class="cls-4" d="M660.11,867.29,552.63,805.17V680.91l107.48-62.12,107.47,62.12V805.17ZM555.65,803.42,660.11,863.8l104.44-60.38V682.66L660.11,622.29,555.65,682.66Z"/><path class="cls-4" d="M321.78,909.68v-1.76l-141.87-82V660.16l143.38-82.88,143.38,82.88V825.93Zm-138.84-85.5L323.29,905.3l140.35-81.12V661.9L323.29,580.78,182.94,661.9Z"/><polygon class="cls-4" points="0 605.51 0 609.01 109.17 672.11 109.17 813.97 0 877.08 0 880.57 112.2 815.72 112.2 670.36 0 605.51"/><polygon class="cls-4" points="2400 749.84 2259.98 830.78 2057.78 713.91 2057.78 480.13 2259.97 363.25 2400 444.2 2400 440.7 2259.97 359.75 2055.51 477.95 2054.76 478.39 2054.76 715.66 2259.97 834.28 2400 753.34 2400 749.84"/><path class="cls-4" d="M1923.16,720.47l-106.78-61.72V535.29l106.78-61.73,106.78,61.73V658.75ZM1819.4,657l103.76,60,103.76-60V537l-103.76-60L1819.4,537Z"/><path class="cls-4" d="M1586.35,678.76l-70.71-40.87V556.15l70.71-40.88,70.7,40.88v81.74Zm-67.68-42.62,67.68,39.12L1654,636.14V557.89l-67.67-39.12-67.68,39.12Z"/><path class="cls-4" d="M1417.94,680.38l-72.11-41.68V555.33l72.11-41.68,72.1,41.68V638.7ZM1348.85,637l69.09,39.94L1487,637V557.08l-69.08-39.94-69.09,39.94Z"/><path class="cls-4" d="M70.68,667.44,9.76,632.23V561.8l60.92-35.21L131.6,561.8v70.43Zm-57.9-37L70.68,664l57.89-33.46V563.55L70.68,530.08l-57.9,33.47Z"/><path class="cls-4" d="M828.51,559.18l-93.58-54.1V396.9l93.58-54.1,93.58,54.1V505.08ZM738,503.34l90.55,52.35,90.56-52.35V398.64L828.51,346.3,738,398.64Z"/><path class="cls-4" d="M660.11,595.16,535.4,523.07V378.91l124.71-72.09,124.7,72.09V523.07ZM538.43,521.33l121.68,70.34,121.67-70.34V380.65L660.11,310.31,538.43,380.65Z"/><path class="cls-4" d="M491.7,520.59l-60.21-34.8v-69.6l60.21-34.8,60.2,34.8v69.6ZM434.52,484,491.7,517.1,548.88,484v-66.1L491.7,384.88l-57.18,33.06Z"/><path class="cls-4" d="M323.29,588.13,204.67,519.56V382.42l118.62-68.57,118.62,68.57V519.56Zm-115.6-70.32,115.6,66.83,115.6-66.83V384.17l-115.6-66.83-115.6,66.83Z"/><polygon class="cls-4" points="2400 454.04 2259.98 534.99 2061.01 419.98 2061.01 189.96 2259.97 74.94 2400 155.89 2400 152.39 2259.97 71.45 2058.75 187.77 2057.99 188.21 2057.99 421.72 2259.97 538.49 2400 457.54 2400 454.04"/><path class="cls-4" d="M1923.16,489.08,1763.91,397V212.91l.75-.43,158.5-91.63,159.25,92.06V397l-.76.44Zm-156.23-93.81,156.23,90.32,156.23-90.32V214.66l-156.23-90.31-156.23,90.31Z"/><path class="cls-4" d="M1081.12,514.07,900.26,409.51V200.42L1081.12,95.86,1262,200.42V409.51l-.76.44ZM903.28,407.77l177.84,102.81L1259,407.77V202.17L1081.12,99.36,903.28,202.17Z"/><path class="cls-4" d="M575.9,368.75l-55.17-31.89V273.08l55.17-31.89,55.17,31.89v63.78Zm-52.14-33.64,52.14,30.14L628,335.11V274.83L575.9,244.68l-52.14,30.15Z"/><path class="cls-4" d="M2175.77,288.3l-111.89-64.68V94.27l111.89-64.68,111.89,64.68V223.62Zm-108.86-66.43,108.86,62.93,108.86-62.93V96L2175.77,33.08,2066.91,96Z"/><path class="cls-4" d="M2007.36,207l-41.57-24V134.91l41.57-24,41.57,24V183Zm-38.54-25.78,38.54,22.28,38.55-22.28V136.66l-38.55-22.28-38.54,22.28Z"/><path class="cls-4" d="M1502.14,237.56l-68-39.31V119.64l68-39.31,68,39.31v78.61Zm-65-41.06,65,37.56,65-37.56V121.38l-65-37.56-65,37.56Z"/><path class="cls-4" d="M828.51,265.26l-92-53.16V105.78l92-53.16,92,53.16V212.1Zm-88.94-54.91,88.94,51.42,88.94-51.42V107.53L828.51,56.12l-88.94,51.41Z"/><polygon class="cls-4" points="661.92 0 798.49 78.95 798.49 238.94 660.11 318.93 521.72 238.94 521.72 78.95 658.29 0 652.25 0 518.7 77.2 518.7 240.68 660.11 322.43 801.51 240.68 801.51 77.2 667.97 0 661.92 0"/><polygon class="cls-4" points="1812.12 0 1812.12 46.08 1754.75 79.24 1697.39 46.08 1697.39 0 1694.37 0 1694.37 47.82 1754.75 82.73 1815.14 47.82 1815.14 0 1812.12 0"/><polygon class="cls-4" points="1497.9 0 1497.9 59.14 1417.94 105.37 1337.97 59.14 1337.97 0 1334.95 0 1334.95 60.89 1417.94 108.86 1500.92 60.89 1500.92 0 1497.9 0"/><polygon class="cls-4" points="994.35 0 994.35 60.11 912.72 107.3 831.08 60.11 831.08 0 828.05 0 828.05 61.86 912.72 110.8 997.38 61.86 997.38 0 994.35 0"/><polygon class="cls-4" points="715.69 0 715.69 93.72 575.9 174.53 436.11 93.72 436.11 0 433.09 0 433.09 95.47 575.9 178.03 718.72 95.47 718.72 0 715.69 0"/><polygon class="cls-4" points="281.07 0 281.07 37.19 239.09 61.46 197.1 37.19 197.1 0 194.07 0 194.07 38.94 239.09 64.96 284.1 38.94 284.1 0 281.07 0"/><polygon class="cls-4" points="2102.27 0 2007.36 54.86 1912.46 0 1906.41 0 2007.37 58.36 2108.31 0 2102.27 0"/></g><g class="cls-5"><polygon class="cls-6" points="330.35 0 238.72 52.97 147.09 0 143.28 0 238.72 55.17 334.16 0 330.35 0"/><polygon class="cls-6" points="30.21 0 30.21 96.18 0 113.65 0 115.85 31.64 97.56 32.12 97.28 32.12 0 30.21 0"/><polygon class="cls-6" points="979.86 0 979.86 32.14 928.01 62.11 876.15 32.14 876.15 0 874.25 0 874.25 33.24 928.01 64.31 981.76 33.24 981.76 0 979.86 0"/><path class="cls-6" d="M238.72,183.49l-77.3-44.69V49.43l77.3-44.69L316,49.43V138.8Zm-75.4-45.79,75.4,43.59,75.4-43.59V50.53L238.72,6.94l-75.4,43.59Z"/><path class="cls-6" d="M662.9,178.67l-73.14-42.28V51.84L662.9,9.56,736,51.84v84.55Zm-71.23-43.38,71.23,41.17,71.23-41.17V52.94L662.9,11.76,591.67,52.94Z"/><path class="cls-6" d="M981,160.58l-57.49-33.23V60.88L981,27.65l57.49,33.23v66.47Zm-55.59-34.34L981,158.38l55.58-32.14V62L981,29.85,925.44,62Z"/><path class="cls-6" d="M1882.4,254.72,1823,220.39V151.73l59.39-34.32,59.38,34.32v68.66Zm-57.48-35.43,57.48,33.23,57.48-33.23V152.84l-57.48-33.23-57.48,33.23Z"/><path class="cls-6" d="M662.9,348.19l-60.71-35.08V242.92l60.71-35.09,60.7,35.09v70.19ZM604.1,312l58.8,34,58.8-34V244l-58.8-34-58.8,34Z"/><path class="cls-6" d="M1299.16,426l-128-74V204l127-73.44v-1.1l129,74.54V352Zm-126.1-75.09,126.1,72.89,126.1-72.89V205.12l-126.1-72.89-126.1,72.89Z"/><polygon class="cls-6" points="2400 362.17 2359.59 385.52 2266.61 331.77 2266.61 224.26 2359.6 170.5 2400 193.86 2400 191.66 2359.59 168.31 2264.7 223.16 2264.7 332.88 2359.59 387.72 2400 364.37 2400 362.17"/><polygon class="cls-6" points="80.61 177.58 80.61 176.47 0 223.06 0 225.27 79.65 179.23 244.64 274.59 244.64 465.34 79.66 560.7 0 514.66 0 516.86 79.18 562.63 79.66 562.9 246.07 466.72 246.55 466.44 246.55 273.49 80.61 177.58"/><path class="cls-6" d="M928,423.81l-46.58-26.92V343L928,316.11,974.59,343v53.85Zm-44.68-28L928,421.61l44.67-25.82V344.14L928,318.31l-44.67,25.83Z"/><path class="cls-6" d="M1458.22,407.69l-32.63-18.86V351.1l32.63-18.87,32.64,18.87v37.73Zm-30.73-20,30.73,17.76L1489,387.73V352.2l-30.74-17.77-30.73,17.77Z"/><path class="cls-6" d="M2200.53,451.08l-70.16-40.55V329.4l70.16-40.56,70.16,40.56v81.13Zm-68.26-41.66,68.26,39.46,68.26-39.46V330.5l-68.26-39.45-68.26,39.45Z"/><polygon class="cls-6" points="0 358.58 0 360.79 47.77 388.39 47.77 535.43 0 563.04 0 565.24 49.67 536.53 49.67 387.29 0 358.58"/><path class="cls-6" d="M981,652.44l-.48-.27-164.33-95V366.64l.48-.27L982,270.83v1.11l163.85,94.7V557.18l-.48.28Zm-162.9-96.36L981,650.24l162.89-94.16V367.74L981,273.59,818.13,367.74Z"/><path class="cls-6" d="M1087.07,512.1,1043.66,487V436.82l43.41-25.1,43.41,25.1V487Zm-41.5-26.19,41.5,24,41.51-24v-48l-41.51-24-41.5,24Z"/><path class="cls-6" d="M1405.2,553l-78.74-45.51V416.39l78.74-45.52L1484,416.39v91.05Zm-76.84-46.62,76.84,44.42L1482,506.33V417.49l-76.84-44.41-76.84,44.41Z"/><path class="cls-6" d="M1935.42,574.18l-97.11-56.13V405.77l97.11-56.13,97.11,56.13V518.05ZM1840.21,517l95.21,55,95.21-55V406.88l-95.21-55-95.21,55Z"/><path class="cls-6" d="M715.92,604.28,672.3,579.07V528.65l43.62-25.21,43.61,25.21v50.42ZM674.21,578l41.71,24.11L757.63,578V529.75l-41.71-24.11-41.71,24.11Z"/><path class="cls-6" d="M1352.18,702.26l-128.36-74.19V479.66l128.36-74.2,128.36,74.2V628.07ZM1225.73,627l126.45,73.1L1478.64,627V480.76l-126.46-73.09-126.45,73.09Z"/><path class="cls-6" d="M1882.4,636.78l-71.73-41.45V512.4l71.73-41.46,71.73,41.46v82.93Zm-69.83-42.55,69.83,40.35,69.82-40.35V513.5l-69.82-40.36-69.83,40.36Z"/><path class="cls-6" d="M2094.48,684.53l-113-65.33V488.52l113-65.33,113,65.33V619.2ZM1983.36,618.1l111.12,64.23,111.13-64.23V489.62l-111.13-64.23-111.12,64.23Z"/><path class="cls-6" d="M238.72,737.88l-79.63-46V599.77l79.63-46,79.64,46v92.08ZM161,690.75l77.73,44.93,77.73-44.93V600.88L238.72,556,161,600.88Z"/><path class="cls-6" d="M450.81,765.66,347.14,705.74V585.88L450.81,526l103.67,59.92V705.74Zm-101.76-61,101.76,58.82,101.76-58.82V587L450.81,528.16,349.05,587Z"/><path class="cls-6" d="M1405.2,708.47,1351,677.14V614.48l54.2-31.33,54.2,31.33v62.66ZM1352.91,676l52.29,30.23L1457.49,676V615.58l-52.29-30.23-52.29,30.23Z"/><path class="cls-6" d="M291.74,812.36l-64.52-37.3v-74.6l64.52-37.29,64.52,37.29v74.6ZM229.13,774l62.61,36.2L354.36,774v-72.4l-62.62-36.19-62.61,36.19Z"/><path class="cls-6" d="M1352.18,770.45l-28.27-16.34V721.42l28.27-16.35,28.27,16.35v32.69ZM1325.81,753l26.37,15.24L1378.55,753V722.52l-26.37-15.25-26.37,15.25Z"/><path class="cls-6" d="M1458.22,889.3l-.47-.28-130.6-75.49V662l131.07-75.76L1589.29,662V813.53l-.47.27Zm-129.16-76.87,129.16,74.66,129.17-74.66V663.09l-129.17-74.66-129.16,74.66Z"/><path class="cls-6" d="M1670.31,774.2,1638.79,756V719.54l31.52-18.22,31.52,18.22V756Zm-29.61-19.32L1670.31,772l29.61-17.12V720.64l-29.61-17.11-29.61,17.11Z"/><path class="cls-6" d="M662.9,926.66,579,878.18V781.24l83.86-48.48,83.85,48.48v96.94ZM581,877.08l81.95,47.38,82-47.38V782.34l-82-47.38L581,782.34Z"/><path class="cls-6" d="M768.94,962.65l-.48-.28L654,896.18V763.25l115-66.47,115,66.47V896.18l-.47.27ZM655.86,895.08l113.08,65.36L882,895.08V764.35L768.94,699,655.86,764.35Z"/><path class="cls-6" d="M981,951l-.48-.27L876.1,890.36V769.06L981,708.4,1086,769.06v121.3l-.48.28ZM878,889.27l103,59.55,103-59.55V770.16L981,710.6,878,770.16Z"/><path class="cls-6" d="M1405.2,923.2l-80.86-46.74V783l80.86-46.75L1486.07,783v93.49Zm-79-47.84,79,45.64,79-45.64V784.07l-79-45.65-79,45.65Z"/><path class="cls-6" d="M1723.33,979.71l-.47-.27-129.27-74.73v-150l.48-.28,129.26-74.73.48.28,129.27,74.73v150l-.48.27Zm-127.83-76.1,127.83,73.9,127.84-73.9V755.82l-127.84-73.91L1595.5,755.82Z"/><path class="cls-6" d="M1935.42,987.28l-.48-.28-135.81-78.51V750.93l.48-.27,135.81-78.51.48.27,135.81,78.51V908.49l-.48.28ZM1801,907.39l134.38,77.68,134.38-77.68V752l-134.38-77.68L1801,752Z"/><path class="cls-6" d="M503.83,1109.48l-.47-.28-162-93.64V827.76l.48-.28,162-93.63.48.27,162,93.64v187.8l-.47.28Zm-160.55-95,160.55,92.8,160.55-92.8V828.86L503.83,736.05,343.28,828.86Z"/><path class="cls-6" d="M1882.4,1039.39l-101.83-58.87V862.8l101.83-58.86,101.83,58.86V980.52Zm-99.92-60,99.92,57.76,99.92-57.76V863.9l-99.92-57.76-99.92,57.76Z"/><path class="cls-6" d="M247.79,54.07A9.07,9.07,0,1,1,238.72,45,9.07,9.07,0,0,1,247.79,54.07Z"/><path class="cls-6" d="M40.23,96.73a9.07,9.07,0,1,1-9.06-9.08A9.07,9.07,0,0,1,40.23,96.73Z"/><path class="cls-6" d="M989.88,32.69a9.07,9.07,0,1,1-9.07-9.08A9.08,9.08,0,0,1,989.88,32.69Z"/><path class="cls-6" d="M937.07,63.21A9.07,9.07,0,1,1,928,54.14,9.07,9.07,0,0,1,937.07,63.21Z"/><path class="cls-6" d="M884.27,32.69a9.07,9.07,0,1,1-9.07-9.08A9.08,9.08,0,0,1,884.27,32.69Z"/><path class="cls-6" d="M231.83,0a9,9,0,0,0,6.89,14.92A9,9,0,0,0,245.61,0Z"/><ellipse class="cls-6" cx="315.07" cy="49.98" rx="9.07" ry="9.08"/><path class="cls-6" d="M324.14,138.25a9.07,9.07,0,1,1-9.07-9.08A9.08,9.08,0,0,1,324.14,138.25Z"/><ellipse class="cls-6" cx="238.72" cy="182.39" rx="9.07" ry="9.08"/><path class="cls-6" d="M171.44,138.25a9.07,9.07,0,1,1-9.07-9.08A9.08,9.08,0,0,1,171.44,138.25Z"/><ellipse class="cls-6" cx="162.37" cy="49.98" rx="9.07" ry="9.08"/><path class="cls-6" d="M231.84,0a9.07,9.07,0,1,0,13.77,0Z"/><ellipse class="cls-6" cx="662.9" cy="10.66" rx="9.07" ry="9.08"/><ellipse class="cls-6" cx="735.08" cy="52.39" rx="9.07" ry="9.08"/><path class="cls-6" d="M744.15,135.84a9.07,9.07,0,1,1-9.07-9.08A9.08,9.08,0,0,1,744.15,135.84Z"/><path class="cls-6" d="M672,177.57a9.07,9.07,0,1,1-9.06-9.08A9.07,9.07,0,0,1,672,177.57Z"/><path class="cls-6" d="M599.78,135.84a9.07,9.07,0,1,1-9.07-9.08A9.08,9.08,0,0,1,599.78,135.84Z"/><ellipse class="cls-6" cx="590.71" cy="52.39" rx="9.07" ry="9.08"/><ellipse class="cls-6" cx="662.9" cy="10.66" rx="9.07" ry="9.08"/><path class="cls-6" d="M990.1,28.75A9.07,9.07,0,1,1,981,19.67,9.07,9.07,0,0,1,990.1,28.75Z"/><path class="cls-6" d="M1046.63,61.43a9.07,9.07,0,1,1-9.06-9.08A9.07,9.07,0,0,1,1046.63,61.43Z"/><path class="cls-6" d="M1046.63,126.8a9.07,9.07,0,1,1-9.06-9.08A9.07,9.07,0,0,1,1046.63,126.8Z"/><ellipse class="cls-6" cx="981.03" cy="159.48" rx="9.07" ry="9.08"/><path class="cls-6" d="M933.56,126.8a9.07,9.07,0,1,1-9.07-9.08A9.07,9.07,0,0,1,933.56,126.8Z"/><path class="cls-6" d="M933.56,61.43a9.07,9.07,0,1,1-9.07-9.08A9.07,9.07,0,0,1,933.56,61.43Z"/><path class="cls-6" d="M990.1,28.75A9.07,9.07,0,1,1,981,19.67,9.08,9.08,0,0,1,990.1,28.75Z"/><path class="cls-6" d="M1891.47,118.5a9.07,9.07,0,1,1-9.07-9.07A9.07,9.07,0,0,1,1891.47,118.5Z"/><path class="cls-6" d="M1949.9,152.28a9.07,9.07,0,1,1-9.07-9.07A9.07,9.07,0,0,1,1949.9,152.28Z"/><path class="cls-6" d="M1949.9,219.84a9.07,9.07,0,1,1-9.07-9.08A9.08,9.08,0,0,1,1949.9,219.84Z"/><path class="cls-6" d="M1891.47,253.62a9.07,9.07,0,1,1-9.07-9.08A9.08,9.08,0,0,1,1891.47,253.62Z"/><path class="cls-6" d="M1833,219.84a9.07,9.07,0,1,1-9.07-9.08A9.08,9.08,0,0,1,1833,219.84Z"/><path class="cls-6" d="M1833,152.28a9.07,9.07,0,1,1-9.07-9.07A9.07,9.07,0,0,1,1833,152.28Z"/><path class="cls-6" d="M1891.47,118.51a9.07,9.07,0,1,1-9.07-9.08A9.08,9.08,0,0,1,1891.47,118.51Z"/><ellipse class="cls-6" cx="662.9" cy="208.93" rx="9.07" ry="9.08"/><ellipse class="cls-6" cx="722.65" cy="243.47" rx="9.07" ry="9.08"/><path class="cls-6" d="M731.72,312.56a9.07,9.07,0,1,1-9.07-9.08A9.07,9.07,0,0,1,731.72,312.56Z"/><path class="cls-6" d="M672,347.09A9.07,9.07,0,1,1,662.9,338,9.07,9.07,0,0,1,672,347.09Z"/><path class="cls-6" d="M612.21,312.56a9.07,9.07,0,1,1-9.06-9.08A9.07,9.07,0,0,1,612.21,312.56Z"/><ellipse class="cls-6" cx="603.15" cy="243.47" rx="9.07" ry="9.08"/><path class="cls-6" d="M672,208.93a9.07,9.07,0,1,1-9.06-9.07A9.07,9.07,0,0,1,672,208.93Z"/><path class="cls-6" d="M1308.22,131.13a9.07,9.07,0,1,1-9.06-9.08A9.06,9.06,0,0,1,1308.22,131.13Z"/><path class="cls-6" d="M1435.27,204.57a9.07,9.07,0,1,1-9.06-9.08A9.07,9.07,0,0,1,1435.27,204.57Z"/><path class="cls-6" d="M1435.27,351.46a9.07,9.07,0,1,1-9.06-9.07A9.07,9.07,0,0,1,1435.27,351.46Z"/><path class="cls-6" d="M1308.22,424.9a9.07,9.07,0,1,1-9.06-9.08A9.07,9.07,0,0,1,1308.22,424.9Z"/><path class="cls-6" d="M1181.18,351.46a9.07,9.07,0,1,1-9.07-9.07A9.07,9.07,0,0,1,1181.18,351.46Z"/><path class="cls-6" d="M1181.18,204.57a9.07,9.07,0,1,1-9.07-9.08A9.07,9.07,0,0,1,1181.18,204.57Z"/><ellipse class="cls-6" cx="1299.16" cy="131.13" rx="9.07" ry="9.08"/><path class="cls-6" d="M2368.66,169.4a9.07,9.07,0,1,1-9.07-9.08A9.07,9.07,0,0,1,2368.66,169.4Z"/><path class="cls-6" d="M2368.66,386.62a9.07,9.07,0,1,1-9.07-9.08A9.07,9.07,0,0,1,2368.66,386.62Z"/><path class="cls-6" d="M2274.72,332.32a9.07,9.07,0,1,1-9.07-9.07A9.07,9.07,0,0,1,2274.72,332.32Z"/><path class="cls-6" d="M2274.72,223.71a9.07,9.07,0,1,1-9.07-9.08A9.08,9.08,0,0,1,2274.72,223.71Z"/><path class="cls-6" d="M2368.66,169.41a9.07,9.07,0,1,1-9.07-9.08A9.07,9.07,0,0,1,2368.66,169.41Z"/><path class="cls-6" d="M88.72,178.13a9.07,9.07,0,1,1-9.06-9.08A9.08,9.08,0,0,1,88.72,178.13Z"/><path class="cls-6" d="M254.66,274a9.07,9.07,0,1,1-9.07-9.08A9.08,9.08,0,0,1,254.66,274Z"/><path class="cls-6" d="M254.66,465.89a9.07,9.07,0,1,1-9.07-9.07A9.07,9.07,0,0,1,254.66,465.89Z"/><path class="cls-6" d="M88.72,561.8a9.07,9.07,0,1,1-9.06-9.08A9.07,9.07,0,0,1,88.72,561.8Z"/><ellipse class="cls-6" cx="79.66" cy="178.12" rx="9.07" ry="9.08"/><path class="cls-6" d="M937.07,317.21a9.07,9.07,0,1,1-9.06-9.07A9.07,9.07,0,0,1,937.07,317.21Z"/><path class="cls-6" d="M982.7,343.59a9.07,9.07,0,1,1-9.07-9.08A9.07,9.07,0,0,1,982.7,343.59Z"/><ellipse class="cls-6" cx="973.63" cy="396.34" rx="9.07" ry="9.08"/><path class="cls-6" d="M937.07,422.71a9.07,9.07,0,1,1-9.06-9.08A9.07,9.07,0,0,1,937.07,422.71Z"/><path class="cls-6" d="M891.44,396.34a9.07,9.07,0,1,1-9.06-9.08A9.07,9.07,0,0,1,891.44,396.34Z"/><path class="cls-6" d="M891.44,343.59a9.07,9.07,0,1,1-9.06-9.08A9.06,9.06,0,0,1,891.44,343.59Z"/><path class="cls-6" d="M937.07,317.21a9.07,9.07,0,1,1-9.06-9.08A9.07,9.07,0,0,1,937.07,317.21Z"/><path class="cls-6" d="M1467.29,333.33a9.07,9.07,0,1,1-9.07-9.07A9.07,9.07,0,0,1,1467.29,333.33Z"/><path class="cls-6" d="M1499,351.65a9.07,9.07,0,1,1-9.06-9.08A9.07,9.07,0,0,1,1499,351.65Z"/><ellipse class="cls-6" cx="1489.91" cy="388.28" rx="9.07" ry="9.08"/><path class="cls-6" d="M1467.29,406.59a9.07,9.07,0,1,1-9.07-9.08A9.07,9.07,0,0,1,1467.29,406.59Z"/><ellipse class="cls-6" cx="1426.54" cy="388.28" rx="9.07" ry="9.08"/><path class="cls-6" d="M1435.61,351.65a9.07,9.07,0,1,1-9.07-9.08A9.08,9.08,0,0,1,1435.61,351.65Z"/><ellipse class="cls-6" cx="1458.22" cy="333.33" rx="9.07" ry="9.08"/><path class="cls-6" d="M2209.6,290a9.07,9.07,0,1,1-9.07-9.08A9.08,9.08,0,0,1,2209.6,290Z"/><path class="cls-6" d="M2278.81,330a9.07,9.07,0,1,1-9.07-9.08A9.07,9.07,0,0,1,2278.81,330Z"/><path class="cls-6" d="M2278.81,410a9.07,9.07,0,1,1-9.07-9.08A9.07,9.07,0,0,1,2278.81,410Z"/><path class="cls-6" d="M2209.6,450a9.07,9.07,0,1,1-9.07-9.08A9.08,9.08,0,0,1,2209.6,450Z"/><path class="cls-6" d="M2140.38,410a9.07,9.07,0,1,1-9.06-9.08A9.07,9.07,0,0,1,2140.38,410Z"/><path class="cls-6" d="M2140.38,330a9.07,9.07,0,1,1-9.06-9.08A9.07,9.07,0,0,1,2140.38,330Z"/><path class="cls-6" d="M2209.6,290a9.07,9.07,0,1,1-9.07-9.08A9.07,9.07,0,0,1,2209.6,290Z"/><path class="cls-6" d="M57.79,387.84a9.07,9.07,0,1,1-9.07-9.07A9.07,9.07,0,0,1,57.79,387.84Z"/><ellipse class="cls-6" cx="48.72" cy="535.98" rx="9.07" ry="9.08"/><path class="cls-6" d="M990.1,272.49a9.07,9.07,0,1,1-9.07-9.08A9.08,9.08,0,0,1,990.1,272.49Z"/><path class="cls-6" d="M1153.94,367.19a9.07,9.07,0,1,1-9.06-9.08A9.07,9.07,0,0,1,1153.94,367.19Z"/><path class="cls-6" d="M1153.94,556.63a9.07,9.07,0,1,1-9.06-9.07A9.07,9.07,0,0,1,1153.94,556.63Z"/><path class="cls-6" d="M990.1,651.34a9.07,9.07,0,1,1-9.07-9.08A9.08,9.08,0,0,1,990.1,651.34Z"/><path class="cls-6" d="M826.24,556.63a9.07,9.07,0,1,1-9.06-9.07A9.06,9.06,0,0,1,826.24,556.63Z"/><path class="cls-6" d="M826.24,367.19a9.07,9.07,0,1,1-9.06-9.08A9.06,9.06,0,0,1,826.24,367.19Z"/><path class="cls-6" d="M990.1,272.48a9.07,9.07,0,1,1-9.07-9.07A9.07,9.07,0,0,1,990.1,272.48Z"/><path class="cls-6" d="M1096.14,412.83a9.07,9.07,0,1,1-9.07-9.08A9.08,9.08,0,0,1,1096.14,412.83Z"/><path class="cls-6" d="M1138.6,437.37a9.07,9.07,0,1,1-9.07-9.08A9.08,9.08,0,0,1,1138.6,437.37Z"/><path class="cls-6" d="M1138.6,486.46a9.07,9.07,0,1,1-9.07-9.08A9.08,9.08,0,0,1,1138.6,486.46Z"/><path class="cls-6" d="M1096.14,511a9.07,9.07,0,1,1-9.07-9.08A9.08,9.08,0,0,1,1096.14,511Z"/><path class="cls-6" d="M1053.68,486.46a9.07,9.07,0,1,1-9.07-9.08A9.08,9.08,0,0,1,1053.68,486.46Z"/><ellipse class="cls-6" cx="1044.61" cy="437.37" rx="9.07" ry="9.08"/><path class="cls-6" d="M1096.14,412.83a9.07,9.07,0,1,1-9.07-9.08A9.07,9.07,0,0,1,1096.14,412.83Z"/><path class="cls-6" d="M1414.27,372a9.07,9.07,0,1,1-9.07-9.08A9.08,9.08,0,0,1,1414.27,372Z"/><path class="cls-6" d="M1492.06,416.94a9.07,9.07,0,1,1-9.06-9.08A9.08,9.08,0,0,1,1492.06,416.94Z"/><path class="cls-6" d="M1492.06,506.88a9.07,9.07,0,1,1-9.06-9.07A9.07,9.07,0,0,1,1492.06,506.88Z"/><path class="cls-6" d="M1414.27,551.85a9.07,9.07,0,1,1-9.07-9.08A9.08,9.08,0,0,1,1414.27,551.85Z"/><path class="cls-6" d="M1336.48,506.88a9.07,9.07,0,1,1-9.07-9.07A9.07,9.07,0,0,1,1336.48,506.88Z"/><path class="cls-6" d="M1336.48,416.94a9.07,9.07,0,1,1-9.07-9.08A9.08,9.08,0,0,1,1336.48,416.94Z"/><path class="cls-6" d="M1414.27,372a9.07,9.07,0,1,1-9.07-9.07A9.07,9.07,0,0,1,1414.27,372Z"/><path class="cls-6" d="M1944.49,350.75a9.07,9.07,0,1,1-9.07-9.08A9.07,9.07,0,0,1,1944.49,350.75Z"/><path class="cls-6" d="M2040.65,406.32a9.07,9.07,0,1,1-9.07-9.07A9.07,9.07,0,0,1,2040.65,406.32Z"/><path class="cls-6" d="M2040.65,517.5a9.07,9.07,0,1,1-9.07-9.08A9.07,9.07,0,0,1,2040.65,517.5Z"/><path class="cls-6" d="M1944.49,573.08a9.07,9.07,0,1,1-9.07-9.08A9.08,9.08,0,0,1,1944.49,573.08Z"/><path class="cls-6" d="M1848.33,517.5a9.07,9.07,0,1,1-9.07-9.08A9.07,9.07,0,0,1,1848.33,517.5Z"/><path class="cls-6" d="M1848.33,406.32a9.07,9.07,0,1,1-9.07-9.07A9.07,9.07,0,0,1,1848.33,406.32Z"/><ellipse class="cls-6" cx="1935.42" cy="350.74" rx="9.07" ry="9.08"/><ellipse class="cls-6" cx="715.92" cy="504.54" rx="9.07" ry="9.08"/><ellipse class="cls-6" cx="758.58" cy="529.2" rx="9.07" ry="9.08"/><ellipse class="cls-6" cx="758.58" cy="578.52" rx="9.07" ry="9.08"/><path class="cls-6" d="M725,603.18a9.07,9.07,0,1,1-9.07-9.08A9.07,9.07,0,0,1,725,603.18Z"/><path class="cls-6" d="M682.32,578.52a9.07,9.07,0,1,1-9.06-9.07A9.07,9.07,0,0,1,682.32,578.52Z"/><path class="cls-6" d="M682.32,529.2a9.07,9.07,0,1,1-9.06-9.08A9.08,9.08,0,0,1,682.32,529.2Z"/><path class="cls-6" d="M725,504.54a9.07,9.07,0,1,1-9.07-9.08A9.08,9.08,0,0,1,725,504.54Z"/><path class="cls-6" d="M1361.25,406.57a9.07,9.07,0,1,1-9.07-9.08A9.08,9.08,0,0,1,1361.25,406.57Z"/><path class="cls-6" d="M1488.66,480.21a9.07,9.07,0,1,1-9.07-9.08A9.08,9.08,0,0,1,1488.66,480.21Z"/><path class="cls-6" d="M1488.66,627.52a9.07,9.07,0,1,1-9.07-9.08A9.07,9.07,0,0,1,1488.66,627.52Z"/><path class="cls-6" d="M1361.25,701.16a9.07,9.07,0,1,1-9.07-9.08A9.07,9.07,0,0,1,1361.25,701.16Z"/><path class="cls-6" d="M1233.84,627.52a9.07,9.07,0,1,1-9.07-9.08A9.07,9.07,0,0,1,1233.84,627.52Z"/><path class="cls-6" d="M1233.84,480.21a9.07,9.07,0,1,1-9.07-9.08A9.08,9.08,0,0,1,1233.84,480.21Z"/><path class="cls-6" d="M1361.25,406.56a9.07,9.07,0,1,1-9.07-9.07A9.07,9.07,0,0,1,1361.25,406.56Z"/><ellipse class="cls-6" cx="1882.4" cy="472.04" rx="9.07" ry="9.08"/><path class="cls-6" d="M1962.24,513a9.07,9.07,0,1,1-9.07-9.08A9.08,9.08,0,0,1,1962.24,513Z"/><path class="cls-6" d="M1962.24,594.78a9.07,9.07,0,1,1-9.07-9.08A9.07,9.07,0,0,1,1962.24,594.78Z"/><path class="cls-6" d="M1891.47,635.68a9.07,9.07,0,1,1-9.07-9.07A9.07,9.07,0,0,1,1891.47,635.68Z"/><path class="cls-6" d="M1820.69,594.78a9.07,9.07,0,1,1-9.07-9.08A9.07,9.07,0,0,1,1820.69,594.78Z"/><path class="cls-6" d="M1820.69,513a9.07,9.07,0,1,1-9.07-9.08A9.08,9.08,0,0,1,1820.69,513Z"/><path class="cls-6" d="M1891.47,472a9.07,9.07,0,1,1-9.07-9.08A9.08,9.08,0,0,1,1891.47,472Z"/><path class="cls-6" d="M2103.55,424.29a9.07,9.07,0,1,1-9.07-9.08A9.07,9.07,0,0,1,2103.55,424.29Z"/><path class="cls-6" d="M2215.63,489.07a9.07,9.07,0,1,1-9.07-9.08A9.07,9.07,0,0,1,2215.63,489.07Z"/><path class="cls-6" d="M2215.63,618.65a9.07,9.07,0,1,1-9.07-9.08A9.07,9.07,0,0,1,2215.63,618.65Z"/><ellipse class="cls-6" cx="2094.48" cy="683.43" rx="9.07" ry="9.08"/><path class="cls-6" d="M1991.48,618.65a9.07,9.07,0,1,1-9.07-9.08A9.07,9.07,0,0,1,1991.48,618.65Z"/><path class="cls-6" d="M1991.48,489.07a9.07,9.07,0,1,1-9.07-9.08A9.07,9.07,0,0,1,1991.48,489.07Z"/><path class="cls-6" d="M2103.55,424.29a9.07,9.07,0,1,1-9.07-9.08A9.08,9.08,0,0,1,2103.55,424.29Z"/><ellipse class="cls-6" cx="238.72" cy="554.85" rx="9.07" ry="9.08"/><path class="cls-6" d="M326.47,600.33a9.07,9.07,0,1,1-9.07-9.08A9.07,9.07,0,0,1,326.47,600.33Z"/><path class="cls-6" d="M326.47,691.3a9.07,9.07,0,1,1-9.07-9.08A9.07,9.07,0,0,1,326.47,691.3Z"/><path class="cls-6" d="M247.79,736.77a9.07,9.07,0,1,1-9.07-9.07A9.07,9.07,0,0,1,247.79,736.77Z"/><path class="cls-6" d="M169.11,691.3a9.07,9.07,0,1,1-9.07-9.08A9.07,9.07,0,0,1,169.11,691.3Z"/><path class="cls-6" d="M169.11,600.33a9.07,9.07,0,1,1-9.07-9.08A9.07,9.07,0,0,1,169.11,600.33Z"/><path class="cls-6" d="M247.79,554.85a9.07,9.07,0,1,1-9.07-9.08A9.07,9.07,0,0,1,247.79,554.85Z"/><path class="cls-6" d="M459.88,527.06a9.07,9.07,0,1,1-9.07-9.08A9.07,9.07,0,0,1,459.88,527.06Z"/><path class="cls-6" d="M562.59,586.43a9.07,9.07,0,1,1-9.06-9.08A9.07,9.07,0,0,1,562.59,586.43Z"/><ellipse class="cls-6" cx="553.53" cy="705.19" rx="9.07" ry="9.08"/><path class="cls-6" d="M459.88,764.56a9.07,9.07,0,1,1-9.07-9.08A9.08,9.08,0,0,1,459.88,764.56Z"/><ellipse class="cls-6" cx="348.09" cy="705.19" rx="9.07" ry="9.08"/><path class="cls-6" d="M357.16,586.43a9.07,9.07,0,1,1-9.07-9.08A9.07,9.07,0,0,1,357.16,586.43Z"/><path class="cls-6" d="M459.88,527.06a9.07,9.07,0,1,1-9.07-9.08A9.08,9.08,0,0,1,459.88,527.06Z"/><path class="cls-6" d="M1414.27,584.25a9.07,9.07,0,1,1-9.07-9.07A9.07,9.07,0,0,1,1414.27,584.25Z"/><path class="cls-6" d="M1467.51,615a9.07,9.07,0,1,1-9.06-9.08A9.08,9.08,0,0,1,1467.51,615Z"/><ellipse class="cls-6" cx="1458.45" cy="676.59" rx="9.07" ry="9.08"/><path class="cls-6" d="M1414.27,707.37a9.07,9.07,0,1,1-9.07-9.08A9.08,9.08,0,0,1,1414.27,707.37Z"/><path class="cls-6" d="M1361,676.59a9.07,9.07,0,1,1-9.06-9.08A9.08,9.08,0,0,1,1361,676.59Z"/><path class="cls-6" d="M1361,615A9.07,9.07,0,1,1,1352,606,9.08,9.08,0,0,1,1361,615Z"/><path class="cls-6" d="M1414.27,584.25a9.07,9.07,0,1,1-9.07-9.08A9.07,9.07,0,0,1,1414.27,584.25Z"/><path class="cls-6" d="M300.81,664.27a9.07,9.07,0,1,1-9.07-9.08A9.08,9.08,0,0,1,300.81,664.27Z"/><path class="cls-6" d="M364.38,701a9.07,9.07,0,1,1-9.07-9.08A9.08,9.08,0,0,1,364.38,701Z"/><path class="cls-6" d="M364.38,774.51a9.07,9.07,0,1,1-9.07-9.08A9.08,9.08,0,0,1,364.38,774.51Z"/><path class="cls-6" d="M300.81,811.26a9.07,9.07,0,1,1-9.07-9.08A9.07,9.07,0,0,1,300.81,811.26Z"/><path class="cls-6" d="M237.24,774.51a9.07,9.07,0,1,1-9.06-9.08A9.08,9.08,0,0,1,237.24,774.51Z"/><path class="cls-6" d="M237.24,701a9.07,9.07,0,1,1-9.06-9.08A9.08,9.08,0,0,1,237.24,701Z"/><path class="cls-6" d="M300.81,664.27a9.07,9.07,0,1,1-9.07-9.08A9.08,9.08,0,0,1,300.81,664.27Z"/><path class="cls-6" d="M1361.25,706.17a9.07,9.07,0,1,1-9.07-9.07A9.07,9.07,0,0,1,1361.25,706.17Z"/><path class="cls-6" d="M1388.57,722a9.07,9.07,0,1,1-9.07-9.08A9.07,9.07,0,0,1,1388.57,722Z"/><path class="cls-6" d="M1388.57,753.56a9.07,9.07,0,1,1-9.07-9.08A9.07,9.07,0,0,1,1388.57,753.56Z"/><ellipse class="cls-6" cx="1352.18" cy="769.35" rx="9.07" ry="9.08"/><path class="cls-6" d="M1333.92,753.56a9.07,9.07,0,1,1-9.06-9.08A9.07,9.07,0,0,1,1333.92,753.56Z"/><path class="cls-6" d="M1333.92,722a9.07,9.07,0,1,1-9.06-9.08A9.07,9.07,0,0,1,1333.92,722Z"/><path class="cls-6" d="M1361.25,706.17a9.07,9.07,0,1,1-9.07-9.08A9.07,9.07,0,0,1,1361.25,706.17Z"/><ellipse class="cls-6" cx="1458.22" cy="587.33" rx="9.07" ry="9.08"/><path class="cls-6" d="M1597.41,662.54a9.07,9.07,0,1,1-9.07-9.08A9.08,9.08,0,0,1,1597.41,662.54Z"/><path class="cls-6" d="M1597.41,813a9.07,9.07,0,1,1-9.07-9.08A9.08,9.08,0,0,1,1597.41,813Z"/><path class="cls-6" d="M1337.17,813a9.07,9.07,0,1,1-9.06-9.08A9.08,9.08,0,0,1,1337.17,813Z"/><path class="cls-6" d="M1337.17,662.54a9.07,9.07,0,1,1-9.06-9.08A9.08,9.08,0,0,1,1337.17,662.54Z"/><path class="cls-6" d="M1467.29,587.33a9.07,9.07,0,1,1-9.07-9.08A9.08,9.08,0,0,1,1467.29,587.33Z"/><path class="cls-6" d="M1679.38,702.43a9.07,9.07,0,1,1-9.07-9.08A9.07,9.07,0,0,1,1679.38,702.43Z"/><path class="cls-6" d="M1709.94,720.09a9.07,9.07,0,1,1-9.06-9.08A9.07,9.07,0,0,1,1709.94,720.09Z"/><path class="cls-6" d="M1709.94,755.43a9.07,9.07,0,1,1-9.06-9.08A9.08,9.08,0,0,1,1709.94,755.43Z"/><path class="cls-6" d="M1679.38,773.1a9.07,9.07,0,1,1-9.07-9.08A9.08,9.08,0,0,1,1679.38,773.1Z"/><path class="cls-6" d="M1648.81,755.43a9.07,9.07,0,1,1-9.06-9.08A9.08,9.08,0,0,1,1648.81,755.43Z"/><path class="cls-6" d="M1648.81,720.09a9.07,9.07,0,1,1-9.06-9.08A9.07,9.07,0,0,1,1648.81,720.09Z"/><path class="cls-6" d="M1679.38,702.42a9.07,9.07,0,1,1-9.07-9.07A9.07,9.07,0,0,1,1679.38,702.42Z"/><ellipse class="cls-6" cx="662.9" cy="733.87" rx="9.07" ry="9.08"/><path class="cls-6" d="M754.87,781.79a9.07,9.07,0,1,1-9.07-9.08A9.08,9.08,0,0,1,754.87,781.79Z"/><path class="cls-6" d="M754.87,877.63a9.07,9.07,0,1,1-9.07-9.07A9.07,9.07,0,0,1,754.87,877.63Z"/><path class="cls-6" d="M589.06,877.63a9.07,9.07,0,1,1-9.07-9.07A9.07,9.07,0,0,1,589.06,877.63Z"/><path class="cls-6" d="M589.06,781.79a9.07,9.07,0,1,1-9.07-9.08A9.08,9.08,0,0,1,589.06,781.79Z"/><path class="cls-6" d="M672,733.86a9.07,9.07,0,1,1-9.06-9.07A9.07,9.07,0,0,1,672,733.86Z"/><path class="cls-6" d="M778,697.88a9.07,9.07,0,1,1-9.07-9.08A9.08,9.08,0,0,1,778,697.88Z"/><path class="cls-6" d="M892,763.8a9.07,9.07,0,1,1-9.07-9.08A9.08,9.08,0,0,1,892,763.8Z"/><path class="cls-6" d="M664,763.8a9.07,9.07,0,1,1-9.07-9.08A9.08,9.08,0,0,1,664,763.8Z"/><path class="cls-6" d="M778,697.88a9.07,9.07,0,1,1-9.07-9.08A9.08,9.08,0,0,1,778,697.88Z"/><path class="cls-6" d="M990.1,709.5a9.07,9.07,0,1,1-9.07-9.08A9.08,9.08,0,0,1,990.1,709.5Z"/><path class="cls-6" d="M1094.07,769.61a9.07,9.07,0,1,1-9.07-9.08A9.08,9.08,0,0,1,1094.07,769.61Z"/><path class="cls-6" d="M886.12,769.61a9.07,9.07,0,1,1-9.07-9.08A9.08,9.08,0,0,1,886.12,769.61Z"/><path class="cls-6" d="M990.1,709.5a9.07,9.07,0,1,1-9.07-9.08A9.08,9.08,0,0,1,990.1,709.5Z"/><path class="cls-6" d="M1414.27,737.32a9.07,9.07,0,1,1-9.07-9.08A9.08,9.08,0,0,1,1414.27,737.32Z"/><path class="cls-6" d="M1494.18,783.52a9.07,9.07,0,1,1-9.06-9.08A9.08,9.08,0,0,1,1494.18,783.52Z"/><ellipse class="cls-6" cx="1485.12" cy="875.91" rx="9.07" ry="9.08"/><ellipse class="cls-6" cx="1325.29" cy="875.91" rx="9.07" ry="9.08"/><path class="cls-6" d="M1334.36,783.52a9.07,9.07,0,1,1-9.07-9.08A9.08,9.08,0,0,1,1334.36,783.52Z"/><path class="cls-6" d="M1414.27,737.32a9.07,9.07,0,1,1-9.07-9.08A9.08,9.08,0,0,1,1414.27,737.32Z"/><path class="cls-6" d="M1732.4,680.81a9.07,9.07,0,1,1-9.07-9.07A9.07,9.07,0,0,1,1732.4,680.81Z"/><path class="cls-6" d="M1861.19,755.27a9.07,9.07,0,1,1-9.07-9.08A9.07,9.07,0,0,1,1861.19,755.27Z"/><path class="cls-6" d="M1603.61,755.27a9.07,9.07,0,1,1-9.07-9.08A9.07,9.07,0,0,1,1603.61,755.27Z"/><path class="cls-6" d="M1732.4,680.81a9.07,9.07,0,1,1-9.07-9.08A9.07,9.07,0,0,1,1732.4,680.81Z"/><path class="cls-6" d="M1944.49,673.25a9.07,9.07,0,1,1-9.07-9.08A9.08,9.08,0,0,1,1944.49,673.25Z"/><path class="cls-6" d="M2079.82,751.48a9.07,9.07,0,1,1-9.07-9.07A9.07,9.07,0,0,1,2079.82,751.48Z"/><path class="cls-6" d="M1809.15,751.48a9.07,9.07,0,1,1-9.06-9.07A9.07,9.07,0,0,1,1809.15,751.48Z"/><path class="cls-6" d="M1944.49,673.25a9.07,9.07,0,1,1-9.07-9.08A9.07,9.07,0,0,1,1944.49,673.25Z"/><path class="cls-6" d="M512.9,735a9.07,9.07,0,1,1-9.07-9.08A9.08,9.08,0,0,1,512.9,735Z"/><path class="cls-6" d="M674.4,828.31a9.07,9.07,0,1,1-9.07-9.08A9.08,9.08,0,0,1,674.4,828.31Z"/><path class="cls-6" d="M351.4,828.31a9.07,9.07,0,1,1-9.07-9.08A9.08,9.08,0,0,1,351.4,828.31Z"/><path class="cls-6" d="M512.9,735a9.07,9.07,0,1,1-9.07-9.08A9.07,9.07,0,0,1,512.9,735Z"/><path class="cls-6" d="M1891.47,805a9.07,9.07,0,1,1-9.07-9.08A9.07,9.07,0,0,1,1891.47,805Z"/><path class="cls-6" d="M1992.34,863.35a9.07,9.07,0,1,1-9.07-9.08A9.08,9.08,0,0,1,1992.34,863.35Z"/><path class="cls-6" d="M1790.59,863.35a9.07,9.07,0,1,1-9.07-9.08A9.08,9.08,0,0,1,1790.59,863.35Z"/><path class="cls-6" d="M1891.47,805a9.07,9.07,0,1,1-9.07-9.08A9.07,9.07,0,0,1,1891.47,805Z"/></g></g></g></svg>