<svg id="Layer_2" data-name="Layer 2" xmlns="http://www.w3.org/2000/svg" viewBox="0 0 800 800"><defs><style>.cls-1{fill:none;stroke:#fff;stroke-linecap:round;stroke-linejoin:round;stroke-width:16.67px;}</style></defs><path class="cls-1" d="M400.58,28.36C185.53,28.25,11.11,202.49,11,417.53A389.37,389.37,0,0,0,277.42,787.19c19.56,3.62,26.63-8.33,26.63-18.11V703c-108.67,23.55-131.12-52.15-131.12-52.15a103.24,103.24,0,0,0-44-57.78c-35.32-24.08,2.72-23.72,2.72-23.72a81.87,81.87,0,0,1,59.58,40.2c34.77,59.59,90.55,42.38,113.37,32.42a83.51,83.51,0,0,1,24.81-52.16c-86.57-9.78-177.48-43.1-177.48-192.33A150.19,150.19,0,0,1,192.12,293a139.08,139.08,0,0,1,3.81-103s32.6-10.5,107,39.85a370.47,370.47,0,0,1,194.87,0c74.43-50.35,107-39.85,107-39.85a140.17,140.17,0,0,1,3.81,103,150,150,0,0,1,40,104.5C648.69,547,558.14,579.82,471,589.6A92.75,92.75,0,0,1,497.47,662V768.9c0,12.85,7.06,22.45,26.8,18.11,204-68.21,314-288.83,245.78-492.77A389.37,389.37,0,0,0,400.58,28.36"/></svg>