<svg xmlns="http://www.w3.org/2000/svg" xmlns:xlink="http://www.w3.org/1999/xlink" viewBox="0 0 10356.67 3200.62"><defs><style>.cls-1,.cls-117{fill:none;}.cls-2{isolation:isolate;}.cls-3{clip-path:url(#clip-path);}.cls-4{fill:url(#linear-gradient);}.cls-10,.cls-5,.cls-6,.cls-7,.cls-8,.cls-9{opacity:0.3;mix-blend-mode:multiply;}.cls-5{fill:url(#linear-gradient-2);}.cls-6{fill:url(#linear-gradient-3);}.cls-7{fill:url(#linear-gradient-4);}.cls-8{fill:url(#linear-gradient-5);}.cls-9{fill:url(#linear-gradient-6);}.cls-10{fill:url(#linear-gradient-7);}.cls-11{mix-blend-mode:screen;}.cls-12{fill:url(#linear-gradient-8);}.cls-13{fill:url(#linear-gradient-9);}.cls-14{fill:url(#linear-gradient-10);}.cls-15{fill:url(#linear-gradient-11);}.cls-16{fill:url(#linear-gradient-12);}.cls-17{fill:url(#linear-gradient-13);}.cls-18{fill:url(#linear-gradient-14);}.cls-19{fill:url(#linear-gradient-15);}.cls-20{fill:url(#linear-gradient-16);}.cls-21{fill:url(#linear-gradient-17);}.cls-22{fill:url(#linear-gradient-18);}.cls-23{fill:url(#linear-gradient-19);}.cls-24{fill:url(#linear-gradient-20);}.cls-25{fill:url(#linear-gradient-21);}.cls-26{fill:url(#linear-gradient-22);}.cls-27{fill:url(#linear-gradient-23);}.cls-28{fill:url(#linear-gradient-24);}.cls-29{fill:url(#linear-gradient-25);}.cls-30{fill:url(#linear-gradient-26);}.cls-31{fill:url(#linear-gradient-27);}.cls-32{fill:url(#linear-gradient-28);}.cls-33{fill:url(#linear-gradient-29);}.cls-34{fill:url(#linear-gradient-30);}.cls-35{fill:url(#linear-gradient-31);}.cls-36{fill:url(#linear-gradient-32);}.cls-37{fill:url(#linear-gradient-33);}.cls-38{fill:url(#linear-gradient-34);}.cls-39{fill:url(#linear-gradient-35);}.cls-40{fill:url(#linear-gradient-36);}.cls-41{fill:url(#linear-gradient-37);}.cls-42{fill:url(#linear-gradient-38);}.cls-43{fill:url(#linear-gradient-39);}.cls-44{fill:url(#linear-gradient-40);}.cls-45{fill:url(#linear-gradient-41);}.cls-46{fill:url(#linear-gradient-42);}.cls-47{fill:url(#linear-gradient-43);}.cls-48{fill:url(#linear-gradient-44);}.cls-49{fill:url(#linear-gradient-45);}.cls-50{fill:url(#linear-gradient-46);}.cls-51{fill:url(#linear-gradient-47);}.cls-52{fill:url(#linear-gradient-48);}.cls-53{fill:url(#linear-gradient-49);}.cls-54{fill:url(#linear-gradient-50);}.cls-55{fill:url(#linear-gradient-51);}.cls-56{fill:url(#linear-gradient-52);}.cls-57{fill:url(#linear-gradient-53);}.cls-58{fill:url(#linear-gradient-54);}.cls-59{fill:url(#linear-gradient-55);}.cls-60{fill:url(#linear-gradient-56);}.cls-61{fill:url(#linear-gradient-57);}.cls-62{fill:url(#linear-gradient-58);}.cls-63{fill:url(#linear-gradient-59);}.cls-64{fill:url(#linear-gradient-60);}.cls-65{fill:url(#linear-gradient-61);}.cls-66{fill:url(#linear-gradient-62);}.cls-67{fill:url(#linear-gradient-63);}.cls-68{fill:url(#linear-gradient-64);}.cls-69{fill:url(#linear-gradient-65);}.cls-70{fill:url(#linear-gradient-66);}.cls-71{fill:url(#linear-gradient-67);}.cls-72{fill:url(#linear-gradient-68);}.cls-73{fill:url(#linear-gradient-69);}.cls-74{fill:url(#linear-gradient-70);}.cls-75{fill:url(#linear-gradient-71);}.cls-76{fill:url(#linear-gradient-72);}.cls-77{fill:url(#linear-gradient-73);}.cls-78{fill:url(#linear-gradient-74);}.cls-79{fill:url(#linear-gradient-75);}.cls-80{fill:url(#linear-gradient-76);}.cls-81{fill:url(#linear-gradient-77);}.cls-82{fill:url(#linear-gradient-78);}.cls-83{fill:url(#linear-gradient-79);}.cls-84{fill:url(#linear-gradient-80);}.cls-85{fill:url(#linear-gradient-81);}.cls-86{fill:url(#linear-gradient-82);}.cls-87{fill:url(#linear-gradient-83);}.cls-88{fill:url(#linear-gradient-84);}.cls-89{fill:url(#linear-gradient-85);}.cls-90{fill:url(#linear-gradient-86);}.cls-91{fill:url(#linear-gradient-87);}.cls-92{fill:url(#linear-gradient-88);}.cls-93{fill:url(#linear-gradient-89);}.cls-94{fill:url(#linear-gradient-90);}.cls-95{fill:url(#linear-gradient-91);}.cls-96{fill:url(#linear-gradient-92);}.cls-97{fill:url(#linear-gradient-93);}.cls-98{fill:url(#linear-gradient-94);}.cls-99{fill:url(#linear-gradient-95);}.cls-100{fill:url(#linear-gradient-96);}.cls-101{fill:url(#linear-gradient-97);}.cls-102{fill:url(#linear-gradient-98);}.cls-103{fill:url(#linear-gradient-99);}.cls-104{fill:url(#linear-gradient-100);}.cls-105{fill:url(#linear-gradient-101);}.cls-106{fill:url(#linear-gradient-102);}.cls-107{fill:url(#linear-gradient-103);}.cls-108{fill:url(#linear-gradient-104);}.cls-109{fill:url(#linear-gradient-105);}.cls-110{fill:url(#linear-gradient-106);}.cls-111{fill:url(#linear-gradient-107);}.cls-112{fill:url(#linear-gradient-108);}.cls-113{fill:url(#linear-gradient-109);}.cls-114{fill:url(#linear-gradient-110);}.cls-115{fill:url(#linear-gradient-111);}.cls-116{fill:#fff;opacity:0.1;}.cls-117{stroke:#fff;stroke-miterlimit:10;stroke-width:2px;}</style><clipPath id="clip-path"><rect class="cls-1" x="5.73" y="-5" width="10343.94" height="6895.96" transform="translate(10346.73 6898.97) rotate(-179.86)"/></clipPath><linearGradient id="linear-gradient" x1="881.8" y1="7762.95" x2="9501.73" y2="-856.97" gradientTransform="translate(-14.08 -10.02)" gradientUnits="userSpaceOnUse"><stop offset="0" stop-color="#ea5259"/><stop offset="1" stop-color="#ffd300"/></linearGradient><linearGradient id="linear-gradient-2" x1="5688.24" y1="4383.92" x2="13510.05" y2="4383.92" gradientTransform="translate(10360.78 6909.02) rotate(-179.86)" xlink:href="#linear-gradient"/><linearGradient id="linear-gradient-3" x1="6880.41" y1="5022.1" x2="12431.56" y2="5022.1" gradientTransform="translate(10360.78 6909.02) rotate(-179.86)" xlink:href="#linear-gradient"/><linearGradient id="linear-gradient-4" x1="8071.42" y1="5661.27" x2="11365.21" y2="5661.27" gradientTransform="translate(10360.78 6909.02) rotate(-179.86)" xlink:href="#linear-gradient"/><linearGradient id="linear-gradient-5" x1="-1421.22" y1="6456.85" x2="6156.65" y2="6456.85" gradientTransform="translate(10360.78 6909.02) rotate(-179.86)" gradientUnits="userSpaceOnUse"><stop offset="0" stop-color="#ffd300"/><stop offset="1" stop-color="#ea5259"/></linearGradient><linearGradient id="linear-gradient-6" x1="-1024.49" y1="6244.09" x2="4211.26" y2="6244.09" xlink:href="#linear-gradient-5"/><linearGradient id="linear-gradient-7" x1="-400.39" y1="6355.87" x2="2493.26" y2="6355.87" xlink:href="#linear-gradient-5"/><linearGradient id="linear-gradient-8" x1="1394.64" y1="7076.42" x2="1974.9" y2="7076.42" gradientTransform="translate(10360.78 6909.02) rotate(-179.86)" xlink:href="#linear-gradient"/><linearGradient id="linear-gradient-9" x1="10290.79" y1="3250.8" x2="13030.45" y2="3250.8" gradientTransform="translate(10360.78 6909.02) rotate(-179.86)" xlink:href="#linear-gradient"/><linearGradient id="linear-gradient-10" x1="10192.49" y1="3250.8" x2="12932.15" y2="3250.8" gradientTransform="translate(10360.78 6909.02) rotate(-179.86)" xlink:href="#linear-gradient"/><linearGradient id="linear-gradient-11" x1="10094.18" y1="3250.8" x2="12833.84" y2="3250.8" gradientTransform="translate(10360.78 6909.02) rotate(-179.86)" xlink:href="#linear-gradient"/><linearGradient id="linear-gradient-12" x1="4890.73" y1="7977.14" x2="7613.69" y2="7977.14" gradientTransform="translate(10360.78 6909.02) rotate(-179.86)" xlink:href="#linear-gradient"/><linearGradient id="linear-gradient-13" x1="4497.51" y1="7977.14" x2="7237.17" y2="7977.14" gradientTransform="translate(10360.78 6909.02) rotate(-179.86)" xlink:href="#linear-gradient"/><linearGradient id="linear-gradient-14" x1="4694.11" y1="7977.14" x2="7433.77" y2="7977.14" gradientTransform="translate(10360.78 6909.02) rotate(-179.86)" xlink:href="#linear-gradient"/><linearGradient id="linear-gradient-15" x1="4792.42" y1="7977.14" x2="7532.08" y2="7977.14" gradientTransform="translate(10360.78 6909.02) rotate(-179.86)" xlink:href="#linear-gradient"/><linearGradient id="linear-gradient-16" x1="4595.82" y1="7977.14" x2="7335.47" y2="7977.14" gradientTransform="translate(10360.78 6909.02) rotate(-179.86)" xlink:href="#linear-gradient"/><linearGradient id="linear-gradient-17" x1="3778.34" y1="3188.75" x2="5269.21" y2="3188.75" gradientTransform="translate(10360.78 6909.02) rotate(-179.86)" xlink:href="#linear-gradient"/><linearGradient id="linear-gradient-18" x1="3680.03" y1="3188.75" x2="5170.91" y2="3188.75" gradientTransform="translate(10360.78 6909.02) rotate(-179.86)" xlink:href="#linear-gradient"/><linearGradient id="linear-gradient-19" x1="6606.53" y1="4866.51" x2="8097.39" y2="4866.51" gradientTransform="translate(10360.78 6909.02) rotate(-179.86)" xlink:href="#linear-gradient"/><linearGradient id="linear-gradient-20" x1="6704.83" y1="4866.51" x2="8195.7" y2="4866.51" gradientTransform="translate(10360.78 6909.02) rotate(-179.86)" xlink:href="#linear-gradient"/><linearGradient id="linear-gradient-21" x1="1884.01" y1="5440.9" x2="3052.46" y2="5440.9" gradientTransform="translate(10360.78 6909.02) rotate(-179.86)" xlink:href="#linear-gradient"/><linearGradient id="linear-gradient-22" x1="1785.7" y1="5440.9" x2="2954.15" y2="5440.9" gradientTransform="translate(10360.78 6909.02) rotate(-179.86)" xlink:href="#linear-gradient"/><linearGradient id="linear-gradient-23" x1="5749.94" y1="6334.78" x2="6029.82" y2="6334.78" gradientTransform="translate(10360.78 6909.02) rotate(-179.86)" xlink:href="#linear-gradient"/><linearGradient id="linear-gradient-24" x1="5649.73" y1="6286.52" x2="6033.52" y2="6286.52" gradientTransform="translate(10360.78 6909.02) rotate(-179.86)" xlink:href="#linear-gradient"/><linearGradient id="linear-gradient-25" x1="5407.08" y1="5902.23" x2="5507.62" y2="5902.23" gradientTransform="translate(10360.78 6909.02) rotate(-179.86)" xlink:href="#linear-gradient"/><linearGradient id="linear-gradient-26" x1="5353.76" y1="5951.4" x2="5659.24" y2="5951.4" gradientTransform="translate(10360.78 6909.02) rotate(-179.86)" xlink:href="#linear-gradient"/><linearGradient id="linear-gradient-27" x1="5571.17" y1="6239.06" x2="6017.15" y2="6239.06" gradientTransform="translate(10360.78 6909.02) rotate(-179.86)" xlink:href="#linear-gradient"/><linearGradient id="linear-gradient-28" x1="5451.96" y1="6142.97" x2="5944.18" y2="6142.97" gradientTransform="translate(10360.78 6909.02) rotate(-179.86)" xlink:href="#linear-gradient"/><linearGradient id="linear-gradient-29" x1="5374.61" y1="6046.86" x2="5829.3" y2="6046.86" gradientTransform="translate(10360.78 6909.02) rotate(-179.86)" xlink:href="#linear-gradient"/><linearGradient id="linear-gradient-30" x1="5506.19" y1="6191.13" x2="5986.26" y2="6191.13" gradientTransform="translate(10360.78 6909.02) rotate(-179.86)" xlink:href="#linear-gradient"/><linearGradient id="linear-gradient-31" x1="5407.91" y1="6094.85" x2="5891.98" y2="6094.85" gradientTransform="translate(10360.78 6909.02) rotate(-179.86)" xlink:href="#linear-gradient"/><linearGradient id="linear-gradient-32" x1="5354.9" y1="5999.24" x2="5753.78" y2="5999.24" gradientTransform="translate(10360.78 6909.02) rotate(-179.86)" xlink:href="#linear-gradient"/><linearGradient id="linear-gradient-33" x1="-859.37" y1="5993.54" x2="1187.72" y2="5993.54" gradientTransform="translate(10360.78 6909.02) rotate(-179.86)" xlink:href="#linear-gradient"/><linearGradient id="linear-gradient-34" x1="-712.85" y1="6222.9" x2="1169.32" y2="6222.9" gradientTransform="translate(10360.78 6909.02) rotate(-179.86)" xlink:href="#linear-gradient"/><linearGradient id="linear-gradient-35" x1="-653.34" y1="6300.41" x2="1149.76" y2="6300.41" gradientTransform="translate(10360.78 6909.02) rotate(-179.86)" xlink:href="#linear-gradient"/><linearGradient id="linear-gradient-36" x1="-766.48" y1="6145.86" x2="1181.25" y2="6145.86" gradientTransform="translate(10360.78 6909.02) rotate(-179.86)" xlink:href="#linear-gradient"/><linearGradient id="linear-gradient-37" x1="-815.07" y1="6069.56" x2="1186.95" y2="6069.56" gradientTransform="translate(10360.78 6909.02) rotate(-179.86)" xlink:href="#linear-gradient"/><linearGradient id="linear-gradient-38" x1="-582.25" y1="6375.84" x2="1120.42" y2="6375.84" gradientTransform="translate(10360.78 6909.02) rotate(-179.86)" xlink:href="#linear-gradient"/><linearGradient id="linear-gradient-39" x1="-478.91" y1="6442.99" x2="1076.6" y2="6442.99" gradientTransform="translate(10360.78 6909.02) rotate(-179.86)" xlink:href="#linear-gradient"/><linearGradient id="linear-gradient-40" x1="-229.14" y1="6450.08" x2="1009.25" y2="6450.08" gradientTransform="translate(10360.78 6909.02) rotate(-179.86)" xlink:href="#linear-gradient"/><linearGradient id="linear-gradient-41" x1="89.76" y1="6448.26" x2="890.61" y2="6448.26" gradientTransform="translate(10360.78 6909.02) rotate(-179.86)" xlink:href="#linear-gradient"/><linearGradient id="linear-gradient-42" x1="-1372.25" y1="3837.35" x2="131.87" y2="3837.35" gradientTransform="translate(10360.78 6909.02) rotate(-179.86)" xlink:href="#linear-gradient"/><linearGradient id="linear-gradient-43" x1="-1355.93" y1="3752.19" x2="88.71" y2="3752.19" gradientTransform="translate(10360.78 6909.02) rotate(-179.86)" xlink:href="#linear-gradient"/><linearGradient id="linear-gradient-44" x1="-1335.32" y1="3663.8" x2="47.89" y2="3663.8" gradientTransform="translate(10360.78 6909.02) rotate(-179.86)" xlink:href="#linear-gradient"/><linearGradient id="linear-gradient-45" x1="-1384.36" y1="3919.41" x2="176.78" y2="3919.41" gradientTransform="translate(10360.78 6909.02) rotate(-179.86)" xlink:href="#linear-gradient"/><linearGradient id="linear-gradient-46" x1="-1398.51" y1="4076.46" x2="270.44" y2="4076.46" gradientTransform="translate(10360.78 6909.02) rotate(-179.86)" xlink:href="#linear-gradient"/><linearGradient id="linear-gradient-47" x1="-1399.31" y1="4298.32" x2="416.99" y2="4298.32" gradientTransform="translate(10360.78 6909.02) rotate(-179.86)" xlink:href="#linear-gradient"/><linearGradient id="linear-gradient-48" x1="-1401.44" y1="4225.89" x2="367.65" y2="4225.89" gradientTransform="translate(10360.78 6909.02) rotate(-179.86)" xlink:href="#linear-gradient"/><linearGradient id="linear-gradient-49" x1="-1401.26" y1="4152.07" x2="318.71" y2="4152.07" gradientTransform="translate(10360.78 6909.02) rotate(-179.86)" xlink:href="#linear-gradient"/><linearGradient id="linear-gradient-50" x1="-1393.12" y1="3999.07" x2="223.05" y2="3999.07" gradientTransform="translate(10360.78 6909.02) rotate(-179.86)" xlink:href="#linear-gradient"/><linearGradient id="linear-gradient-51" x1="-1357.8" y1="4646.03" x2="660.81" y2="4646.03" gradientTransform="translate(10360.78 6909.02) rotate(-179.86)" xlink:href="#linear-gradient"/><linearGradient id="linear-gradient-52" x1="-1311.79" y1="4849.56" x2="795.47" y2="4849.56" gradientTransform="translate(10360.78 6909.02) rotate(-179.86)" xlink:href="#linear-gradient"/><linearGradient id="linear-gradient-53" x1="-1395.03" y1="4369.58" x2="466.46" y2="4369.58" gradientTransform="translate(10360.78 6909.02) rotate(-179.86)" xlink:href="#linear-gradient"/><linearGradient id="linear-gradient-54" x1="-1388.71" y1="4439.75" x2="515.81" y2="4439.75" gradientTransform="translate(10360.78 6909.02) rotate(-179.86)" xlink:href="#linear-gradient"/><linearGradient id="linear-gradient-55" x1="-1328.72" y1="4781.72" x2="752.18" y2="4781.72" gradientTransform="translate(10360.78 6909.02) rotate(-179.86)" xlink:href="#linear-gradient"/><linearGradient id="linear-gradient-56" x1="-1380.25" y1="4509.08" x2="564.82" y2="4509.08" gradientTransform="translate(10360.78 6909.02) rotate(-179.86)" xlink:href="#linear-gradient"/><linearGradient id="linear-gradient-57" x1="-1344.06" y1="4713.95" x2="707.17" y2="4713.95" gradientTransform="translate(10360.78 6909.02) rotate(-179.86)" xlink:href="#linear-gradient"/><linearGradient id="linear-gradient-58" x1="-1369.89" y1="4577.78" x2="613.24" y2="4577.78" gradientTransform="translate(10360.78 6909.02) rotate(-179.86)" xlink:href="#linear-gradient"/><linearGradient id="linear-gradient-59" x1="-1205.8" y1="5192.71" x2="982.92" y2="5192.71" gradientTransform="translate(10360.78 6909.02) rotate(-179.86)" xlink:href="#linear-gradient"/><linearGradient id="linear-gradient-60" x1="-1273.44" y1="4985.83" x2="876.47" y2="4985.83" gradientTransform="translate(10360.78 6909.02) rotate(-179.86)" xlink:href="#linear-gradient"/><linearGradient id="linear-gradient-61" x1="-1154.4" y1="5332.72" x2="1043.38" y2="5332.72" gradientTransform="translate(10360.78 6909.02) rotate(-179.86)" xlink:href="#linear-gradient"/><linearGradient id="linear-gradient-62" x1="-937.27" y1="5842.24" x2="1177.77" y2="5842.24" gradientTransform="translate(10360.78 6909.02) rotate(-179.86)" xlink:href="#linear-gradient"/><linearGradient id="linear-gradient-63" x1="-1252.2" y1="5054.42" x2="914" y2="5054.42" gradientTransform="translate(10360.78 6909.02) rotate(-179.86)" xlink:href="#linear-gradient"/><linearGradient id="linear-gradient-64" x1="-1293.32" y1="4917.55" x2="836.96" y2="4917.55" gradientTransform="translate(10360.78 6909.02) rotate(-179.86)" xlink:href="#linear-gradient"/><linearGradient id="linear-gradient-65" x1="-1229.65" y1="5123.37" x2="949.49" y2="5123.37" gradientTransform="translate(10360.78 6909.02) rotate(-179.86)" xlink:href="#linear-gradient"/><linearGradient id="linear-gradient-66" x1="-1037.47" y1="5619.54" x2="1136.51" y2="5619.54" gradientTransform="translate(10360.78 6909.02) rotate(-179.86)" xlink:href="#linear-gradient"/><linearGradient id="linear-gradient-67" x1="-1126.9" y1="5403.5" x2="1070.28" y2="5403.5" gradientTransform="translate(10360.78 6909.02) rotate(-179.86)" xlink:href="#linear-gradient"/><linearGradient id="linear-gradient-68" x1="-1098.23" y1="5474.85" x2="1094.84" y2="5474.85" gradientTransform="translate(10360.78 6909.02) rotate(-179.86)" xlink:href="#linear-gradient"/><linearGradient id="linear-gradient-69" x1="-1068.41" y1="5546.83" x2="1116.96" y2="5546.83" gradientTransform="translate(10360.78 6909.02) rotate(-179.86)" xlink:href="#linear-gradient"/><linearGradient id="linear-gradient-70" x1="-1180.71" y1="5262.48" x2="1014.24" y2="5262.48" gradientTransform="translate(10360.78 6909.02) rotate(-179.86)" xlink:href="#linear-gradient"/><linearGradient id="linear-gradient-71" x1="-899.85" y1="5917.71" x2="1184.66" y2="5917.71" gradientTransform="translate(10360.78 6909.02) rotate(-179.86)" xlink:href="#linear-gradient"/><linearGradient id="linear-gradient-72" x1="-972.26" y1="5767.33" x2="1167.3" y2="5767.33" gradientTransform="translate(10360.78 6909.02) rotate(-179.86)" xlink:href="#linear-gradient"/><linearGradient id="linear-gradient-73" x1="-1005.43" y1="5693.04" x2="1153.35" y2="5693.04" gradientTransform="translate(10360.78 6909.02) rotate(-179.86)" xlink:href="#linear-gradient"/><linearGradient id="linear-gradient-74" x1="9528.61" y1="7076.31" x2="12229.57" y2="7076.31" gradientTransform="translate(10360.78 6909.02) rotate(-179.86)" xlink:href="#linear-gradient"/><linearGradient id="linear-gradient-75" x1="9644.2" y1="7117.6" x2="12227.98" y2="7117.6" gradientTransform="translate(10360.78 6909.02) rotate(-179.86)" xlink:href="#linear-gradient"/><linearGradient id="linear-gradient-76" x1="9892.48" y1="7199.98" x2="12208.14" y2="7199.98" gradientTransform="translate(10360.78 6909.02) rotate(-179.86)" xlink:href="#linear-gradient"/><linearGradient id="linear-gradient-77" x1="10170.65" y1="7282.98" x2="12157.22" y2="7282.98" gradientTransform="translate(10360.78 6909.02) rotate(-179.86)" xlink:href="#linear-gradient"/><linearGradient id="linear-gradient-78" x1="10026.81" y1="7241.55" x2="12187.28" y2="7241.55" gradientTransform="translate(10360.78 6909.02) rotate(-179.86)" xlink:href="#linear-gradient"/><linearGradient id="linear-gradient-79" x1="9765.38" y1="7158.7" x2="12221.22" y2="7158.7" gradientTransform="translate(10360.78 6909.02) rotate(-179.86)" xlink:href="#linear-gradient"/><linearGradient id="linear-gradient-80" x1="10326.06" y1="7324.78" x2="12114.8" y2="7324.78" gradientTransform="translate(10360.78 6909.02) rotate(-179.86)" xlink:href="#linear-gradient"/><linearGradient id="linear-gradient-81" x1="8182.02" y1="6472.6" x2="8728.06" y2="6472.6" gradientTransform="translate(10360.78 6909.02) rotate(-179.86)" xlink:href="#linear-gradient"/><linearGradient id="linear-gradient-82" x1="8105.61" y1="6519.6" x2="8907.09" y2="6519.6" gradientTransform="translate(10360.78 6909.02) rotate(-179.86)" xlink:href="#linear-gradient"/><linearGradient id="linear-gradient-83" x1="8065.38" y1="6563.03" x2="9057.06" y2="6563.03" gradientTransform="translate(10360.78 6909.02) rotate(-179.86)" xlink:href="#linear-gradient"/><linearGradient id="linear-gradient-84" x1="8039.84" y1="6707.4" x2="9578.48" y2="6707.4" gradientTransform="translate(10360.78 6909.02) rotate(-179.86)" xlink:href="#linear-gradient"/><linearGradient id="linear-gradient-85" x1="9009.87" y1="6873.95" x2="12174.26" y2="6873.95" gradientTransform="translate(10360.78 6909.02) rotate(-179.86)" xlink:href="#linear-gradient"/><linearGradient id="linear-gradient-86" x1="9417.45" y1="7035.64" x2="12226.68" y2="7035.64" gradientTransform="translate(10360.78 6909.02) rotate(-179.86)" xlink:href="#linear-gradient"/><linearGradient id="linear-gradient-87" x1="9310.25" y1="6994.98" x2="12219.16" y2="6994.98" gradientTransform="translate(10360.78 6909.02) rotate(-179.86)" xlink:href="#linear-gradient"/><linearGradient id="linear-gradient-88" x1="8035.23" y1="6640.94" x2="9324.61" y2="6640.94" gradientTransform="translate(10360.78 6909.02) rotate(-179.86)" xlink:href="#linear-gradient"/><linearGradient id="linear-gradient-89" x1="8044.27" y1="6603.32" x2="9194.2" y2="6603.32" gradientTransform="translate(10360.78 6909.02) rotate(-179.86)" xlink:href="#linear-gradient"/><linearGradient id="linear-gradient-90" x1="8050.93" y1="6735.51" x2="9706.74" y2="6735.51" gradientTransform="translate(10360.78 6909.02) rotate(-179.86)" xlink:href="#linear-gradient"/><linearGradient id="linear-gradient-91" x1="8034.55" y1="6675.72" x2="9451.85" y2="6675.72" gradientTransform="translate(10360.78 6909.02) rotate(-179.86)" xlink:href="#linear-gradient"/><linearGradient id="linear-gradient-92" x1="8087.15" y1="6775.95" x2="9981.19" y2="6775.95" gradientTransform="translate(10360.78 6909.02) rotate(-179.86)" xlink:href="#linear-gradient"/><linearGradient id="linear-gradient-93" x1="8169.72" y1="6183.74" x2="11661.7" y2="6183.74" gradientTransform="translate(10360.78 6909.02) rotate(-179.86)" xlink:href="#linear-gradient"/><linearGradient id="linear-gradient-94" x1="8536" y1="6609.15" x2="12007.97" y2="6609.15" gradientTransform="translate(10360.78 6909.02) rotate(-179.86)" xlink:href="#linear-gradient"/><linearGradient id="linear-gradient-95" x1="9207.03" y1="6954.49" x2="12207.84" y2="6954.49" gradientTransform="translate(10360.78 6909.02) rotate(-179.86)" xlink:href="#linear-gradient"/><linearGradient id="linear-gradient-96" x1="8829.02" y1="6792.21" x2="12128.92" y2="6792.21" gradientTransform="translate(10360.78 6909.02) rotate(-179.86)" xlink:href="#linear-gradient"/><linearGradient id="linear-gradient-97" x1="9106.98" y1="6914.11" x2="12192.57" y2="6914.11" gradientTransform="translate(10360.78 6909.02) rotate(-179.86)" xlink:href="#linear-gradient"/><linearGradient id="linear-gradient-98" x1="8916.51" y1="6833.84" x2="12153.1" y2="6833.84" gradientTransform="translate(10360.78 6909.02) rotate(-179.86)" xlink:href="#linear-gradient"/><linearGradient id="linear-gradient-99" x1="8747.31" y1="6748.95" x2="12102.16" y2="6748.95" gradientTransform="translate(10360.78 6909.02) rotate(-179.86)" xlink:href="#linear-gradient"/><linearGradient id="linear-gradient-100" x1="8111.2" y1="6782.14" x2="10140.58" y2="6782.14" gradientTransform="translate(10360.78 6909.02) rotate(-179.86)" xlink:href="#linear-gradient"/><linearGradient id="linear-gradient-101" x1="8066.92" y1="6758.95" x2="9839.63" y2="6758.95" gradientTransform="translate(10360.78 6909.02) rotate(-179.86)" xlink:href="#linear-gradient"/><linearGradient id="linear-gradient-102" x1="8323.61" y1="6403.05" x2="11851.3" y2="6403.05" gradientTransform="translate(10360.78 6909.02) rotate(-179.86)" xlink:href="#linear-gradient"/><linearGradient id="linear-gradient-103" x1="8240.66" y1="6294.2" x2="11760.62" y2="6294.2" gradientTransform="translate(10360.78 6909.02) rotate(-179.86)" xlink:href="#linear-gradient"/><linearGradient id="linear-gradient-104" x1="8280.63" y1="6348.87" x2="11806.98" y2="6348.87" gradientTransform="translate(10360.78 6909.02) rotate(-179.86)" xlink:href="#linear-gradient"/><linearGradient id="linear-gradient-105" x1="8203.7" y1="6239.2" x2="11712.22" y2="6239.2" gradientTransform="translate(10360.78 6909.02) rotate(-179.86)" xlink:href="#linear-gradient"/><linearGradient id="linear-gradient-106" x1="8138.83" y1="6761.78" x2="10349.69" y2="6761.78" gradientTransform="translate(10360.78 6909.02) rotate(-179.86)" xlink:href="#linear-gradient"/><linearGradient id="linear-gradient-107" x1="8420.92" y1="6508.5" x2="11933.8" y2="6508.5" gradientTransform="translate(10360.78 6909.02) rotate(-179.86)" xlink:href="#linear-gradient"/><linearGradient id="linear-gradient-108" x1="8600.97" y1="6657.29" x2="12041.61" y2="6657.29" gradientTransform="translate(10360.78 6909.02) rotate(-179.86)" xlink:href="#linear-gradient"/><linearGradient id="linear-gradient-109" x1="8671.32" y1="6703.93" x2="12073.04" y2="6703.93" gradientTransform="translate(10360.78 6909.02) rotate(-179.86)" xlink:href="#linear-gradient"/><linearGradient id="linear-gradient-110" x1="8476.1" y1="6559.51" x2="11971.95" y2="6559.51" gradientTransform="translate(10360.78 6909.02) rotate(-179.86)" xlink:href="#linear-gradient"/><linearGradient id="linear-gradient-111" x1="8370.23" y1="6456.3" x2="11893.57" y2="6456.3" gradientTransform="translate(10360.78 6909.02) rotate(-179.86)" xlink:href="#linear-gradient"/></defs><g class="cls-2"><g id="Capa_1" data-name="Capa 1"><g class="cls-3"><rect class="cls-4" x="5.73" y="-5" width="10343.94" height="6895.96" transform="translate(10346.73 6898.97) rotate(-179.86)"/><path class="cls-5" d="M1143.82,6890.79c255.51-269.29,380.59-657.09,330.58-1024.92-56.21-413.45-314.85-844-129.4-1217.8,107.85-217.39,344.29-344.34,581.14-397.21s482.52-45.31,723.91-70.21c655.2-67.57,1350-476.9,1444.17-1128.82,99.81-691.22-494.47-1289.39-607.94-1978.5C3412,622.15,3561.9,139.57,3878.77-190.09c280-291.29,697.28-496.76,795-888.8,109.62-439.72-267.85-868.58-688.94-1036.07C3413.3-2342.3,2763.71-2251,2176-2069.44s-1149.52,449.61-1751.28,577c-549.14,116.26-1125.63,114.07-1652.6,307.4-993,364.3-1634.48,1379.84-1827.84,2419.76s-10.91,2110.31,208,3145.16c103.92,491.31,220.87,992.54,494.63,1413.55C-1771.91,6687.29,221.24,7863.14,1143.82,6890.79Z"/><path class="cls-6" d="M835.32,4921.31c184.77-182.76,280.9-451.33,254.08-709.82-30.14-290.55-201.56-597.57-63.49-855,80.29-149.72,248.55-233.3,415.45-265s338.64-21,508.1-33c460-32.73,955.25-303.72,1035.6-757.79,85.19-481.44-317.36-913.2-381.46-1397.91-42-317.35,73.66-651.69,302.7-875.32,202.39-197.61,498.94-332.11,576-604.26,86.47-305.24-168.13-613.71-459-740.26-394.87-171.77-851.43-122.33-1266.68-8.32S942.27-1036.37,518.38-960.59C131.55-891.44-271.79-905.78-644.81-782.21-1347.75-549.35-1819.15,147-1977.55,870.36s-54.5,1476.39,75.66,2205.36c61.8,346.09,132.51,699.4,314.71,1000.08C-1200.36,4714.15,168.18,5581.2,835.32,4921.31Z"/><path class="cls-7" d="M526.83,2951.83c114-96.22,181.21-245.57,177.58-394.72-4.09-167.65-88.28-351.12,2.4-492.19,52.74-82,152.83-122.25,249.78-132.85s194.76,3.33,292.29,4.11c264.71,2.12,560.45-130.52,627-386.75,70.57-271.67-140.24-537-155-817.31-9.63-183.52,71.69-369.63,212.91-487.23,124.78-103.92,300.59-167.46,357-319.71,63.32-170.78-68.4-358.85-229.17-444.46-218.2-116.2-481.73-108.59-724.54-62.17S858-452.92,612-428.76c-224.52,22.05-454.7-4.44-673.78,49.38C-474.63-278-776,99.19-899.4,506S-997.5,1348.46-956,1771.55c19.68,200.86,44.14,406.27,134.78,586.61C-628.81,2741,115.11,3299.25,526.83,2951.83Z"/><path class="cls-8" d="M5793.88-1841.23c-426.21,312.61-842.48,652.5-1147.1,1084.48s-489.53,970-406.73,1492,472.89,1009,991.52,1111c553.42,108.91,1144.81-211.82,1677.25-25.7C7786.06,2127.24,7836.58,3525.64,8700.89,3867c364,143.76,773.46,52.43,1153.6-40.48h0c974.1-238.07,1712.45-1039.85,1859.05-2031.85,19.47-131.69,33.59-262.24,43-389.57C11820,548.7,11870.08-369,11433.49-1108.54c-336.32-569.68-913.61-947-1470.68-1303.82-421.23-269.8-859.67-546.18-1355-615.73-701.62-98.5-1384.63,231.59-2016.36,552.36C6282.35-2318.79,6073.38-2046.24,5793.88-1841.23Z"/><path class="cls-9" d="M7252.4-919.54c-294.49,216-582.1,450.84-792.56,749.3s-338.23,670.18-281,1030.88,326.74,697.12,685.07,767.64c382.38,75.24,791-146.36,1158.86-17.76,606.11,211.87,641,1178.06,1238.19,1413.94,251.47,99.33,534.4,36.23,797-28h0C10731,2832,11241.16,2278,11342.46,1592.64c13.45-91,23.2-181.19,29.72-269.17C11416,731.73,11450.61,97.65,11149-413.31c-232.38-393.6-631.24-654.3-1016.13-900.84-291-186.41-594-377.37-936.24-425.42-484.77-68.06-956.68,160-1393.16,381.64C7589.89-1249.5,7445.51-1061.18,7252.4-919.54Z"/><path class="cls-10" d="M8484.36-323c-162.76,119.37-321.71,249.16-438,414.11S7859.4,461.55,7891,660.9s180.57,385.27,378.61,424.24c211.33,41.59,437.15-80.88,640.47-9.81,335,117.09,354.27,651.08,684.31,781.45,139,54.89,295.35,20,440.51-15.46h0c372-90.91,653.91-397.07,709.89-775.87,7.43-50.29,12.83-100.14,16.43-148.76,24.23-327,43.35-677.48-123.37-959.87C10509.44-260.71,10289-404.79,10076.28-541c-160.84-103-328.27-208.56-517.42-235.12-267.92-37.61-528.73,88.44-770,210.93C8670.88-505.32,8591.08-401.24,8484.36-323Z"/><g class="cls-11"><path class="cls-12" d="M8927.78-384.83l1-1,33.58-33.41Q8974-440.14,8984.66-461L8919-395.71l-1,1-1,1-293.6,292.13-1,1-1,1L8402.94,117.76q18.89-8.37,37.55-17.75L8631.1-89.64l1-1,1-1,293.6-292.13Z"/><polygon class="cls-13" points="-2431.86 4773.19 -2430.83 4772.17 -2137.23 4480.04 -2136.2 4479.02 -2135.18 4478 -1841.58 4185.87 -1841.58 4185.87 -1840.55 4184.85 -1545.25 3891.02 -1544.9 3890.68 -1249.24 3596.51 -1248.21 3595.49 -1248.22 3595.48 -954.62 3303.36 -953.59 3302.34 -658.97 3009.2 -657.94 3008.18 -656.91 3007.15 -363.32 2715.02 -363.31 2715.03 -362.29 2714.01 -66.64 2419.83 -65.61 2418.81 81.58 2272.36 61.92 2272.31 -76.45 2409.98 -77.47 2411 -371.07 2703.13 -371.07 2703.12 -372.1 2704.15 -667.75 2998.32 -668.77 2999.34 -962.37 3291.46 -963.4 3292.49 -1259.06 3586.65 -1260.09 3587.67 -1260.08 3587.68 -1553.69 3879.8 -1554.71 3880.82 -1555.05 3881.16 -1555.74 3881.84 -1849.33 4173.97 -1849.34 4173.97 -1850.36 4174.99 -2146.01 4469.16 -2147.04 4470.18 -2440.64 4762.31 -2441.66 4763.33 -2442.69 4764.35 -2664.91 4985.46 -2645.25 4985.51 -2432.88 4774.21 -2431.86 4773.19"/><polygon class="cls-14" points="-2383.86 4823.49 -2382.83 4822.46 -2088.19 4529.31 -2087.17 4528.3 -1792.54 4235.14 -1791.52 4234.13 -1790.49 4233.1 -1496.89 3940.98 -1495.87 3939.96 -1494.84 3938.93 -1201.24 3646.81 -1200.22 3645.79 -1199.19 3644.77 -905.6 3352.64 -905.59 3352.64 -904.57 3351.62 -608.92 3057.45 -607.89 3056.42 -314.29 2764.3 -313.26 2763.28 -312.24 2762.26 -18.64 2470.13 -17.61 2469.11 -16.59 2468.09 179.88 2272.6 160.22 2272.55 -26.4 2458.23 -27.42 2459.25 -28.45 2460.27 -322.05 2752.4 -323.07 2753.42 -324.1 2754.44 -618.72 3047.59 -619.75 3048.61 -913.35 3340.74 -913.35 3340.73 -914.38 3341.76 -1210.02 3635.93 -1211.05 3636.95 -1504.65 3929.08 -1505.68 3930.1 -1506.7 3931.12 -1800.3 4223.25 -1801.33 4224.27 -1802.35 4225.29 -2095.95 4517.41 -2096.98 4518.44 -2391.61 4811.58 -2391.61 4811.58 -2392.64 4812.6 -2566.62 4985.71 -2546.95 4985.76 -2383.86 4823.48 -2383.86 4823.49"/><polygon class="cls-15" points="21.96 2508.19 21.61 2508.53 -274.05 2802.69 -275.07 2803.72 -275.07 2803.72 -568.67 3095.84 -569.7 3096.86 -570.73 3097.89 -865.35 3391.03 -866.38 3392.05 -1159.97 3684.18 -1159.97 3684.18 -1161 3685.2 -1456.65 3979.37 -1457.68 3980.4 -1751.28 4272.52 -1752.3 4273.54 -1753.33 4274.56 -2046.93 4566.69 -2047.95 4567.71 -2048.98 4568.73 -2342.58 4860.86 -2343.61 4861.88 -2344.63 4862.9 -2468.31 4985.96 -2448.64 4986.01 -2334.82 4872.76 -2333.8 4871.74 -2332.77 4870.72 -2039.17 4578.59 -2038.15 4577.57 -2037.12 4576.55 -1743.52 4284.42 -1742.49 4283.4 -1741.47 4282.38 -1447.87 3990.25 -1446.84 3989.23 -1445.82 3988.21 -1152.22 3696.08 -1152.22 3696.09 -1151.19 3695.06 -855.54 3400.89 -854.52 3399.87 -560.92 3107.74 -559.89 3106.72 -264.23 2812.56 -263.2 2811.53 -263.21 2811.53 30.4 2519.41 31.42 2518.39 31.76 2518.05 32.45 2517.36 278.19 2272.85 258.53 2272.8 21.96 2508.19"/><polygon class="cls-16" points="2781.96 257.56 2782.99 256.54 2784.01 255.52 3077.61 -36.61 3078.64 -37.63 3374.3 -331.8 3375.33 -332.82 3375.32 -332.82 3668.93 -624.94 3669.95 -625.97 3964.58 -919.11 3965.6 -920.13 3966.63 -921.15 4260.22 -1213.29 4260.23 -1213.28 4261.26 -1214.3 4556.9 -1508.48 4557.93 -1509.5 4851.53 -1801.63 4852.55 -1802.65 4853.58 -1803.67 5147.18 -2095.8 5148.2 -2096.82 5149.23 -2097.84 5442.83 -2389.97 5443.86 -2390.99 5444.88 -2392.01 5493.52 -2440.41 5490.56 -2440.41 5442.38 -2392.47 5441.35 -2391.45 5146.72 -2098.31 5145.7 -2097.28 4851.07 -1804.14 4850.05 -1803.12 4555.42 -1509.97 4554.4 -1508.95 4259.77 -1215.8 4258.74 -1214.77 3964.12 -921.63 3963.09 -920.61 3668.47 -627.46 3667.44 -626.44 3372.81 -333.29 3371.78 -332.26 3077.16 -39.12 3076.13 -38.1 2781.51 255.05 2780.48 256.07 2763.72 272.74 2766.69 272.75 2781.96 257.56"/><polygon class="cls-17" points="5631.2 -2204.77 5630.16 -2203.74 5334.51 -1909.57 5333.48 -1908.55 5333.49 -1908.54 5039.88 -1616.42 5038.86 -1615.4 5037.83 -1614.38 4744.23 -1322.25 4743.21 -1321.23 4742.18 -1320.21 4448.58 -1028.08 4447.56 -1027.06 4446.53 -1026.04 4152.93 -733.92 4151.9 -732.89 4150.88 -731.87 3857.28 -439.75 3856.25 -438.73 3855.23 -437.7 3561.63 -145.58 3560.6 -144.56 3559.58 -143.54 3265.98 148.59 3264.95 149.61 3263.93 150.63 3140.25 273.69 3159.91 273.74 3273.73 160.49 3274.76 159.47 3275.79 158.45 3569.39 -133.68 3570.41 -134.7 3571.44 -135.72 3865.03 -427.85 3866.06 -428.87 3867.09 -429.89 4160.69 -722.02 4161.71 -723.04 4162.74 -724.06 4456.34 -1016.18 4457.36 -1017.21 4458.39 -1018.23 4751.99 -1310.35 4753.02 -1311.38 4754.04 -1312.39 5047.64 -1604.52 5048.67 -1605.55 5344.33 -1899.71 5345.35 -1900.73 5345.35 -1900.74 5638.94 -2192.86 5638.95 -2192.86 5639.98 -2193.88 5886.74 -2439.42 5867.08 -2439.47 5631.2 -2204.76 5631.2 -2204.77"/><polygon class="cls-18" points="5532.11 -2302.29 5531.08 -2301.27 5237.48 -2009.14 5236.46 -2008.12 5235.43 -2007.1 4941.84 -1714.97 4940.81 -1713.95 4939.78 -1712.93 4646.18 -1420.81 4645.15 -1419.78 4349.5 -1125.62 4348.47 -1124.6 4348.48 -1124.59 4054.87 -832.47 4053.84 -831.45 4052.82 -830.43 3758.19 -537.28 3757.17 -536.26 3463.58 -244.13 3463.57 -244.13 3462.54 -243.11 3166.9 51.06 3165.86 52.09 2943.64 273.2 2963.31 273.25 3175.67 61.95 3176.7 60.92 3177.73 59.9 3471.32 -232.23 3471.32 -232.22 3472.36 -233.25 3768 -527.42 3769.03 -528.45 4062.63 -820.57 4063.65 -821.59 4359.31 -1115.76 4360.34 -1116.78 4360.34 -1116.79 4653.94 -1408.91 4654.96 -1409.92 4949.59 -1703.08 4950.61 -1704.09 4951.64 -1705.12 5245.24 -1997.24 5246.27 -1998.26 5247.29 -1999.28 5540.89 -2291.41 5541.92 -2292.43 5542.94 -2293.45 5690.14 -2439.91 5670.48 -2439.96 5533.14 -2303.31 5532.11 -2302.29"/><polygon class="cls-19" points="5483.08 -2351.57 5482.06 -2350.55 5188.45 -2058.41 5187.43 -2057.4 5186.4 -2056.37 4892.8 -1764.24 4891.78 -1763.23 4890.74 -1762.2 4597.15 -1470.08 4596.12 -1469.06 4595.1 -1468.03 4301.5 -1175.91 4300.47 -1174.89 4299.44 -1173.87 4005.85 -881.74 4004.82 -880.72 4003.79 -879.7 3710.2 -587.57 3709.17 -586.55 3708.14 -585.53 3414.55 -293.4 3413.52 -292.38 3412.49 -291.36 3118.89 0.76 3117.86 1.79 3116.84 2.81 2845.34 272.95 2865 273 3126.65 12.66 3127.67 11.64 3128.7 10.62 3422.3 -281.5 3423.32 -282.52 3424.35 -283.55 3717.95 -575.67 3718.98 -576.69 3720 -577.72 4013.6 -869.84 4014.63 -870.86 4015.65 -871.88 4309.25 -1164.01 4310.28 -1165.03 4311.3 -1166.05 4604.9 -1458.18 4605.93 -1459.2 4606.95 -1460.22 4900.55 -1752.35 4901.58 -1753.37 4902.61 -1754.39 5196.2 -2046.51 5197.24 -2047.54 5198.26 -2048.55 5491.87 -2340.7 5492.89 -2341.71 5493.92 -2342.74 5591.83 -2440.16 5572.17 -2440.21 5484.11 -2352.59 5483.08 -2351.57"/><polygon class="cls-20" points="5581.13 -2253.02 5580.11 -2252 5286.51 -1959.87 5285.48 -1958.85 5284.46 -1957.83 4990.86 -1665.7 4989.83 -1664.68 4988.81 -1663.66 4694.18 -1370.51 4693.15 -1369.49 4398.53 -1076.33 4397.51 -1075.31 4103.91 -783.18 4102.88 -782.16 4101.85 -781.14 3808.26 -489.02 3807.23 -488 3806.2 -486.98 3512.61 -194.85 3511.58 -193.83 3216.94 99.32 3215.92 100.34 3214.89 101.36 3041.94 273.44 3061.6 273.49 3224.7 111.22 3225.73 110.19 3520.36 -182.95 3521.38 -183.97 3816.01 -477.12 3817.04 -478.14 3818.06 -479.16 4111.66 -771.29 4112.69 -772.31 4113.72 -773.33 4407.31 -1065.45 4408.34 -1066.48 4409.36 -1067.5 4703.99 -1360.65 4705.02 -1361.68 4998.61 -1653.8 4999.64 -1654.82 5000.67 -1655.85 5294.27 -1947.97 5295.29 -1948.99 5296.32 -1950.02 5589.91 -2242.14 5590.94 -2243.16 5591.97 -2244.18 5788.43 -2439.66 5768.77 -2439.71 5582.16 -2254.04 5581.13 -2253.02"/><polygon class="cls-21" points="6106.67 3438.75 6106.32 3439.09 6105.64 3439.77 5812.05 3731.9 5812.04 3731.9 5811.02 3732.92 5515.37 4027.09 5514.34 4028.11 5220.74 4320.24 5219.72 4321.26 5218.69 4322.28 5097.74 4442.63 5117.4 4442.68 5228.5 4332.14 5229.52 4331.12 5230.55 4330.1 5524.15 4037.97 5525.18 4036.95 5526.2 4035.93 5819.79 3743.8 5819.8 3743.8 5820.83 3742.78 6116.13 3448.95 6116.48 3448.6 6412.13 3154.44 6413.16 3153.42 6413.16 3153.41 6592.3 2975.17 6572.64 2975.12 6402.32 3144.58 6401.29 3145.6 6401.3 3145.61 6107.69 3437.73 6106.67 3438.75"/><polygon class="cls-22" points="6450.33 3194.88 6156.73 3487.01 6155.7 3488.03 6154.68 3489.05 5861.08 3781.17 5860.05 3782.2 5859.03 3783.22 5565.43 4075.34 5564.4 4076.37 5269.77 4369.52 5268.74 4370.53 5267.71 4371.56 5196.04 4442.87 5215.7 4442.92 5277.52 4381.42 5278.55 4380.39 5573.18 4087.24 5574.21 4086.22 5868.83 3793.07 5869.86 3792.06 5870.89 3791.03 6164.48 3498.9 6165.51 3497.89 6166.54 3496.86 6460.14 3204.74 6461.16 3203.72 6462.19 3202.7 6690.61 2975.41 6670.95 2975.36 6452.38 3192.84 6451.35 3193.86 6450.33 3194.88"/><polygon class="cls-23" points="2293.44 2757.81 2356.28 2695.29 2357.31 2694.26 2357.3 2694.26 2650.91 2402.14 2651.93 2401.12 2946.56 2107.97 2947.59 2106.95 2948.61 2105.93 3242.21 1813.8 3243.24 1812.78 3244.26 1811.76 3537.86 1519.63 3538.89 1518.61 3539.91 1517.59 3768.33 1290.31 3748.67 1290.26 3529.08 1508.75 3528.05 1509.78 3234.45 1801.9 3233.43 1802.92 3232.4 1803.94 2938.8 2096.07 2937.78 2097.09 2936.75 2098.11 2643.15 2390.24 2642.13 2391.26 2346.47 2685.43 2345.44 2686.45 2345.45 2686.45 2273.77 2757.76 2293.44 2757.81"/><polygon class="cls-24" points="2296.41 2637.18 2175.47 2757.52 2195.13 2757.57 2306.22 2647.03 2307.25 2646.01 2308.27 2644.99 2601.86 2352.86 2601.87 2352.87 2602.9 2351.84 2898.55 2057.66 2899.57 2056.64 3193.17 1764.52 3194.2 1763.49 3488.84 1470.35 3489.86 1469.33 3670.04 1290.06 3650.37 1290.01 3481.08 1458.45 3480.05 1459.48 3185.42 1752.62 3184.39 1753.64 3183.36 1754.66 2888.74 2047.81 2887.72 2048.83 2594.12 2340.96 2594.12 2340.95 2593.09 2341.98 2297.44 2636.15 2296.41 2637.18"/><polygon class="cls-25" points="8078.17 1281.01 8077.15 1282.03 7783.55 1574.16 7782.52 1575.18 7781.5 1576.2 7486.87 1869.35 7485.85 1870.37 7320.55 2034.84 7340.22 2034.89 7496.68 1879.21 7497.71 1878.18 7791.3 1586.06 7792.33 1585.04 7793.36 1584.02 8086.95 1291.89 8087.98 1290.87 8383.64 996.71 8384.67 995.68 8384.67 995.67 8491.9 888.99 8472.23 888.93 8373.83 986.84 8372.8 987.87 8372.8 987.87 8079.2 1279.99 8078.17 1281.01"/><polygon class="cls-26" points="8423.89 1035.1 8423.89 1035.09 8422.86 1036.12 8127.21 1330.3 8126.19 1331.32 7832.59 1623.44 7831.56 1624.47 7830.53 1625.48 7536.94 1917.61 7535.91 1918.63 7418.86 2035.09 7438.52 2035.14 7544.69 1929.51 7545.72 1928.49 7840.34 1635.34 7841.37 1634.32 7842.39 1633.3 8135.99 1341.17 8137.02 1340.15 8138.04 1339.13 8431.64 1047 8431.64 1047.01 8432.67 1045.98 8590.2 889.23 8570.54 889.18 8423.89 1035.1"/><path class="cls-27" d="M4346.53,699l106-105.41,1-1h0l173.61-172.72q-12.54,2.06-24.76,5L4442.67,583.74l-1,1h0l-90,89.53Q4348.66,686.49,4346.53,699Z"/><path class="cls-28" d="M4344.39,799.23l156.1-155.32,1-1,1-1L4727.33,418.2q-8.86-1.15-17.86-1.84L4492.73,632l-1,1-1,1L4342.63,781.36Q4343.28,790.36,4344.39,799.23Z"/><path class="cls-29" d="M4883.93,1027.23l-16.06,16c6-3.91,12-7.94,17.77-12.21.39-.3.79-.58,1.18-.87a343.2,343.2,0,0,0,81.84-87.2L4885,1026.21h0Z"/><path class="cls-30" d="M5022.37,791.42,4835.93,976.93l-1,1-1,1-117.75,117.17c7.67-.75,15.25-1.81,22.77-3.05l104.79-104.26,1-1,1-1,173.48-172.6C5020.49,806.67,5021.59,799.09,5022.37,791.42Z"/><path class="cls-31" d="M4541.76,681.28l-1,1-1,1-180.92,180q2.41,7.32,5.13,14.5l185.59-184.65,1-1,1-1,254.28-253q-7.17-2.77-14.48-5.21Z"/><path class="cls-32" d="M4639.82,779.83l-1,1-1,1L4431.45,987.15c3.14,3.42,6.31,6.8,9.58,10.09l206.54-205.51,1-1,1-1,275.23-273.85c-3.27-3.29-6.64-6.47-10-9.63Z"/><path class="cls-33" d="M4737.88,878.37l-1,1-1,1-189.71,188.75q6.9,3,14,5.72l185.55-184.62,1-1,1-1,254.22-253c-1.79-4.71-3.66-9.38-5.66-14Z"/><path class="cls-34" d="M4590.79,730.55l-1,1-1,1L4389.51,930.82c2.43,4.09,5,8.11,7.58,12.08l201.46-200.45,1-1,1-1,270.14-268.78c-4-2.62-8-5.19-12-7.64Z"/><path class="cls-35" d="M4688.84,829.1l-1,1-1,1-203.26,202.23c3.83,2.76,7.69,5.45,11.63,8L4696.6,841l1-1,1-1,270.12-268.77q-3.87-5.93-8-11.66Z"/><path class="cls-36" d="M4786.9,927.66l-1,1-1,1-163.27,162.45q8.46,1.53,17.05,2.65l156-155.24,1-1,1-1,224.71-223.58q-1.08-8.59-2.56-17.06Z"/><path class="cls-37" d="M9439.7,1688.86l1-1,1-1,293.6-292.13,1-1,1-1,293.6-292.13,1-1,1-1,293.6-292.12,1-1,1-1,293.6-292.12,1-1,1-1L10918,218l1-1,1-1,293.6-292.13,1-1,1-1,22.13-22c-2.81-3.74-5.69-7.41-8.55-11.11L11205.85-88l-1,1-1,1L10910.2,206.12l-1,1-1,1-293.6,292.13-1,1-1,1-293.6,292.13-1,1-1,1-293.6,292.12-1,1-1,1-293.6,292.12-1,1-1,1L9431.94,1677l-1,1-1,1-244.31,243.08c0,6.46.17,12.91.27,19.36Z"/><path class="cls-38" d="M9293.64,1540l1-1,293.59-292.12,1-1,1-1L9883.91,952.7l1-1,1-1,293.59-292.13,1-1,1-1,293.6-292.13,1-1,1-1,293.6-292.13,1-1,1-1L11066.52-224l1-1,1-1,23.06-22.94c-3.74-2.84-7.5-5.76-11.22-8.45l-21.65,21.54-1,1-1,1L10763.11,58.3l-1,1-1,1-293.6,292.12-1,1-1,1-293.6,292.12-1,1-1,1L9876.16,940.8l-1,1-1,1L9580.51,1235l-1,1-1,1-293.6,292.13-1,1-1,1-75.08,74.7c-1.12,7.51-2,15.07-3,22.6l87.89-87.45Z"/><path class="cls-39" d="M9244.61,1490.74l294.63-293.14,1-1,294.63-293.15,1-1,1-1,293.6-292.14h0l1-1,295.65-294.18,1-1,293.6-292.13,1-1,1-1,293.6-292.13,1-1,1-1,12.66-12.6c-4.28-2.33-8.57-4.73-12.86-6.82l-9.61,9.56-1,1-1,1L10714.09,9l-1,1-1,1-294.63,293.16-1,1-293.6,292.13h0l-1,1L9826.11,892.55l-1,1L9531.49,1185.7l-1,1-294.64,293.15-1,1-1,1-4.13,4.11q-2.61,12.3-5.06,24.64l19-18.9Z"/><path class="cls-40" d="M9341.64,1590.32l1-1,295.64-294.17,1-1L9932.94,1002l1-1,1-1,293.6-292.13,1-1,294.63-293.15,1-1,294.63-293.15,1-1,1-1,293.59-292.12,1-1,1-1,27.53-27.4c-3.4-3.16-6.91-6.21-10.37-9.29l-27,26.83-1,1-1,1-293.6,292.13-1,1-1,1-293.6,292.12-1,1L10220.83,695.9l-1,1-1,1-293.6,292.13-1,1-1,1-294.62,293.15-1,1-293.59,292.13h0l-1,1-138.31,137.63c-.67,7.21-1.43,14.41-2,21.62l149.11-148.37Z"/><path class="cls-41" d="M9392.73,1637.55h0l293.6-292.12,1-1L9982,1051.25l1-1,1-1,293.6-292.12,1-1,1-1,293.59-292.13h0l1-1L10870,167.72l1-1,293.6-292.12,1-1,1-1,27-26.85c-3.08-3.47-6.13-7-9.27-10.39l-27.52,27.38-1,1-1,1-294.63,293.15-1,1L10565.53,451h0l-1,1-295.64,294.18-1,1-293.6,292.12-1,1-1,1-293.6,292.12-1,1-295.66,294.17-1,1h0l-193.7,192.72c-.28,6.73-.39,13.47-.6,20.21l205.14-204.1Z"/><path class="cls-42" d="M9491.23,1147.29l1-1,293.59-292.13,1-1,1-1L10081.5,560l1-1,295.66-294.16,1-1h0l293.61-292.12,1-1,287.35-285.9c-5.61-1.22-11.23-2.09-16.87-2.83L10665.06-40.26l-1,1-295.66,294.16-1,1h0l-293.6,292.12-1,1-1,1L9778.1,842.24l-1,1-1,1-293.6,292.12-1,1-1,1L9262,1355.74c-2.6,9.11-5.31,18.19-7.77,27.35l236-234.78Z"/><path class="cls-43" d="M9442.2,1098l1-1,293.6-292.13,1-1,1-1,293.6-292.13,1-1,1-1,293.6-292.12,1-1,1-1,293.6-292.13,1-1,1-1,232-230.86a254,254,0,0,0-32.25,12.48L10615-88.51l-1,1-293.6,292.13-1,1-1,1-293.6,292.13-1,1-1,1L9729.08,793l-1,1-1,1-293.59,292.12-1,1-1,1L9309.85,1210.1c-3.85,10.31-7.75,20.6-11.42,31l142.75-142Z"/><path class="cls-44" d="M9394.21,1047.73h0L9687.81,755.6l1-1,1-1,293.59-292.13h0l1-1,295.65-294.17,1-1,293.6-292.12,1-1,1-1,30.88-30.72q-19.14,12.65-38.25,25.37l-1.23.81q-9.87,6.57-19.74,13.13l-278.15,276.75-1,1L9975.71,449.53h0l-1,1L9679,744.73l-295.14,293.64c-.12.23-.24.46-.35.69-.23.45-.47.9-.7,1.36-5.73,11.65-11.17,23.43-16.65,35.19l27-26.86Z"/><path class="cls-45" d="M9639.8,705.3l1-1,293.6-292.13,1-1,1-1L10230.07,118l1-1,57.13-56.84q-33,23.94-65.65,48.27l-1.18.87c-3.17,2.37-6.3,4.77-9.46,7.15L9926.67,400.25l-1,1-1,1L9631,694.42l-1,1-1,1L9523.77,801.12q-19.62,28.56-38.39,57.82l153.39-152.62Z"/><path class="cls-46" d="M11494.1,2566.88l-1,1-294.63,293.15-1,1-294.63,293.15-1,1h0l-1,1-294.62,293.15-1,1-293.6,292.12-1,1-1,1-72.75,72.38c2.31,2.85,4.7,5.63,7,8.5.62.77,1.22,1.56,1.84,2.33l73.73-73.36,1-1,1-1,293.6-292.13,1-1,1-1,294.62-293.15h0L11206.19,2873l1-1,294.63-293.15h0l1-1,238.69-237.51c1-7.53,2-15.07,3-22.6l-250.48,249.22Z"/><path class="cls-47" d="M11542.09,2617.18l-1,1-293.6,292.13-1,1-1,1-293.6,292.13-1,1-1,1-293.6,292.13-1,1-295.66,294.17-1,1h0l-78.76,78.35c2.79,3.76,5.52,7.59,8.28,11.38l81.32-80.9,1-1h0l293.6-292.13,1-1,294.62-293.15,1-1,1-1,293.59-292.12,1-1,1-1,293.6-292.13,1-1,1-1,171.29-170.43c1.29-7.78,2.5-15.57,3.75-23.35l-184.85,183.92Z"/><path class="cls-48" d="M11591.12,2666.45l-1,1-294.62,293.15-1,1-294.62,293.15-1,1-293.6,292.12-1,1-1,1-293.6,292.13-1,1-1,1-87.11,86.68q4,5.86,7.87,11.78l89-88.6,1-1,1-1,293.6-292.13,1-1,1-1,293.6-292.13,1-1,1-1,294.62-293.15,1-1,293.6-292.13,1-1,1-1,100.19-99.68c1.63-8.18,3.34-16.34,4.92-24.52l-114.92,114.34Z"/><path class="cls-49" d="M11739.69,2224.46l-1,1-293.6,292.13-1,1-1,1-294.63,293.15-1,1L10852.73,3107l-1,1-293.6,292.13-1,1-1,1-293.6,292.13-1,1-1,1-68.5,68.15c3,3.52,6.12,7,9.13,10.53l69.17-68.83,1-1,1-1L10565.86,3412l1-1,1-1,293.59-292.12,1-1,1-1,294.62-293.16,1-1,293.59-292.12,1-1,1-1,293.6-292.12,1-1,1-1,4.25-4.23q1.13-10.91,2.2-21.81l-16.26,16.18Z"/><path class="cls-50" d="M11641.63,2125.91,11346,2420.07l-1,1h0l-293.6,292.13-1,1-294.63,293.14-1,1h0l-1,1-293.6,292.13h0l-1,1-295.65,294.18-1,1-63.84,63.52q4.78,5.05,9.53,10.14l64.12-63.8,1-1,1-1,293.59-292.12h0l1-1,295.65-294.17h0l294.62-293.14,1-1,295.65-294.17,1-1h0l293.61-292.12,1-1L11770.77,2017c.32-6.82.59-13.65.88-20.48l-129,128.33Z"/><path class="cls-51" d="M11494.55,1978.09l-294.63,293.14-1,1-1,1-293.59,292.13h0l-1,1-295.65,294.17-.34.35L10313,3153.74l-1,1h0l-1,1-294.62,293.15-1,1-62.93,62.62q4.94,4.89,9.86,9.79l62.88-62.56,1-1,1-1,294.63-293.15h0l294.62-293.15.68-.68.35-.34,1-1L10912,2577.3h0l1-1,295.65-294.18L11503.34,1989l1-1,268.78-267.44q-.28-9.49-.63-19l-276.93,275.54Z"/><path class="cls-52" d="M11543.58,2027.36l-1,1L11249,2320.51l-1,1-1,1-293.6,292.13-1,1-1,1-293.6,292.13-1,1L10361,3204l-1,1h0l-293.6,292.12-1,1-.34.34-.69.68-62.74,62.43c3.28,3.29,6.52,6.59,9.79,9.88l63.45-63.13.34-.34,295.66-294.16,1-1h0l293.61-292.12,1-1,294.63-293.15,1-1,1-1,293.6-292.13,1-1,1-1,293.6-292.13,1-1,1-1L11775,1816.69c0-6.45-.21-12.89-.28-19.34l-230.15,229Z"/><path class="cls-53" d="M11592.6,2076.63l-1,1L11298,2369.78l-1,1-1,1L11002.33,2664l-1,1-1,1-294.62,293.15-1,1L10410,3253.31l-1,1-293.6,292.13-1,1-1,1-63,62.65c3.24,3.32,6.44,6.67,9.67,10l63.11-62.79,1-1,1-1,293.6-292.13,1-1,1-1L10715.45,2969l1-1,293.6-292.12,1-1,1-1,293.6-292.13,1-1,1-1,293.6-292.13,1-1,1-1,170.74-169.88c.14-6.7.38-13.39.48-20.09l-181,180.11Z"/><path class="cls-54" d="M11690.66,2175.19l-1,1L11396,2468.34l-1,1-1,1-293.6,292.12-1,1-1,1-293.59,292.12-1,1-1,1-293.59,292.13-1,1L10213.42,3645l-1,1-.35.34-.68.68-65.61,65.28c3.12,3.43,6.25,6.86,9.35,10.31l66.75-66.41.34-.35,294.64-293.14,1-1,294.63-293.15,1-1,1-1,293.6-292.13,1-1,1-1,293.6-292.12,1-1,1-1,293.6-292.12,1-1,1-1,63-62.64c.52-7.05,1.05-14.1,1.54-21.15l-74.31,73.94Z"/><path class="cls-55" d="M11544,1438.55l-294.62,293.16-1,1-293.59,292.12-1,1-1,1L10659.13,2319l-1,1-295.66,294.16-1,1h0l-293.6,292.11-1,1-1,1-293.6,292.12-1,1-1,1-61,60.68c3.13,3.43,6.3,6.81,9.45,10.22l61.34-61,1-1,1-1,293.59-292.13,1-1,295.66-294.16,1-1h0l293.61-292.12,1-1,294.63-293.15,1-1,1-1,293.6-292.13,1-1,1-1,294.62-293.16,1-1,176.87-176c-.85-5.7-1.65-11.41-2.52-17.11l-185.18,184.26Z"/><path class="cls-56" d="M11397,1290.73l-293.59,292.13h0l-1,1-295.65,294.18-1,1-293.6,292.12-1,1-294.63,293.15-1,1-1,1-293.59,292.13-1,1-1,1-293.6,292.13-1,1-1,1-48.16,47.92c2.82,3.73,5.59,7.5,8.45,11.21l49.52-49.27,1-1,1-1,293.6-292.12,1-1,1-1,293.6-292.13,1-1,294.64-293.15,1-1,294.63-293.15,1-1,1-1,293.59-292.13h0l1-1,295.65-294.17,1-1,278.57-277.18c-1.16-5.34-2.43-10.67-3.61-16L11398,1289.71Z"/><path class="cls-57" d="M11741.17,1634.64l-1,1-293.6,292.13-1,1-1,1L11150.89,2222l-1,1-1,1-293.6,292.12-1,1-1,1-294.63,293.15-1,1-294.63,293.16-1,1-293.6,292.13-1,1-1,1L9903,3463.61l9.87,9.8,63.2-62.88,1-1,1-1,293.6-292.12,1-1,1-1,294.62-293.15,1-1L10863,2528l1-1,1-1,293.6-292.13,1-1,1-1,293.6-292.12,1-1,1-1,293.6-292.13,1-1,1-1,17.1-17c-.34-6.21-.6-12.43-1-18.64l-25.93,25.8Z"/><path class="cls-58" d="M11693.17,1584.34l-1,1-295.65,294.18-1,1-293.6,292.13-1,1-1,1-293.6,292.12-1,1-1,1L10510.57,2761l-1,1-294.64,293.14-1,1-1,1-293.6,292.13-1,1-1,1-63.45,63.14q4.91,4.92,9.82,9.83l63.44-63.11,1-1,1-1,293.6-292.12,1-1,294.63-293.15,1-1L10814,2478.75l1-1,1-1,293.59-292.12,1-1,1-1,293.59-292.12,1-1,1-1,293.59-292.13h0l1-1,61.06-60.75c-.48-6-1-12.06-1.52-18.1l-68.31,68Z"/><path class="cls-59" d="M11447,1339l-1,1-293.59,292.13-1,1-1,1-293.6,292.13-1,1-1,1-293.6,292.12-1,1-1,1-293.6,292.12-1,1-1,1-294.63,293.16-1,1-294.28,292.81-.34.35L9618,3158.8c2.95,3.61,5.83,7.27,8.8,10.86l55.06-54.78,1-1,.35-.34.68-.68,294.62-293.15,1-1,293.6-292.13,1-1,1-1,293.6-292.13,1-1,1-1,293.6-292.13,1-1,1-1,293.6-292.12,1-1,1-1,293.6-292.12,1-1,1-1,246.28-245c-1.06-5.46-2.17-10.91-3.26-16.37L11448,1338Z"/><path class="cls-60" d="M11643.12,1536.09l-295.66,294.16-1,1h0l-293.61,292.12-1,1-1,1-294.63,293.15-1,1-294.62,293.16-.35.34-294.28,292.8-1,1h0l-1,1-293.6,292.13h0l-1,1-64.33,64c3.24,3.31,6.5,6.61,9.74,9.91L9878,3312h0l1-1,295.65-294.17h0l294.63-293.14.68-.68.35-.35,1-1L10766,2428.45l1-1,293.6-292.13,1-1,295.66-294.16,1-1h0L11651.9,1547l1-1,101.86-101.35c-.61-5.9-1.3-11.79-1.94-17.69l-108.69,108.16Z"/><path class="cls-61" d="M11496,1388.27l-294.63,293.14-1,1-1,1-293.6,292.13-1,1-1,1-294.63,293.15-1,1-293.6,292.13h0l-1,1-295.65,294.17-.34.34-294.28,292.8-1,1h0l-1,1-58.19,57.9c3,3.51,6,7.09,9.08,10.58l60-59.65h0L10026.55,2870l.69-.68.34-.34,1-1,293.6-292.13h0l1-1,295.65-294.18,1-1,293.6-292.12,1-1,1-1,293.59-292.12,1-1,294.64-293.15,1-1,213.39-212.32c-1-5.6-1.82-11.22-2.81-16.82l-219.36,218.26Z"/><path class="cls-62" d="M11594.09,1486.81l-1,1L11299.46,1780l-1,1-1,1-293.6,292.13-1,1-1,1-293.6,292.13-1,1-1,1-293.6,292.13-1,1-1,1-294.63,293.15-1,1-294.62,293.15-1,1-62.57,62.27c3.19,3.36,6.42,6.68,9.63,10l62.75-62.44,1-1,1-1,294.62-293.15,1-1,293.6-292.12,1-1,1-1,293.6-292.12,1-1,1-1,293.6-292.13,1-1,1-1,293.6-292.13,1-1,1-1,293.59-292.13,1-1,1-1,139.71-139q-1.09-8.69-2.23-17.39l-147.29,146.56Z"/><path class="cls-63" d="M11447.45,750.19l-293.59,292.13-1,1-1,1-293.59,292.13-1,1-1,1-293.59,292.13-1,1-1,1-293.59,292.12-1,1-1,1L9971.26,2219l-1,1-1,1-293.6,292.13-1,1-286.39,284.94c2.16,4.41,4.19,8.87,6.38,13.27l288.8-287.34,1-1L9979,2230.89l1-1,1-1,293.6-292.13,1-1,1-1,293.6-292.13,1-1,1-1,293.6-292.12,1-1,1-1,293.6-292.12,1-1,1-1,293.6-292.13,1-1,1-1,123-122.44c-1.62-4.93-3.2-9.87-4.84-14.79l-129,128.39Z"/><path class="cls-64" d="M11594.54,898l-293.6,292.13-1,1-1,1-293.6,292.12-1,1-1,1-293.6,292.13-1,1-1,1L10414,2072.65l-1,1-1,1-293.6,292.13-1,1-1,1L9822.69,2661l-1,1-1,1L9527,2955.15l-1,1-31.85,31.69c2.56,4,5,8.05,7.62,12l33-32.85,1-1,294.63-293.16,1-1,1-1,293.59-292.13,1-1,1-1,293.59-292.12,1-1,1-1,293.6-292.13,1-1,1-1,293.6-292.13,1-1,1-1L11308.7,1202l1-1,1-1,293.6-292.12,1-1,1-1,43-42.81c-1.35-5.18-2.74-10.35-4.12-15.52L11595.57,897Z"/><path class="cls-65" d="M11349.39,651.64h0l-293.6,292.12-1,1-1,1-293.59,292.12-1,1-1,1L10464.5,1532.1l-1,1-1,1-293.59,292.13-1,1-1,1L9873.2,2120.44l-1,1-1,1-294.63,293.15-1,1-247.42,246.19c1.86,4.7,3.62,9.44,5.52,14.12l252.73-251.47,1-1L9881,2132.34l1-1,1-1,293.6-292.12,1-1,1-1,293.6-292.13,1-1,1-1,293.6-292.13,1-1,1-1,293.6-292.13,1-1,295.66-294.16,1-1h0l170.06-169.21c-1.78-4.77-3.5-9.57-5.3-14.33l-175.59,174.7Z"/><path class="cls-66" d="M11006.2,306.7l-293.59,292.14h0l-1,1L10415.93,894l-1,1-293.6,292.13-1,1-1,1-293.6,292.13-1,1-1,1L9530,1775.52l-1,1-294.63,293.14-1,1-1,1-37.22,37c.57,6,1.1,11.93,1.73,17.89l45.29-45.07,1-1,294.64-293.15,1-1,294.63-293.15,1-1,1-1,293.6-292.12,1-1,1-1,293.6-292.13,1-1,1-1,293.59-292.13h0l1-1L11017,315.54l1-1,293.6-292.13,1-1,1-1,1.67-1.66q-3.58-6.23-7.24-12.4l-4.23,4.2-1,1-1,1-294.62,293.15Z"/><path class="cls-67" d="M11546.54,847.72l-1,1-293.6,292.13-1,1-1,1-294.62,293.15-1,1-294.62,293.16-295.66,294.16-1,1h0l-293.61,292.12-1,1-1,1-293.6,292.12-1,1-1,1L9478,2905.88l-1,1-1,1L9456.79,2927c2.43,4.13,4.75,8.32,7.21,12.44l21.76-21.65,1-1,1-1,293.6-292.13,1-1,1-1,293.6-292.12,1-1,295.66-294.16,1-1h0l293.6-292.12,1-1,1-1L10965,1445.91l1-1,293.59-292.13,1-1,1-1,293.59-292.13,1-1,1-1,71-70.65q-2.16-7.65-4.36-15.28l-76.45,76.07Z"/><path class="cls-68" d="M11644.6,946.27l-295.66,294.16-1,1h0l-293.61,292.12-1,1-1,1-293.6,292.12-1,1-1,1L10463,2121.92l-1,1-1,1-294.63,293.15-1,1-294.62,293.16-.35.34-294.28,292.8-1,1h0l-1,1-40.49,40.29c2.7,3.86,5.32,7.77,8,11.61l43.28-43.06h0l294.63-293.14.68-.68.35-.35,1-1L10176.14,2427l1-1,293.6-292.12,1-1,1-1,293.6-292.13,1-1,1-1,293.6-292.13,1-1,295.66-294.16,1-1h0l293.6-292.11,1-1,14.7-14.63c-1.26-5.27-2.59-10.51-3.87-15.77l-19.61,19.52Z"/><path class="cls-69" d="M11497.52,798.45l-294.64,293.14-1,1-1,1-293.6,292.13-1,1-1,1-293.6,292.13-1,1-1,1-293.6,292.12-1,1-1,1-294.63,293.15-1,1-293.59,292.14h0l-1,1L9428,2857.63l-.34.34-.68.68-5.47,5.44c2.29,4.27,4.47,8.6,6.79,12.86l8.48-8.44.69-.68.34-.34,1-1,293.6-292.13h0l1-1,295.65-294.18,1-1L10323.68,1986l1-1,1-1,293.6-292.13,1-1,1-1,293.6-292.12,1-1,1-1,293.6-292.12,1-1,294.64-293.15,1-1,98.7-98.2c-1.54-5-3.05-10-4.61-15l-102.87,102.35Z"/><path class="cls-70" d="M11155.34,452.49l-1,1-295.64,294.18-1,1L10564,1040.84l-1,1-1,1L10268.39,1335l-1,1-1,1-293.6,292.12-1,1-1,1-293.6,292.13-1,1L9380.4,2218.53l-1,1h0l-143.69,143c1.19,5.33,2.44,10.64,3.67,16l150.85-150.09,1-1h0l293.6-292.12,1-1,294.62-293.15,1-1,1-1,293.59-292.13,1-1,1-1,293.59-292.12,1-1,1-1,293.59-292.12,1-1,1-1,293.59-292.14h0l1-1,251-249.71c-2.09-4.47-4.11-9-6.22-13.43l-253.52,252.26Z"/><path class="cls-71" d="M11302.42,600.31l-1,1-295.65,294.17-1,1-293.6,292.12-1,1-1,1-293.6,292.13-1,1-1,1L10119.82,1777l-1,1-1,1-293.6,292.13-1,1-1,1-293.6,292.12-1,1-226.14,225c1.71,4.84,3.33,9.72,5.08,14.56l229.85-228.69,1-1,294.63-293.16,1-1,1-1,293.6-292.12,1-1,1-1,293.6-292.13,1-1,1-1,293.6-292.13,1-1,1-1,293.6-292.13,1-1,1-1,293.59-292.13h0l1-1L11504,419.37c-1.87-4.7-3.65-9.42-5.54-14.11l-196,195.06Z"/><path class="cls-72" d="M11252.37,552.07l-1,1-293.6,292.13-1,1-1,1-293.6,292.13-1,1-295.66,294.17-1,1h0l-293.6,292.13-1,1-1,1-293.6,292.13-1,1-1,1-293.6,292.12-1,1-1,1L9277,2517.56c1.54,5,3,10,4.62,15L9487.24,2328l1-1,1-1,293.6-292.13,1-1,1-1,293.6-292.12,1-1,1-1,294.63-293.15,1-1h0l293.6-292.12,1-1,294.62-293.15,1-1,1-1,293.59-292.13,1-1,1-1,212.29-211.23c-1.94-4.62-3.79-9.28-5.76-13.89L11253.4,551Z"/><path class="cls-73" d="M11203.34,502.79l-1,1-293.6,292.13-1,1-1,1-293.6,292.13-1,1-1,1-293.6,292.13-1,1-1,1-293.6,292.12-1,1-1,1-293.6,292.12-1,1-1,1L9429.43,2267.8l-1,1-173.36,172.5c1.37,5.16,2.74,10.33,4.15,15.48l180-179.14,1-1,293.6-292.13,1-1,1-1,293.6-292.13,1-1,1-1,293.6-292.13,1-1,1-1,293.6-292.12,1-1,1-1,293.6-292.12,1-1,1-1,293.6-292.13,1-1,232.71-231.53c-2-4.54-3.94-9.13-6-13.66l-235.52,234.32Z"/><path class="cls-74" d="M11399.46,699.89l-1,1L11104.83,993l-1,1-1,1-294.63,293.15-1,1-293.59,292.13h0l-1,1-294.63,293.15-1,1-1,1-293.6,292.12-1,1-1,1-293.6,292.13-1,1-1,1L9357,2732.07c2,4.55,3.9,9.15,5.95,13.69l271.33-270,1-1,1-1L9930,2181.62l1-1,1-1,293.59-292.13,1-1,1-1,293.6-292.13h0l1-1L10818,1298.09l1-1,293.6-292.13,1-1,1-1,293.6-292.12,1-1,1-1,147.16-146.42c-1.7-4.85-3.35-9.72-5.07-14.57l-151.9,151.14Z"/><path class="cls-75" d="M10958.2,256.42l-1,1-293.6,292.13-1,1-295.66,294.17-1,1h0l-293.6,292.12-1,1-1,1-294.62,293.15-1,1-294.62,293.15-1,1-290.5,289c.15,2.89.26,5.78.42,8.67,0,.72.07,1.44.11,2.16.15,2.63.23,5.25.39,7.88l3.74-3.73,1-1,1-1,293.6-292.13,1-1,1-1,294.63-293.16,1-1,293.6-292.13,1-1,295.66-294.16,1-1h0l293.61-292.12,1-1L10967,267.29l1-1,1-1,293.6-292.13,1-1,1-1,13.42-13.35c-2.58-4-5.15-7.94-7.78-11.88l-15.45,15.37-1,1-1,1-293.6,292.12Z"/><path class="cls-76" d="M11056.26,355l-1,1-293.6,292.12-1,1-1,1L10466,942.28l-1,1-1,1-293.6,292.13-1,1-1,1-293.59,292.13-1,1-1,1L9579,1824.79l-1,1-1,1L9283.38,2119l-1,1-1,1-76,75.62c.79,5.67,1.81,11.31,2.65,17l83.16-82.75,1-1,1-1,293.6-292.12,1-1,1-1,293.6-292.12,1-1,1-1,293.59-292.12,1-1,1-1,293.59-292.13,1-1,1-1L10769.38,660l1-1,1-1L11065,365.84l1-1,284.15-282.71q-3.37-6.44-6.81-12.84L11057.28,354Z"/><path class="cls-77" d="M11105.29,404.24l-1,1-293.59,292.12-1,1-1,1L10515,991.55l-1,1-294.63,293.14-1,1-1,1L9923.71,1579.9h0l-1,1L9627,1875.09l-1,1-293.6,292.13-1,1-1,1L9219.05,2281c1,5.49,2.13,11,3.18,16.45l117.93-117.33,1-1,1-1L9635.81,1886l1-1,1-1,293.59-292.13h0l1-1,295.64-294.17,294.64-293.15,1-1,294.63-293.16,1-1,1-1,293.6-292.12,1-1,1-1,267.1-265.75c-1.83-3.71-3.58-7.46-5.42-11.17l-1-2-270.45,269.11Z"/><path class="cls-78" d="M-1792.1,1090.48l1-1,1-1,293.6-292.12,1-1,1-1,293.6-292.12,1-1,1-1L-904.12,207l1-1L-609.5-86.2l1-1,294.63-293.15,1-1L-18.19-674.54l1-1,1-1L277.46-968.7l1-1,1-1,293.6-292.12,1-1,1-1L853.35-1541.7c-7.52,1-15.06,1.82-22.58,2.85L565.36-1274.77l-1,1-1,1L269.71-980.6l-1,1-1,1L-25.94-686.44l-1,1-1,1-293.6,292.12-1,1L-617.25-98.1l-1,1-1,1L-913.93,197.09l-1,1-294.62,293.16-1,1-293.6,292.13-1,1-1,1-293.6,292.13-1,1-1,1-52.38,52.11c0,6.57-.15,13.13-.07,19.69Z"/><path class="cls-79" d="M-1839.07,1039.16-1545.47,747l1-1,1-1,293.6-292.13,1-1,1-1,293.6-292.12,1-1,1-1,293.6-292.12,1-1,1-1,293.6-292.13,1-1,1-1,293.6-292.13,1-1,1-1L228.43-1018l1-1,295.66-294.16,1-1h0l211.58-210.53c-8,1.33-16,2.83-23.94,4.21L515.3-1323l-1,1h0L220.67-1029.87l-1,1-1,1L-75-735.71l-1,1-1,1-293.6,292.12-1,1-1,1-293.6,292.13-1,1-1,1L-961.93,146.8l-1,1-1,1L-1257.58,441l-1,1-1,1-293.6,292.12-1,1-1,1-294.63,293.15-1,1-.79.79c-.36,6.8-.55,13.63-.84,20.45l12.46-12.4Z"/><path class="cls-80" d="M-1642.51,647.47l1-1,293.59-292.13h0l1-1,295.64-294.18,1-1L-756.58-234l1-1L-459.9-529.21l1-1h0l293.6-292.12,1-1,294.63-293.15,1-1,1-1L426-1410.7l1-1,1-1,61.22-60.91c-8.8,2.15-17.58,4.39-26.36,6.62l-44.66,44.43-1,1-1,1L122.63-1128.43l-1,1-1,1L-173-834.26l-1,1L-469.71-539.07l-1,1h0L-764.34-245.92l-1,1-1,1L-1061,49.27l-1,1-293.59,292.14h0l-1,1-295.64,294.18-1,1-175.08,174.2c-1.24,7.79-2.6,15.55-3.75,23.35l188.64-187.69Z"/><path class="cls-81" d="M-1740.57,548.91l295.66-294.16,1-1h0L-1150.28-38.4l1-1,294.62-293.15,1-1,1-1L-559-626.74h0l1-1,295.64-294.17,1-1,293.6-292.13,1-1,1-1L210.93-1392.8c-10.07,3.4-20.11,6.9-30.16,10.39L24.57-1227l-1,1-1,1L-272.11-931.79l-1,1L-566.73-638.64h0l-1,1L-863.41-343.45l-1,1L-1158-50.3l-1,1-1,1-294.63,293.15-1,1h0L-1749.35,538l-1,1-1,1L-1773,561.52c-2.56,9.09-5.22,18.14-7.66,27.25l39-38.83Z"/><path class="cls-82" d="M-1691.54,598.19l1-1L-1396.91,305l1-1,1-1,293.6-292.13,1-1,1-1L-805.61-283.3l1-1,1-1L-510-577.46l1-1,1-1,293.59-292.12,1-1,1-1L81.34-1165.8l1-1,1-1L354.88-1438c-9.44,2.73-18.82,5.68-28.24,8.49l-253,251.78-1,1-1,1-293.6,292.13-1,1-1,1-293.6,292.13-1,1-1,1L-813.36-295.2l-1,1-1,1L-1109-1l-1,1-1,1-293.59,292.13-1,1-1,1-293.59,292.13-1,1-1,1-103.28,102.77c-1.82,8.31-3.64,16.62-5.36,25l118.45-117.86Z"/><path class="cls-83" d="M-1592.45,695.72h0l293.6-292.12,1-1,294.62-293.14,1-1,1-1,293.59-292.12,1-1,1-1L-411.9-478.91l1-1,1-1,294.62-293.16,1-1L179.4-1067.26l1-1,1-1,293.59-292.13,1-1,1-1,139.37-138.68c-8.22,1.68-16.48,3.22-24.69,5L467.3-1373.33l-1,1-1,1-293.6,292.12-1,1-1,1L-125-784l-1,1L-420.68-489.79l-1,1L-715.3-196.64l-1,1-1,1-293.6,292.13-1,1-1,1-293.6,292.12-1,1-295.66,294.16-1,1h0l-239,237.75c-.76,7.28-1.57,14.56-2.26,21.86l252-250.78Z"/><path class="cls-84" d="M-1492.92,204.44l293.6-292.12,1-1,1-1,293.6-292.12,1-1,1-1L-608-676l1-1,294.64-293.15,1-1L-16.7-1264.36l1-1,1-1,70-69.68c-11.08,4.35-22.1,8.89-33.14,13.36l-46.7,46.47-1,1-1,1-293.6,292.12-1,1L-615.77-687.92l-1,1-1,1L-911.42-393.75l-1,1-1,1L-1207.07-99.58l-1,1-1,1-294.62,293.15-1,1-222.75,221.64q-5.27,14.91-10.32,29.89l243.91-242.7Z"/><path class="cls-85" d="M2094,263.64l1-1,76.1-75.72c8.45-14.54,16.69-29.21,24.57-44.06L2085.24,252.76l-1,1-1,1-293.6,292.12-1,1L1648.3,687.5c14.8-7.75,29.44-15.86,44-24.15l105-104.52,1-1L2093,264.66Z"/><path class="cls-86" d="M2272.56-31.7,2035.17,204.5l-1,1L1739.53,498.68l-1,1L1469.07,767.78c10.77-4.12,21.57-8.16,32.25-12.47l247-245.75,1-1,1-1L2045,214.36l1-1,215.07-214Q2267-16.09,2272.56-31.7Z"/><path class="cls-87" d="M2291.61-129.08l1-1,14.15-14.09c2.19-8.62,4.35-17.26,6.35-25.93L2282.83-140l-1,1-1,1L1987.18,154.21l-1,1-1,1L1691.53,448.38l-1,1-1,1L1395.88,742.55l-1,1-1,1L1319,819.07c9.55-2.92,19.1-5.83,28.6-8.84l56.06-55.78,1-1,1-1,293.6-292.12,1-1,1-1,293.6-292.12,1-1,1-1,293.6-292.13Z"/><path class="cls-88" d="M2084.67-335,1791.07-42.89l-1,1-1,1L1494.38,252.3l-1,1h0l-293.6,292.12-1,1-1,1L904.1,839.62l-1,1-1,1L797.23,946q12.71-2.84,25.41-5.67l89.22-88.77,1-1,1-1,293.6-292.13,1-1L1504.2,262.16l1-1h0L1798.82-31l1-1,294.63-293.15,1-1,1-1,243.16-241.95c-.54-6-1.15-11.9-1.77-17.85L2085.69-336Z"/><path class="cls-89" d="M1104.1-1320.52,810.5-1028.39l-1,1-1,1L513.82-733.21l-1,1h0L219.19-440.06l-1,1-1,1L-76.46-145.89l-1,1-1,1-293.6,292.13-1,1-1,1-293.6,292.13-1,1-1,1-293.6,292.13-1,1-1,1-294.63,293.15-1,1L-1554.71,1325h0l-1,1-244.39,243.17c1.32,5.25,2.48,10.55,3.85,15.79L-1547,1336.86h0l1-1,295.65-294.17,1-1,293.6-292.12,1-1,1-1L-660,454.35l1-1,1-1,293.59-292.12,1-1,1-1L-68.7-134l1-1,1-1L227-428.16l1-1L523.63-723.34l1-1h0l293.6-292.12,1-1,294.62-293.15,1-1,1-1,256.21-254.93c-6.43-.2-12.84-.29-19.26-.45l-247.78,246.54Z"/><path class="cls-90" d="M613.36-1224.48l-1,1L317.71-930.31l-1,1L23.09-637.16h0l-1,1L-273.59-342l-1,1L-568.22-48.82l-1,1-1,1-293.6,292.12-1,1-1,1-293.6,292.13-1,1-295.66,294.17-1,1h0l-293.6,292.12-1,1-1,1-98.81,98.31c.34,6.16.79,12.3,1.18,18.44l107.44-106.9,1-1,295.66-294.16,1-1h0l293.61-292.12,1-1,294.63-293.15,1-1,1-1,293.6-292.13,1-1,1-1,293.6-292.13,1-1,1-1L30.83-625.26h0l1-1L327.51-920.45l1-1,293.6-292.12,1-1,1-1,293.6-292.13,1-1,1-1,44.7-44.48c-7.32.7-14.64,1.48-21.95,2.23L910-1519.67l-1,1-1,1L614.38-1225.5Z"/><path class="cls-91" d="M957-1468.34l-293.6,292.12-1,1-1,1L367.76-882l-1,1-1,1L72.11-587.88l-1,1-1,1L-223.54-293.71l-1,1-1,1L-519.19.45l-1,1-1,1L-814.84,294.62l-1,1-1,1-293.59,292.12-1,1-1,1L-1406.15,883l-1,1-1,1-294.63,293.15-1,1L-1844.4,1319c.62,6,1.09,11.92,1.77,17.85L-1693,1188l1-1,293.6-292.12,1-1,1-1,293.6-292.13,1-1,1-1,293.6-292.13,1-1,1-1,293.6-292.13,1-1,1-1,293.6-292.12,1-1,1-1L79.86-576l1-1,1-1,293.6-292.13,1-1,294.64-293.14,1-1,294.63-293.15,1-1,1-1,102.89-102.38c-7.07.44-14.14,1-21.21,1.49l-92.51,92.06Z"/><path class="cls-92" d="M2343.86-396.8,2184.77-238.51l-1,1-1,1L1888.09,56.68l-1,1L1593.47,349.83h0l-1,1L1296.79,645l-1,1L1051.25,889.34q12.91-3,25.79-6.05L1305.57,655.9l1-1,1-1,293.59-292.13h0l1-1L1897.9,66.53l1-1,293.6-292.12,1-1L2342.72-376C2343.13-383,2343.56-389.88,2343.86-396.8Z"/><path class="cls-93" d="M2334.55-289.47,2233.8-189.23l-1,1-1,1-293.6,292.13-1,1-1,1L1642.5,399.11l-1,1L1346.84,693.28l-1,1-1,1-163,162.23c9-2.31,17.88-4.7,26.81-7.07l146-145.31,1-1L1650.26,411l1-1,294.63-293.15,1-1,1-1,293.6-292.13,1-1,1-1,87.88-87.44C2332.61-274.35,2333.57-281.91,2334.55-289.47Z"/><path class="cls-94" d="M2036.66-385.32l-1,1L1742-92.17l-1,1-1,1L1445.35,203l-1,1L1149.71,497.2l-1,1L855.08,790.35l-1,1-1,1L668.9,975.6c8.61-2.08,17.25-4.1,25.88-6.14L862.84,802.25l1-1,1-1,293.6-292.12,1-1,1-1,294.62-293.16,1-1,293.6-292.13,1-1,1-1,293.6-292.13,1-1,1-1,281.32-279.91c-.89-5.62-1.84-11.22-2.8-16.83L2037.68-386.34Z"/><path class="cls-95" d="M2134.72-286.76l-1,1L1840.09,6.38l-1,1-1,1-293.6,292.12-1,1-1,1-293.6,292.12-1,1-1,1L953.14,888.89l-1,1-1,1-27.16,27,25.33-5.59,11.64-11.58,1-1,1-1,293.6-292.13,1-1,1-1,293.6-292.13,1-1,1-1,293.6-292.13,1-1,1-1,293.6-292.12,1-1,1-1,199.19-198.19c-.12-6.4-.22-12.79-.43-19.18L2135.74-287.78Z"/><path class="cls-96" d="M2233.23-777,1938.61-483.86l-1,1L1644-190.71l-1,1-1,1L1348.32,103.46l-1,1-1,1-293.6,292.12-1,1-1,1L757,691.79l-1,1-1,1L461.37,986l-1,1-1,1-65.07,64.74c9.73-3.25,19.5-6.38,29.28-9.52l45.59-45.36,1-1,1-1,293.6-292.13,1-1,1-1,293.6-292.13,1-1,1-1,293.6-292.12,1-1,294.63-293.14,1-1L1947.39-473l1-1,1-1,294.62-293.16,1-1L2293-816.87q-2.19-7.61-4.48-15.16l-54.27,54Z"/><path class="cls-97" d="M2086.15-924.84,1792.56-632.71h0l-1,1L1495.87-337.52l-1,1h0L1201.24-44.37l-1,1-1,1L905.59,249.8l-1,1-1,1L609.94,544l-1,1-1,1L314.29,838.14l-1,1-1,1L18.64,1132.3l-1,1-1,1L-277,1426.47l-1,1-1,1-293.6,292.13-1,1-1,1-294.63,293.15-1,1L-1164,2309h0l-1,1-124.74,124.12c3.44,3.12,7,6.09,10.48,9.18l123-122.42h0l1-1,295.64-294.18,1-1,293.6-292.12,1-1,1-1,293.6-292.13,1-1,1-1L26.39,1144.2l1-1,1-1L322,850l1-1,1-1,293.6-292.12,1-1,1-1L913.34,261.7l1-1,1-1L1209-32.47l1-1,295.66-294.16,1-1h0l293.6-292.12h0l1-1L2097-916l1-1L2211-1029.42c-2.15-4.39-4.27-8.8-6.47-13.17L2087.17-925.86Z"/><path class="cls-98" d="M1693.92-1319l-293.6,292.13-1,1-1,1-293.6,292.13-1,1-1,1L809-438.57l-1,1L512.34-143.39l-1,1h0L217.71,149.76l-1,1-1,1L-77.94,443.93l-1,1-1,1L-373.59,738.1l-1,1-1,1-294.63,293.15-1,1-293.59,292.13h0l-1,1-295.65,294.17-1,1-293.6,292.12-1,1-1,1-76.65,76.27c2.3,4.22,4.75,8.35,7.09,12.55l79.37-79,1-1,1-1,293.6-292.12,1-1,1-1,293.59-292.13h0l1-1,295.65-294.17,1-1L-365.84,750l1-1,1-1,293.6-292.12,1-1,1-1,293.6-292.13,1-1L522.15-133.52l1-1h0L816.78-426.67l1-1,294.63-293.15,1-1,1-1L1408.08-1015l1-1,1-1,293.6-292.13,1-1,1-1,140-139.26c-4.17-2.41-8.38-4.75-12.59-7.08L1695-1320.06Z"/><path class="cls-99" d="M1007.07-1420.09l-1,1-293.6,292.12-1,1-1,1L416.79-832.78l-1,1-1,1L121.14-538.61l-1,1-1,1-293.6,292.13-1,1L-471.2,50.75l-1,1h0L-765.82,343.9h0l-1,1-295.64,294.17-1,1-293.6,292.12-1,1-1,1-293.6,292.13-1,1-1,1L-1833.3,1406c.87,5.61,2,11.17,2.87,16.77L-1645,1238.31l1-1,1-1,293.6-292.13,1-1,1-1L-1053.72,650l1-1,1-1L-758.07,355.8h0l1-1L-461.38,60.61l1-1h0l293.61-292.12,1-1L128.9-526.71l1-1,1-1,293.6-292.13,1-1,1-1L720.2-1115l1-1,1-1,293.6-292.13,1-1,1-1L1175-1567.57c-6.75.21-13.51.3-20.26.55l-146.65,145.91Z"/><path class="cls-100" d="M1204.2-1224l-1,1-1,1L907.53-928.83l-1,1L612.91-635.68h0l-1,1L316.23-340.48l-1,1L21.6-47.33l-1,1-1,1L-274,246.83l-1,1-1,1L-569.7,541l-1,1-1,1-293.6,292.13-1,1-1,1L-1161,1129.34l-1,1-295.66,294.16-1,1h0l-293.61,292.11-1,1-1,1-.8.79c1.67,4.85,3.46,9.65,5.17,14.47l5.44-5.41,1-1,295.66-294.16,1-1h0l293.6-292.12,1-1L-857.6,847.07l1-1,1-1,293.6-292.13,1-1,1-1,293.6-292.13,1-1,1-1L29.36-35.43l1-1,1-1L325-329.6l1-1,1-1L620.65-623.78h0l1-1L917.33-919l1-1L1212-1212.12l1-1,295.66-294.16,1-1h0l43.3-43.08q-8.49-1.39-17-2.66l-37.1,36.91-1,1h0Z"/><path class="cls-101" d="M1056.09-1370.82l-1,1-293.6,292.12-1,1-1,1L464.79-782.48l-1,1L169.14-488.31l-1,1L-125.48-195.16l-1,1-1,1L-421.13,99l-1,1-1,1L-716.78,393.18l-1,1-1,1-293.59,292.13-1,1-1,1-293.6,292.12-1,1-295.65,294.16-1,1h0l-212.44,211.37q1.65,8.14,3.37,16.27L-1595,1286.56l1-1h0l293.6-292.12,1-1,294.63-293.15,1-1,1-1L-709,405.08l1-1,1-1,293.6-292.12,1-1,1-1,293.6-292.13,1-1,1-1,293.6-292.13,1-1,1-1L474.6-772.63l1-1,293.6-292.13,1-1,1-1,293.59-292.13,1-1,1-1,208.12-207.08c-6.58,0-13.17,0-19.75,0l-198.18,197.19Z"/><path class="cls-102" d="M1154.15-1272.27l-1,1L859.53-979.12l-1,1-1,1L563.88-684.95l-1,1-1,1L268.23-390.78l-1,1-1,1L-27.42-96.62l-1,1-1,1L-323.07,197.55l-1,1-1,1L-618.74,491.73l-1,1-1,1L-914.39,785.9l-1,1-1,1L-1210,1080.07l-1,1-1,1-293.6,292.13-1,1-1,1-271.43,270.06c1.5,5,3.14,10,4.68,15l276.56-275.18,1-1,1-1,293.6-292.12,1-1,1-1,293.6-292.12,1-1,1-1L-611,503.63l1-1,1-1,293.61-292.14,1-1,1-1L-19.67-84.72l1-1,1-1L276-378.89l1-1,1-1L571.63-673l1-1,1-1L867.28-967.22l1-1,1-1,293.59-292.13,1-1,1-1,293.59-292.13,1-1,1-1,4.87-4.85c-4.24-.38-8.51-.7-12.78-1l-2.22-.19-3.21-.26-292.12,290.65Z"/><path class="cls-103" d="M1546.84-1466.86l-293.6,292.13-1,1-1,1L957.59-880.57l-1,1-1,1L661.94-586.4l-1,1L366.27-292.23l-1,1-1,1L70.62,1.94l-1,1-1,1L-225,296.11l-1,1-1,1-293.6,292.12-1,1-1,1-293.6,292.12-1,1-1,1L-1113,1179.63l-1,1-293.59,292.13h0l-1,1L-1704.31,1768l-1,1-23.27,23.15c1.85,4.69,3.7,9.39,5.58,14.06l27.5-27.35,1-1,1-1,293.59-292.13h0l1-1,295.64-294.18,1-1,293.6-292.13,1-1,1-1,293.6-292.13,1-1,1-1L-217.27,308l1-1,1-1L78.38,13.84l1-1,1-1L374-280.33l1-1L669.69-574.5l1-1L965.34-868.67l1-1,1-1L1261-1162.84l1-1,1-1L1556.64-1457l1-1,1-1,75.94-75.56c-5.26-1.32-10.5-2.65-15.81-3.88l-71,70.61Z"/><path class="cls-104" d="M2185.23-827.31l-1,1L1890.6-534.16l-1,1-1,1L1595-240l-1,1-1,1L1298.27,55.2l-1,1-293.6,292.14h0l-1,1L707,643.54l-1,1L412.35,936.69l-1,1-1,1L234.7,1113.44q17-7.34,34.12-14.33L420.1,948.59l1-1,1-1,293.6-292.13,1-1,1-1,293.6-292.13h0l1-1L1308.08,65.05l1-1L1602.7-228.1l1-1,1-1,293.59-292.12,1-1,1-1L2194-816.43l1-1,74.11-73.73c-1.71-4.81-3.49-9.59-5.26-14.38l-77.63,77.24Z"/><path class="cls-105" d="M2283.29-728.76l-1,1-293.6,292.12-1,1-1,1L1693-141.44l-1,1-1,1-293.6,292.13-1,1-1,1L1101.71,446.9l-1,1-1,1L806.06,741.06l-1,1L535.92,1009.84q13.56-3.75,27.15-7.4L813.81,753l1-1,294.63-293.16,1-1,1-1,293.59-292.12,1-1,1-1,293.59-292.12,1-1,1-1,293.59-292.13,1-1,1-1,293.59-292.13,1-1,1-1L2313-738.74c-1.2-5.33-2.39-10.66-3.65-16l-25.07,24.94Z"/><path class="cls-106" d="M1891.06-1123l-1,1-293.6,292.13-1,1-1,1-293.6,292.13-1,1-1,1-293.6,292.12-1,1-1,1L708.45,53.71l-1,1L413.84,346.87h0l-1,1L117.15,642.06l-1,1-293.6,292.13-1,1-295.66,294.16-1,1h0l-293.61,292.12-1,1-1,1-293.6,292.12-1,1-1,1-293.6,292.13-1,1-1,1L-1478.83,2230c2.88,3.67,5.71,7.39,8.62,11l117.88-117.29,1-1,1-1,293.6-292.13,1-1,1-1L-761,1535.44l1-1,295.66-294.17,1-1h0l293.6-292.12,1-1L125.93,652.94l1-1,1-1L421.58,358.76h0l1-1L718.26,63.57l1-1,293.6-292.13,1-1,1-1,293.6-292.13,1-1,1-1,293.6-292.12,1-1,1-1,293.6-292.12,1-1,1-1,155.79-155c-3-3.59-5.94-7.21-8.94-10.72L1892.08-1124Z"/><path class="cls-107" d="M1989.12-1024.41l-1,1-293.6,292.12-1,1-1,1-293.6,292.13-1,1-1,1-293.6,292.13-1,1-1,1L807.54,151.24l-1,1L510.85,446.43l-1,1h0L216.23,739.58l-1,1-1,1L-80.45,1034.77l-1,1-293.59,292.13h0l-1,1-295.65,294.18-1,1-293.6,292.13-1,1-1,1L-1262,2210.43l-1,1-1,1-124.34,123.72c3.15,3.4,6.19,6.91,9.37,10.28l124.78-124.15,1-1,1-1,293.6-292.12,1-1,1-1L-663,1634l1-1,1-1,293.59-292.13h0l1-1,295.65-294.17,1-1L224,751.48l1-1L520.67,456.29l1-1h0L815.3,163.14l1-1L1111-131l1-1,1-1,293.6-292.12,1-1,1-1,293.6-292.13,1-1,1-1,293.6-292.13,1-1,1-1,140.39-139.69c-2.55-4-5.21-7.89-7.8-11.85l-142.4,141.68Z"/><path class="cls-108" d="M1940.09-1073.68l-1,1-293.6,292.13-1,1-1,1L1349.8-486.36l-1,1-1,1-293.6,292.13-1,1-1,1L758.5,102l-1,1-1,1L462.85,396.14l-1,1-1,1L167.2,690.31l-1,1-1,1-293.6,292.13-1,1-1,1-293.6,292.13-1,1-1,1-293.6,292.12-1,1-1,1L-1015.4,1867l-1,1-1,1L-1311,2161.15l-1,1-1,1-121.55,120.94c3,3.54,5.94,7.16,9,10.68l122.37-121.76,1-1,1-1,293.59-292.13,1-1,1-1L-712,1584.71l1-1,1-1,293.6-292.12,1-1,1-1,293.6-292.12,1-1,1-1L175,702.21l1-1,1-1L470.61,408l1-1,1-1,293.6-292.13,1-1,1-1,293.6-292.13,1-1,1-1,293.6-292.12,1-1,1-1,293.61-292.14,1-1,1-1,293.59-292.12,1-1,1-1,149.59-148.84c-2.75-3.8-5.56-7.55-8.35-11.31l-151.05,150.29Z"/><path class="cls-109" d="M2038.14-975.14l-1,1L1743.51-682l-1,1-1,1-293.6,292.13-1,1-1,1L1152.21-93.65l-1,1-1,1L855.53,201.54l-1,1L559.89,495.72l-1,1L265.26,788.87l-1,1-1,1L-30.39,1083l-1,1-1,1L-326,1377.2l-1,1L-621.7,1671.37l-1,1-1,1-293.59,292.13-1,1-1,1L-1213,2259.7l-1,1-1,1-125.09,124.46c3.29,3.26,6.63,6.48,10,9.72l125-124.33,1-1,1-1,293.6-292.12,1-1,1-1,293.6-292.12,1-1,294.64-293.14,1-1,294.63-293.15,1-1,1-1L273,800.76l1-1,1-1L568.67,506.6l1-1,1-1L865.34,211.4l1-1L1160-81.75l1-1,1-1,293.6-292.12,1-1,1-1,293.6-292.13,1-1,1-1,293.6-292.13,1-1,1-1,128.18-127.53c-2.35-4.19-4.76-8.34-7.16-12.5L2039.16-976.16Z"/><path class="cls-110" d="M2136.2-876.58l-1,1L1841.58-583.43l-1,1-1,1L1545.93-289.27l-1,1-1,1L1250.27,4.9l-1,1-1,1L954.62,299.07l-1,1-1,1L659,593.24l-1,1L363.31,887.41l-1,1-1,1L66.63,1182.6l-1,1L25.32,1223.7q24.69-15.79,49.94-30.39l.72-.4.46-.46,1-1L371.06,899.31l1-1L666.73,605.14l1-1L962.38,311l1-1,1-1L1258,16.8l1-1,1-1,293.6-292.13,1-1,1-1,293.6-292.12,1-1,1-1L2145-865.7l1-1,1-1,94.65-94.18c-1.94-4.6-3.86-9.21-5.85-13.79l-98.6,98.11Z"/><path class="cls-111" d="M1793-1221.51,1497.34-927.35l-1,1h0l-293.6,292.13h0l-1,1L906.05-339l-1,1L611.42-45.85l-1,1-1,1L315.77,248.32l-1,1-1,1L20.12,542.48l-1,1-1,1-293.6,292.12-1,1-1,1-293.6,292.12-1,1-1,1L-866.83,1425l-1,1-1,1-293.59,292.13-1,1-1,1-294.63,293.15-1,1h0L-1561,2115.72c2.59,3.94,5.25,7.85,7.88,11.77l103.8-103.28,1-1h0l293.6-292.11,1-1,294.63-293.15,1-1,1-1,293.6-292.13,1-1,1-1,293.6-292.13,1-1,1-1L27.87,554.38l1-1,1-1L323.52,260.22l1-1,1-1L619.17-33.95l1-1,1-1L914.82-328.12l1-1,1-1L1210.47-622.3h0l1-1,295.65-294.18,1-1h0l293.61-292.12,1-1,157.81-157c-3.54-3-7.14-6-10.71-9L1794-1222.54Z"/><path class="cls-112" d="M1645.92-1369.34l-294.63,293.15-1,1-1,1L1054.61-781l-1,1L759-486.83l-1,1L464.34-193.68l-1,1-1,1L168.68,100.49l-1,1-1,1L-127,394.66l-1,1-1,1-293.6,292.13-1,1-1,1L-718.27,983l-1,1-1,1-293.6,292.12-1,1-1,1-293.6,292.12-1,1-1,1-294.64,293.15-1,1h0l-61.11,60.8c2.17,4.39,4.24,8.83,6.44,13.21l65.51-65.18,1-1h0l293.61-292.12,1-1,294.63-293.15,1-1,1-1,293.6-292.13,1-1,1-1,293.6-292.12,1-1,1-1,293.6-292.12,1-1,1-1,293.6-292.13,1-1,1-1,293.6-292.13,1-1,1-1,293.6-292.13,1-1,1-1,294.63-293.16,1-1L1359-1064.3l1-1,294.64-293.14,1-1L1780.85-1484c-4.52-2.06-9.09-4-13.66-6L1647-1370.36Z"/><path class="cls-113" d="M1596.89-1418.61l-1,1-293.6,292.13-1,1-1,1L1006.61-831.3l-1,1-1,1L711-537.13l-1,1-1,1L415.31-243l-1,1-1,1L118.63,52.23l-1,1L-176,345.38h0l-1,1L-472.67,640.57l-1,1h0L-767.3,933.73l-1,1-1,1L-1063,1227.89l-1,1-1,1-293.6,292.13-1,1-1,1-293.6,292.13-1,1-1,1-43.33,43.12c2,4.55,3.93,9.14,6,13.66l47.16-46.92,1-1,1-1,293.6-292.13,1-1,1-1,293.6-292.13,1-1,1-1,293.6-292.13,1-1,295.66-294.16,1-1h0l293.6-292.13h0l1-1L128.44,62.09l1-1,293.6-292.13,1-1,1-1,293.6-292.13,1-1,1-1,293.6-292.13,1-1,1-1L1310-1113.56l1-1,1-1,293.6-292.12,1-1,1-1,102.86-102.33c-4.9-1.7-9.83-3.32-14.76-4.93l-97.91,97.41Z"/><path class="cls-114" d="M1744-1270.79l-1,1-293.6,292.12-1,1-1,1L1153.7-683.47l-1,1-1,1L858.05-389.3l-1,1-1,1L562.4-95.13l-1,1-1,1L265.71,200.06l-1,1L-29.93,494.23l-1,1-293.6,292.12-1,1-1,1-293.61,292.13-1,1-1,1-293.6,292.13-1,1-1,1-293.6,292.13-1,1-1,1-293.6,292.12-1,1-1,1-89.83,89.37c2.45,4.08,5,8.08,7.51,12.14l92.12-91.66,1-1,1-1,293.59-292.12,1-1,1-1,293.59-292.12,1-1,1-1,293.59-292.13,1-1L-316.8,799.28l1-1L-21.15,505.11l1-1,1-1L275.52,209.92l1-1L570.15-83.24l1-1,1-1L865.8-377.4l1-1,1-1,293.6-292.12,1-1,1-1,293.6-292.13,1-1,1-1,293.6-292.13,1-1,1-1,150.74-150c-3.84-2.75-7.72-5.41-11.6-8.07L1745-1271.81Z"/><path class="cls-115" d="M1842-1172.23l-1,1-293.6,292.13-1,1-1,1L1251.76-584.92l-1,1-1,1L956.11-290.75l-1,1-1,1L660.46,3.42l-1,1L364.79,297.59l-1,1-1,1L69.14,591.76l-1,1-1,1-293.6,292.12-1,1-1,1-294.63,293.14-1,1L-817.8,1474.27h0l-1,1-295.64,294.18-1,1-293.6,292.13-1,1-1,1L-1521,2173.9q4.11,5.71,8.25,11.4l111.35-110.79,1-1,1-1,293.59-292.13,1-1,1-1,293.59-292.13h0l1-1L-513.38,1191l1-1,293.6-292.13,1-1,1-1L76.9,603.66l1-1,1-1,293.6-292.12,1-1L668.21,15.32l1-1L963.86-278.85l1-1,1-1L1259.51-573l1-1,1-1,293.6-292.13,1-1,1-1,293.6-292.12,1-1,1-1,158.32-157.52c-3.25-3.34-6.51-6.62-9.79-9.88l-158.34,157.55Z"/></g><circle class="cls-116" cx="3531.45" cy="1350.21" r="157.15"/><circle class="cls-116" cx="2286.91" cy="3015.69" r="249.28" transform="translate(-1462.59 2500.36) rotate(-45)"/><circle class="cls-116" cx="7395.28" cy="1609.19" r="249.28"/><circle class="cls-117" cx="2366.79" cy="2208.43" r="72.41"/><circle class="cls-117" cx="7499.74" cy="913.43" r="72.41"/><circle class="cls-117" cx="4884.54" cy="2406.65" r="72.41"/><rect class="cls-117" x="9147.69" y="2272.69" width="106.89" height="106.89" transform="translate(18396.4 4675.39) rotate(-179.86)"/><polygon class="cls-117" points="9630.57 1135.61 9714.32 991.39 9547.55 990.97 9630.57 1135.61"/><polygon class="cls-117" points="8486.54 3118.68 8570.28 2974.46 8403.52 2974.04 8486.54 3118.68"/><polygon class="cls-117" points="378.93 2457 462.67 2312.79 295.91 2312.37 378.93 2457"/><polygon class="cls-117" points="2970.5 961.38 3054.25 817.17 2887.48 816.75 2970.5 961.38"/><line class="cls-117" x1="1338.26" y1="2798.44" x2="1429.52" y2="2707.65"/><line class="cls-117" x1="1338.49" y1="2707.42" x2="1429.29" y2="2798.67"/><line class="cls-117" x1="5935.5" y1="1705.94" x2="6026.75" y2="1615.14"/><line class="cls-117" x1="5935.73" y1="1614.92" x2="6026.53" y2="1706.17"/><line class="cls-117" x1="7259.21" y1="2784.99" x2="7350.46" y2="2694.19"/><line class="cls-117" x1="7259.44" y1="2693.96" x2="7350.23" y2="2785.21"/><line class="cls-117" x1="4065.35" y1="1026.84" x2="4156.6" y2="936.05"/><line class="cls-117" x1="4065.58" y1="935.82" x2="4156.37" y2="1027.07"/><line class="cls-117" x1="8325.82" y1="1471.98" x2="8417.07" y2="1381.18"/><line class="cls-117" x1="8326.05" y1="1380.96" x2="8416.84" y2="1472.21"/></g></g></g></svg>