<svg id="Capa_1" data-name="Capa 1" xmlns="http://www.w3.org/2000/svg" viewBox="0 0 10356.67 3200.62"><defs><style>.cls-1{font-size:416.77px;fill:#fff;font-family:MyriadPro-Regular, Myriad Pro;}.cls-2{letter-spacing:0em;}.cls-3{letter-spacing:-0.01em;}.cls-4{letter-spacing:0em;}.cls-5{letter-spacing:0.01em;}.cls-6{letter-spacing:-0.01em;}.cls-7{letter-spacing:0em;}.cls-8{letter-spacing:0em;}.cls-9{letter-spacing:-0.01em;}.cls-10{letter-spacing:-0.01em;}.cls-11{letter-spacing:0em;}.cls-12{letter-spacing:-0.01em;}.cls-13{letter-spacing:0em;}.cls-14{letter-spacing:0em;}.cls-15{letter-spacing:-0.01em;}.cls-16{letter-spacing:0.02em;}.cls-17{letter-spacing:-0.01em;}.cls-18{letter-spacing:0em;}.cls-19{letter-spacing:0.01em;}.cls-20{letter-spacing:-0.11em;}.cls-21{fill:#e86b0c;opacity:0.71;}</style></defs><text id="def_calculate_factorial_recursive_n_:_if_n_0:_return_1_else:_return_n_" data-name="def calculate_factorial_recursive(n):     if n == 0:         return 1     else:         return n *" class="cls-1" transform="translate(-530.38 129.1)"><tspan xml:space="preserve">             def calcul</tspan><tspan class="cls-2" x="2803.13" y="0">a</tspan><tspan class="cls-3" x="3002.34" y="0">t</tspan><tspan class="cls-4" x="3137.79" y="0">e_fa</tspan><tspan class="cls-5" x="3877.55" y="0">c</tspan><tspan class="cls-6" x="4069.68" y="0">t</tspan><tspan x="4205.13" y="0">o</tspan><tspan class="cls-7" x="4433.93" y="0">r</tspan><tspan class="cls-8" x="4571.88" y="0">ial_</tspan><tspan class="cls-9" x="5177.03" y="0">r</tspan><tspan class="cls-8" x="5309.15" y="0">ecursi</tspan><tspan class="cls-9" x="6333.14" y="0">v</tspan><tspan x="6529.44" y="0">e(n):</tspan><tspan x="0" y="500.13" xml:space="preserve">               if n == 0:</tspan><tspan x="0" y="1000.25" xml:space="preserve">                 </tspan><tspan class="cls-10" x="1501.98" y="1000.25">r</tspan><tspan x="1634.09" y="1000.25">etu</tspan><tspan class="cls-11" x="2210.48" y="1000.25">r</tspan><tspan x="2348.43" y="1000.25">n 1</tspan><tspan x="0" y="1500.38" xml:space="preserve">               else:</tspan><tspan x="0" y="2000.5" xml:space="preserve">        </tspan><tspan class="cls-10" x="706.81" y="2000.5">r</tspan><tspan x="838.93" y="2000.5">etu</tspan><tspan class="cls-11" x="1415.32" y="2000.5">r</tspan><tspan class="cls-4" x="1553.27" y="2000.5">n n * calcul</tspan><tspan class="cls-2" x="3454.54" y="2000.5">a</tspan><tspan class="cls-12" x="3653.76" y="2000.5">t</tspan><tspan x="3789.21" y="2000.5">e_fa</tspan><tspan class="cls-5" x="4528.97" y="2000.5">c</tspan><tspan class="cls-6" x="4721.09" y="2000.5">t</tspan><tspan class="cls-8" x="4856.54" y="2000.5">o</tspan><tspan class="cls-7" x="5085.35" y="2000.5">r</tspan><tspan x="5223.3" y="2000.5">ial_</tspan><tspan class="cls-9" x="5828.44" y="2000.5">r</tspan><tspan x="5960.56" y="2000.5">ecursi</tspan><tspan class="cls-9" x="6984.56" y="2000.5">v</tspan><tspan x="7180.85" y="2000.5">e(n - 1)</tspan><tspan class="cls-10" x="0" y="2500.63">r</tspan><tspan x="132.12" y="2500.63">esult = calcul</tspan><tspan class="cls-13" x="2397.65" y="2500.63">a</tspan><tspan class="cls-12" x="2596.87" y="2500.63">t</tspan><tspan x="2732.32" y="2500.63">e_fa</tspan><tspan class="cls-5" x="3472.08" y="2500.63">c</tspan><tspan class="cls-6" x="3664.2" y="2500.63">t</tspan><tspan class="cls-8" x="3799.65" y="2500.63">o</tspan><tspan class="cls-14" x="4028.46" y="2500.63">r</tspan><tspan class="cls-8" x="4166.41" y="2500.63">ial_</tspan><tspan class="cls-9" x="4771.55" y="2500.63">r</tspan><tspan class="cls-8" x="4903.67" y="2500.63">ecursi</tspan><tspan class="cls-15" x="5927.66" y="2500.63">v</tspan><tspan class="cls-8" x="6123.96" y="2500.63">e(5)</tspan><tspan x="0" y="3000.76">p</tspan><tspan class="cls-14" x="237.14" y="3000.76">r</tspan><tspan x="375.09" y="3000.76">i</tspan><tspan class="cls-2" x="472.61" y="3000.76">n</tspan><tspan x="702.25" y="3000.76">t(</tspan><tspan class="cls-16" x="958.56" y="3000.76">&quot;</tspan><tspan class="cls-17" x="1106.09" y="3000.76">T</tspan><tspan class="cls-18" x="1310.31" y="3000.76">he fa</tspan><tspan class="cls-19" x="2161.34" y="3000.76">c</tspan><tspan class="cls-12" x="2353.47" y="3000.76">t</tspan><tspan class="cls-4" x="2488.92" y="3000.76">o</tspan><tspan class="cls-14" x="2717.72" y="3000.76">r</tspan><tspan x="2855.67" y="3000.76">ial of 5 is:</tspan><tspan class="cls-20" x="4430.61" y="3000.76">&quot;</tspan><tspan x="4523.97" y="3000.76">, </tspan><tspan class="cls-9" x="4698.58" y="3000.76">r</tspan><tspan x="4830.7" y="3000.76">esult)</tspan></text><rect class="cls-21" y="0.03" width="10356.67" height="3200.59"/></svg>