<svg id="Capa_1" data-name="Capa 1" xmlns="http://www.w3.org/2000/svg" xmlns:xlink="http://www.w3.org/1999/xlink" viewBox="0 0 8192 3200.62"><defs><style>.cls-1,.cls-115,.cls-116{fill:none;}.cls-2{clip-path:url(#clip-path);}.cls-3{fill:url(#Degradado_sin_nombre);}.cls-4,.cls-5,.cls-6,.cls-7,.cls-8,.cls-9{opacity:0.3;}.cls-114,.cls-4,.cls-5,.cls-6,.cls-7,.cls-8,.cls-9{isolation:isolate;}.cls-4{fill:url(#Degradado_sin_nombre_2);}.cls-5{fill:url(#Degradado_sin_nombre_3);}.cls-6{fill:url(#Degradado_sin_nombre_4);}.cls-7{fill:url(#Degradado_sin_nombre_5);}.cls-8{fill:url(#Degradado_sin_nombre_6);}.cls-9{fill:url(#Degradado_sin_nombre_7);}.cls-10{fill:url(#Degradado_sin_nombre_8);}.cls-11{fill:url(#Degradado_sin_nombre_9);}.cls-12{fill:url(#Degradado_sin_nombre_10);}.cls-13{fill:url(#Degradado_sin_nombre_11);}.cls-14{fill:url(#Degradado_sin_nombre_12);}.cls-15{fill:url(#Degradado_sin_nombre_13);}.cls-16{fill:url(#Degradado_sin_nombre_14);}.cls-17{fill:url(#Degradado_sin_nombre_15);}.cls-18{fill:url(#Degradado_sin_nombre_16);}.cls-19{fill:url(#Degradado_sin_nombre_17);}.cls-20{fill:url(#Degradado_sin_nombre_18);}.cls-21{fill:url(#Degradado_sin_nombre_19);}.cls-22{fill:url(#Degradado_sin_nombre_20);}.cls-23{fill:url(#Degradado_sin_nombre_21);}.cls-24{fill:url(#Degradado_sin_nombre_22);}.cls-25{fill:url(#Degradado_sin_nombre_23);}.cls-26{fill:url(#Degradado_sin_nombre_24);}.cls-27{fill:url(#Degradado_sin_nombre_25);}.cls-28{fill:url(#Degradado_sin_nombre_26);}.cls-29{fill:url(#Degradado_sin_nombre_27);}.cls-30{fill:url(#Degradado_sin_nombre_28);}.cls-31{fill:url(#Degradado_sin_nombre_29);}.cls-32{fill:url(#Degradado_sin_nombre_30);}.cls-33{fill:url(#Degradado_sin_nombre_31);}.cls-34{fill:url(#Degradado_sin_nombre_32);}.cls-35{fill:url(#Degradado_sin_nombre_33);}.cls-36{fill:url(#Degradado_sin_nombre_34);}.cls-37{fill:url(#Degradado_sin_nombre_35);}.cls-38{fill:url(#Degradado_sin_nombre_36);}.cls-39{fill:url(#Degradado_sin_nombre_37);}.cls-40{fill:url(#Degradado_sin_nombre_38);}.cls-41{fill:url(#Degradado_sin_nombre_39);}.cls-42{fill:url(#Degradado_sin_nombre_40);}.cls-43{fill:url(#Degradado_sin_nombre_41);}.cls-44{fill:url(#Degradado_sin_nombre_42);}.cls-45{fill:url(#Degradado_sin_nombre_43);}.cls-46{fill:url(#Degradado_sin_nombre_44);}.cls-47{fill:url(#Degradado_sin_nombre_45);}.cls-48{fill:url(#Degradado_sin_nombre_46);}.cls-49{fill:url(#Degradado_sin_nombre_47);}.cls-50{fill:url(#Degradado_sin_nombre_48);}.cls-51{fill:url(#Degradado_sin_nombre_49);}.cls-52{fill:url(#Degradado_sin_nombre_50);}.cls-53{fill:url(#Degradado_sin_nombre_51);}.cls-54{fill:url(#Degradado_sin_nombre_52);}.cls-55{fill:url(#Degradado_sin_nombre_53);}.cls-56{fill:url(#Degradado_sin_nombre_54);}.cls-57{fill:url(#Degradado_sin_nombre_55);}.cls-58{fill:url(#Degradado_sin_nombre_56);}.cls-59{fill:url(#Degradado_sin_nombre_57);}.cls-60{fill:url(#Degradado_sin_nombre_58);}.cls-61{fill:url(#Degradado_sin_nombre_59);}.cls-62{fill:url(#Degradado_sin_nombre_60);}.cls-63{fill:url(#Degradado_sin_nombre_61);}.cls-64{fill:url(#Degradado_sin_nombre_62);}.cls-65{fill:url(#Degradado_sin_nombre_63);}.cls-66{fill:url(#Degradado_sin_nombre_64);}.cls-67{fill:url(#Degradado_sin_nombre_65);}.cls-68{fill:url(#Degradado_sin_nombre_66);}.cls-69{fill:url(#Degradado_sin_nombre_67);}.cls-70{fill:url(#Degradado_sin_nombre_68);}.cls-71{fill:url(#Degradado_sin_nombre_69);}.cls-72{fill:url(#Degradado_sin_nombre_70);}.cls-73{fill:url(#Degradado_sin_nombre_71);}.cls-74{fill:url(#Degradado_sin_nombre_72);}.cls-75{fill:url(#Degradado_sin_nombre_73);}.cls-76{fill:url(#Degradado_sin_nombre_74);}.cls-77{fill:url(#Degradado_sin_nombre_75);}.cls-78{fill:url(#Degradado_sin_nombre_76);}.cls-79{fill:url(#Degradado_sin_nombre_77);}.cls-80{fill:url(#Degradado_sin_nombre_78);}.cls-81{fill:url(#Degradado_sin_nombre_79);}.cls-82{fill:url(#Degradado_sin_nombre_80);}.cls-83{fill:url(#Degradado_sin_nombre_81);}.cls-84{fill:url(#Degradado_sin_nombre_82);}.cls-85{fill:url(#Degradado_sin_nombre_83);}.cls-86{fill:url(#Degradado_sin_nombre_84);}.cls-87{fill:url(#Degradado_sin_nombre_85);}.cls-88{fill:url(#Degradado_sin_nombre_86);}.cls-89{fill:url(#Degradado_sin_nombre_87);}.cls-90{fill:url(#Degradado_sin_nombre_88);}.cls-91{fill:url(#Degradado_sin_nombre_89);}.cls-92{fill:url(#Degradado_sin_nombre_90);}.cls-93{fill:url(#Degradado_sin_nombre_91);}.cls-94{fill:url(#Degradado_sin_nombre_92);}.cls-95{fill:url(#Degradado_sin_nombre_93);}.cls-96{fill:url(#Degradado_sin_nombre_94);}.cls-97{fill:url(#Degradado_sin_nombre_95);}.cls-98{fill:url(#Degradado_sin_nombre_96);}.cls-99{fill:url(#Degradado_sin_nombre_97);}.cls-100{fill:url(#Degradado_sin_nombre_98);}.cls-101{fill:url(#Degradado_sin_nombre_99);}.cls-102{fill:url(#Degradado_sin_nombre_100);}.cls-103{fill:url(#Degradado_sin_nombre_101);}.cls-104{fill:url(#Degradado_sin_nombre_102);}.cls-105{fill:url(#Degradado_sin_nombre_103);}.cls-106{fill:url(#Degradado_sin_nombre_104);}.cls-107{fill:url(#Degradado_sin_nombre_105);}.cls-108{fill:url(#Degradado_sin_nombre_106);}.cls-109{fill:url(#Degradado_sin_nombre_107);}.cls-110{fill:url(#Degradado_sin_nombre_108);}.cls-111{fill:url(#Degradado_sin_nombre_109);}.cls-112{fill:url(#Degradado_sin_nombre_110);}.cls-113{fill:url(#Degradado_sin_nombre_111);}.cls-114{fill:#fff;opacity:0.1;}.cls-115,.cls-116{stroke:#fff;}.cls-115{stroke-miterlimit:7.91;stroke-width:1.58px;}.cls-116{stroke-miterlimit:7.91;stroke-width:1.58px;}</style><clipPath id="clip-path"><rect class="cls-1" x="4.34" y="9.99" width="8181.93" height="5454.62" transform="translate(-6.68 10.01) rotate(-0.14)"/></clipPath><linearGradient id="Degradado_sin_nombre" x1="7985.42" y1="-6408.01" x2="16605.38" y2="2211.94" gradientTransform="translate(-5630.21 4396.82) scale(0.79)" gradientUnits="userSpaceOnUse"><stop offset="0" stop-color="#ea5259"/><stop offset="1" stop-color="#ffd300"/></linearGradient><linearGradient id="Degradado_sin_nombre_2" x1="12791.32" y1="-3029.57" x2="20613.41" y2="-3029.57" gradientTransform="translate(-5626.12 4420.57) rotate(-0.14) scale(0.79)" xlink:href="#Degradado_sin_nombre"/><linearGradient id="Degradado_sin_nombre_3" x1="13983.55" y1="-3667.75" x2="19534.85" y2="-3667.75" gradientTransform="translate(-5626.12 4420.57) rotate(-0.14) scale(0.79)" xlink:href="#Degradado_sin_nombre"/><linearGradient id="Degradado_sin_nombre_4" x1="15174.66" y1="-4306.98" x2="18468.45" y2="-4306.98" gradientTransform="translate(-5626.12 4420.57) rotate(-0.14) scale(0.79)" xlink:href="#Degradado_sin_nombre"/><linearGradient id="Degradado_sin_nombre_5" x1="5681.96" y1="-5102.04" x2="13259.84" y2="-5102.04" gradientTransform="translate(-5626.12 4420.57) rotate(-0.14) scale(0.79)" gradientUnits="userSpaceOnUse"><stop offset="0" stop-color="#ffd300"/><stop offset="1" stop-color="#ea5259"/></linearGradient><linearGradient id="Degradado_sin_nombre_6" x1="6078.7" y1="-4889.22" x2="11314.44" y2="-4889.22" xlink:href="#Degradado_sin_nombre_5"/><linearGradient id="Degradado_sin_nombre_7" x1="6702.8" y1="-5000.96" x2="9596.44" y2="-5000.96" xlink:href="#Degradado_sin_nombre_5"/><linearGradient id="Degradado_sin_nombre_8" x1="8497.74" y1="-5721.58" x2="9078.05" y2="-5721.58" gradientTransform="translate(-5626.12 4420.57) rotate(-0.14) scale(0.79)" xlink:href="#Degradado_sin_nombre"/><linearGradient id="Degradado_sin_nombre_9" x1="17394.12" y1="-1896.66" x2="20133.97" y2="-1896.66" gradientTransform="translate(-5626.12 4420.57) rotate(-0.14) scale(0.79)" xlink:href="#Degradado_sin_nombre"/><linearGradient id="Degradado_sin_nombre_10" x1="17295.82" y1="-1896.66" x2="20035.68" y2="-1896.66" gradientTransform="translate(-5626.12 4420.57) rotate(-0.14) scale(0.79)" xlink:href="#Degradado_sin_nombre"/><linearGradient id="Degradado_sin_nombre_11" x1="17197.51" y1="-1896.65" x2="19937.37" y2="-1896.65" gradientTransform="translate(-5626.12 4420.57) rotate(-0.14) scale(0.79)" xlink:href="#Degradado_sin_nombre"/><linearGradient id="Degradado_sin_nombre_12" x1="11993.71" y1="-6622.64" x2="14716.87" y2="-6622.64" gradientTransform="translate(-5626.12 4420.57) rotate(-0.14) scale(0.79)" xlink:href="#Degradado_sin_nombre"/><linearGradient id="Degradado_sin_nombre_13" x1="11600.49" y1="-6622.61" x2="14340.34" y2="-6622.61" gradientTransform="translate(-5626.12 4420.57) rotate(-0.14) scale(0.79)" xlink:href="#Degradado_sin_nombre"/><linearGradient id="Degradado_sin_nombre_14" x1="11797.09" y1="-6622.62" x2="14536.95" y2="-6622.62" gradientTransform="translate(-5626.12 4420.57) rotate(-0.14) scale(0.79)" xlink:href="#Degradado_sin_nombre"/><linearGradient id="Degradado_sin_nombre_15" x1="11895.4" y1="-6622.63" x2="14635.25" y2="-6622.63" gradientTransform="translate(-5626.12 4420.57) rotate(-0.14) scale(0.79)" xlink:href="#Degradado_sin_nombre"/><linearGradient id="Degradado_sin_nombre_16" x1="11698.8" y1="-6622.61" x2="14438.65" y2="-6622.61" gradientTransform="translate(-5626.12 4420.57) rotate(-0.14) scale(0.79)" xlink:href="#Degradado_sin_nombre"/><linearGradient id="Degradado_sin_nombre_17" x1="10881.7" y1="-1834.11" x2="12372.67" y2="-1834.11" gradientTransform="translate(-5626.12 4420.57) rotate(-0.14) scale(0.79)" xlink:href="#Degradado_sin_nombre"/><linearGradient id="Degradado_sin_nombre_18" x1="10783.39" y1="-1834.11" x2="12274.37" y2="-1834.11" gradientTransform="translate(-5626.12 4420.57) rotate(-0.14) scale(0.79)" xlink:href="#Degradado_sin_nombre"/><linearGradient id="Degradado_sin_nombre_19" x1="13709.78" y1="-3512.07" x2="15200.75" y2="-3512.07" gradientTransform="translate(-5626.12 4420.57) rotate(-0.14) scale(0.79)" xlink:href="#Degradado_sin_nombre"/><linearGradient id="Degradado_sin_nombre_20" x1="13808.07" y1="-3512.08" x2="15299.05" y2="-3512.08" gradientTransform="translate(-5626.12 4420.57) rotate(-0.14) scale(0.79)" xlink:href="#Degradado_sin_nombre"/><linearGradient id="Degradado_sin_nombre_21" x1="8987.2" y1="-4086.13" x2="10155.75" y2="-4086.13" gradientTransform="translate(-5626.12 4420.57) rotate(-0.14) scale(0.79)" xlink:href="#Degradado_sin_nombre"/><linearGradient id="Degradado_sin_nombre_22" x1="8888.9" y1="-4086.12" x2="10057.44" y2="-4086.12" gradientTransform="translate(-5626.12 4420.57) rotate(-0.14) scale(0.79)" xlink:href="#Degradado_sin_nombre"/><linearGradient id="Degradado_sin_nombre_23" x1="12853.56" y1="-4980.25" x2="13133.49" y2="-4980.25" gradientTransform="translate(-5626.12 4420.57) rotate(-0.14) scale(0.79)" xlink:href="#Degradado_sin_nombre"/><linearGradient id="Degradado_sin_nombre_24" x1="12753.35" y1="-4931.99" x2="13137.16" y2="-4931.99" gradientTransform="translate(-5626.12 4420.57) rotate(-0.14) scale(0.79)" xlink:href="#Degradado_sin_nombre"/><linearGradient id="Degradado_sin_nombre_25" x1="12510.7" y1="-4547.65" x2="12611.24" y2="-4547.65" gradientTransform="translate(-5626.12 4420.57) rotate(-0.14) scale(0.79)" xlink:href="#Degradado_sin_nombre"/><linearGradient id="Degradado_sin_nombre_26" x1="12457.38" y1="-4596.86" x2="12762.82" y2="-4596.86" gradientTransform="translate(-5626.12 4420.57) rotate(-0.14) scale(0.79)" xlink:href="#Degradado_sin_nombre"/><linearGradient id="Degradado_sin_nombre_27" x1="12674.35" y1="-4884.56" x2="13120.31" y2="-4884.56" gradientTransform="translate(-5626.12 4420.57) rotate(-0.14) scale(0.79)" xlink:href="#Degradado_sin_nombre"/><linearGradient id="Degradado_sin_nombre_28" x1="12555.2" y1="-4788.41" x2="13047.4" y2="-4788.41" gradientTransform="translate(-5626.12 4420.57) rotate(-0.14) scale(0.79)" xlink:href="#Degradado_sin_nombre"/><linearGradient id="Degradado_sin_nombre_29" x1="12478.23" y1="-4692.37" x2="12932.94" y2="-4692.37" gradientTransform="translate(-5626.12 4420.57) rotate(-0.14) scale(0.79)" xlink:href="#Degradado_sin_nombre"/><linearGradient id="Degradado_sin_nombre_30" x1="12609.42" y1="-4836.56" x2="13089.48" y2="-4836.56" gradientTransform="translate(-5626.12 4420.57) rotate(-0.14) scale(0.79)" xlink:href="#Degradado_sin_nombre"/><linearGradient id="Degradado_sin_nombre_31" x1="12511.15" y1="-4740.32" x2="12995.16" y2="-4740.32" gradientTransform="translate(-5626.12 4420.57) rotate(-0.14) scale(0.79)" xlink:href="#Degradado_sin_nombre"/><linearGradient id="Degradado_sin_nombre_32" x1="12458.13" y1="-4644.7" x2="12856.97" y2="-4644.7" gradientTransform="translate(-5626.12 4420.57) rotate(-0.14) scale(0.79)" xlink:href="#Degradado_sin_nombre"/><linearGradient id="Degradado_sin_nombre_33" x1="6243.8" y1="-4638.56" x2="8290.95" y2="-4638.56" gradientTransform="translate(-5626.12 4420.57) rotate(-0.14) scale(0.79)" xlink:href="#Degradado_sin_nombre"/><linearGradient id="Degradado_sin_nombre_34" x1="6390.31" y1="-4867.98" x2="8272.47" y2="-4867.98" gradientTransform="translate(-5626.12 4420.57) rotate(-0.14) scale(0.79)" xlink:href="#Degradado_sin_nombre"/><linearGradient id="Degradado_sin_nombre_35" x1="6450.01" y1="-4945.43" x2="8252.93" y2="-4945.43" gradientTransform="translate(-5626.12 4420.57) rotate(-0.14) scale(0.79)" xlink:href="#Degradado_sin_nombre"/><linearGradient id="Degradado_sin_nombre_36" x1="6336.86" y1="-4790.89" x2="8284.32" y2="-4790.89" gradientTransform="translate(-5626.12 4420.57) rotate(-0.14) scale(0.79)" xlink:href="#Degradado_sin_nombre"/><linearGradient id="Degradado_sin_nombre_37" x1="6288.06" y1="-4714.67" x2="8290.04" y2="-4714.67" gradientTransform="translate(-5626.12 4420.57) rotate(-0.14) scale(0.79)" xlink:href="#Degradado_sin_nombre"/><linearGradient id="Degradado_sin_nombre_38" x1="6520.93" y1="-5020.86" x2="8223.67" y2="-5020.86" gradientTransform="translate(-5626.12 4420.57) rotate(-0.14) scale(0.79)" xlink:href="#Degradado_sin_nombre"/><linearGradient id="Degradado_sin_nombre_39" x1="6624.44" y1="-5087.98" x2="8179.82" y2="-5087.98" gradientTransform="translate(-5626.12 4420.57) rotate(-0.14) scale(0.79)" xlink:href="#Degradado_sin_nombre"/><linearGradient id="Degradado_sin_nombre_40" x1="6874.14" y1="-5095.09" x2="8112.49" y2="-5095.09" gradientTransform="translate(-5626.12 4420.57) rotate(-0.14) scale(0.79)" xlink:href="#Degradado_sin_nombre"/><linearGradient id="Degradado_sin_nombre_41" x1="7192.93" y1="-5093.33" x2="7993.8" y2="-5093.33" gradientTransform="translate(-5626.12 4420.57) rotate(-0.14) scale(0.79)" xlink:href="#Degradado_sin_nombre"/><linearGradient id="Degradado_sin_nombre_42" x1="5731.11" y1="-2482.39" x2="7235.08" y2="-2482.39" gradientTransform="translate(-5626.12 4420.57) rotate(-0.14) scale(0.79)" xlink:href="#Degradado_sin_nombre"/><linearGradient id="Degradado_sin_nombre_43" x1="5747.42" y1="-2397.26" x2="7191.95" y2="-2397.26" gradientTransform="translate(-5626.12 4420.57) rotate(-0.14) scale(0.79)" xlink:href="#Degradado_sin_nombre"/><linearGradient id="Degradado_sin_nombre_44" x1="5768.08" y1="-2308.86" x2="7151.11" y2="-2308.86" gradientTransform="translate(-5626.12 4420.57) rotate(-0.14) scale(0.79)" xlink:href="#Degradado_sin_nombre"/><linearGradient id="Degradado_sin_nombre_45" x1="5719.18" y1="-2564.36" x2="7280.05" y2="-2564.36" gradientTransform="translate(-5626.12 4420.57) rotate(-0.14) scale(0.79)" xlink:href="#Degradado_sin_nombre"/><linearGradient id="Degradado_sin_nombre_46" x1="5704.76" y1="-2721.54" x2="7373.65" y2="-2721.54" gradientTransform="translate(-5626.12 4420.57) rotate(-0.14) scale(0.79)" xlink:href="#Degradado_sin_nombre"/><linearGradient id="Degradado_sin_nombre_47" x1="5703.96" y1="-2943.35" x2="7520.25" y2="-2943.35" gradientTransform="translate(-5626.12 4420.57) rotate(-0.14) scale(0.79)" xlink:href="#Degradado_sin_nombre"/><linearGradient id="Degradado_sin_nombre_48" x1="5701.85" y1="-2870.94" x2="7470.95" y2="-2870.94" gradientTransform="translate(-5626.12 4420.57) rotate(-0.14) scale(0.79)" xlink:href="#Degradado_sin_nombre"/><linearGradient id="Degradado_sin_nombre_49" x1="5702.18" y1="-2797.03" x2="7422.06" y2="-2797.03" gradientTransform="translate(-5626.12 4420.57) rotate(-0.14) scale(0.79)" xlink:href="#Degradado_sin_nombre"/><linearGradient id="Degradado_sin_nombre_50" x1="5710.32" y1="-2644" x2="7326.43" y2="-2644" gradientTransform="translate(-5626.12 4420.57) rotate(-0.14) scale(0.79)" xlink:href="#Degradado_sin_nombre"/><linearGradient id="Degradado_sin_nombre_51" x1="5745.54" y1="-3291.12" x2="7764.03" y2="-3291.12" gradientTransform="translate(-5626.12 4420.57) rotate(-0.14) scale(0.79)" xlink:href="#Degradado_sin_nombre"/><linearGradient id="Degradado_sin_nombre_52" x1="5791.36" y1="-3494.66" x2="7898.51" y2="-3494.66" gradientTransform="translate(-5626.12 4420.57) rotate(-0.14) scale(0.79)" xlink:href="#Degradado_sin_nombre"/><linearGradient id="Degradado_sin_nombre_53" x1="5708.41" y1="-3014.52" x2="7569.82" y2="-3014.52" gradientTransform="translate(-5626.12 4420.57) rotate(-0.14) scale(0.79)" xlink:href="#Degradado_sin_nombre"/><linearGradient id="Degradado_sin_nombre_54" x1="5714.71" y1="-3084.76" x2="7619.06" y2="-3084.76" gradientTransform="translate(-5626.12 4420.57) rotate(-0.14) scale(0.79)" xlink:href="#Degradado_sin_nombre"/><linearGradient id="Degradado_sin_nombre_55" x1="5774.8" y1="-3426.6" x2="7855.56" y2="-3426.6" gradientTransform="translate(-5626.12 4420.57) rotate(-0.14) scale(0.79)" xlink:href="#Degradado_sin_nombre"/><linearGradient id="Degradado_sin_nombre_56" x1="5722.99" y1="-3154.16" x2="7668.02" y2="-3154.16" gradientTransform="translate(-5626.12 4420.57) rotate(-0.14) scale(0.79)" xlink:href="#Degradado_sin_nombre"/><linearGradient id="Degradado_sin_nombre_57" x1="5759.34" y1="-3358.98" x2="7810.35" y2="-3358.98" gradientTransform="translate(-5626.12 4420.57) rotate(-0.14) scale(0.79)" xlink:href="#Degradado_sin_nombre"/><linearGradient id="Degradado_sin_nombre_58" x1="5733.43" y1="-3222.85" x2="7716.34" y2="-3222.85" gradientTransform="translate(-5626.12 4420.57) rotate(-0.14) scale(0.79)" xlink:href="#Degradado_sin_nombre"/><linearGradient id="Degradado_sin_nombre_59" x1="5897.73" y1="-3837.66" x2="8086.17" y2="-3837.66" gradientTransform="translate(-5626.12 4420.57) rotate(-0.14) scale(0.79)" xlink:href="#Degradado_sin_nombre"/><linearGradient id="Degradado_sin_nombre_60" x1="5829.88" y1="-3630.86" x2="7979.83" y2="-3630.86" gradientTransform="translate(-5626.12 4420.57) rotate(-0.14) scale(0.79)" xlink:href="#Degradado_sin_nombre"/><linearGradient id="Degradado_sin_nombre_61" x1="5948.97" y1="-3977.69" x2="8146.62" y2="-3977.69" gradientTransform="translate(-5626.12 4420.57) rotate(-0.14) scale(0.79)" xlink:href="#Degradado_sin_nombre"/><linearGradient id="Degradado_sin_nombre_62" x1="6165.97" y1="-4487.32" x2="8280.97" y2="-4487.32" gradientTransform="translate(-5626.12 4420.57) rotate(-0.14) scale(0.79)" xlink:href="#Degradado_sin_nombre"/><linearGradient id="Degradado_sin_nombre_63" x1="5851.18" y1="-3699.41" x2="8017.34" y2="-3699.41" gradientTransform="translate(-5626.12 4420.57) rotate(-0.14) scale(0.79)" xlink:href="#Degradado_sin_nombre"/><linearGradient id="Degradado_sin_nombre_64" x1="5810.09" y1="-3562.52" x2="7940.2" y2="-3562.52" gradientTransform="translate(-5626.12 4420.57) rotate(-0.14) scale(0.79)" xlink:href="#Degradado_sin_nombre"/><linearGradient id="Degradado_sin_nombre_65" x1="5873.73" y1="-3768.3" x2="8052.77" y2="-3768.3" gradientTransform="translate(-5626.12 4420.57) rotate(-0.14) scale(0.79)" xlink:href="#Degradado_sin_nombre"/><linearGradient id="Degradado_sin_nombre_66" x1="6065.95" y1="-4264.42" x2="8239.79" y2="-4264.42" gradientTransform="translate(-5626.12 4420.57) rotate(-0.14) scale(0.79)" xlink:href="#Degradado_sin_nombre"/><linearGradient id="Degradado_sin_nombre_67" x1="5976.26" y1="-4048.61" x2="8173.46" y2="-4048.61" gradientTransform="translate(-5626.12 4420.57) rotate(-0.14) scale(0.79)" xlink:href="#Degradado_sin_nombre"/><linearGradient id="Degradado_sin_nombre_68" x1="6005.26" y1="-4119.75" x2="8198.13" y2="-4119.75" gradientTransform="translate(-5626.12 4420.57) rotate(-0.14) scale(0.79)" xlink:href="#Degradado_sin_nombre"/><linearGradient id="Degradado_sin_nombre_69" x1="6035.07" y1="-4191.78" x2="8220.24" y2="-4191.78" gradientTransform="translate(-5626.12 4420.57) rotate(-0.14) scale(0.79)" xlink:href="#Degradado_sin_nombre"/><linearGradient id="Degradado_sin_nombre_70" x1="5922.55" y1="-3907.47" x2="8117.6" y2="-3907.47" gradientTransform="translate(-5626.12 4420.57) rotate(-0.14) scale(0.79)" xlink:href="#Degradado_sin_nombre"/><linearGradient id="Degradado_sin_nombre_71" x1="6203.37" y1="-4562.83" x2="8287.75" y2="-4562.83" gradientTransform="translate(-5626.12 4420.57) rotate(-0.14) scale(0.79)" xlink:href="#Degradado_sin_nombre"/><linearGradient id="Degradado_sin_nombre_72" x1="6130.93" y1="-4412.37" x2="8270.53" y2="-4412.37" gradientTransform="translate(-5626.12 4420.57) rotate(-0.14) scale(0.79)" xlink:href="#Degradado_sin_nombre"/><linearGradient id="Degradado_sin_nombre_73" x1="6097.92" y1="-4337.99" x2="8256.65" y2="-4337.99" gradientTransform="translate(-5626.12 4420.57) rotate(-0.14) scale(0.79)" xlink:href="#Degradado_sin_nombre"/><linearGradient id="Degradado_sin_nombre_74" x1="16631.67" y1="-5722.19" x2="19332.66" y2="-5722.19" gradientTransform="translate(-5626.12 4420.57) rotate(-0.14) scale(0.79)" xlink:href="#Degradado_sin_nombre"/><linearGradient id="Degradado_sin_nombre_75" x1="16747.31" y1="-5763.45" x2="19331.11" y2="-5763.45" gradientTransform="translate(-5626.12 4420.57) rotate(-0.14) scale(0.79)" xlink:href="#Degradado_sin_nombre"/><linearGradient id="Degradado_sin_nombre_76" x1="16995.63" y1="-5845.81" x2="19311.26" y2="-5845.81" gradientTransform="translate(-5626.12 4420.57) rotate(-0.14) scale(0.79)" xlink:href="#Degradado_sin_nombre"/><linearGradient id="Degradado_sin_nombre_77" x1="17273.72" y1="-5928.81" x2="19260.47" y2="-5928.81" gradientTransform="translate(-5626.12 4420.57) rotate(-0.14) scale(0.79)" xlink:href="#Degradado_sin_nombre"/><linearGradient id="Degradado_sin_nombre_78" x1="17129.88" y1="-5887.42" x2="19290.31" y2="-5887.42" gradientTransform="translate(-5626.12 4420.57) rotate(-0.14) scale(0.79)" xlink:href="#Degradado_sin_nombre"/><linearGradient id="Degradado_sin_nombre_79" x1="16868.56" y1="-5804.56" x2="19324.35" y2="-5804.56" gradientTransform="translate(-5626.12 4420.57) rotate(-0.14) scale(0.79)" xlink:href="#Degradado_sin_nombre"/><linearGradient id="Degradado_sin_nombre_80" x1="17429.21" y1="-5970.63" x2="19217.91" y2="-5970.63" gradientTransform="translate(-5626.12 4420.57) rotate(-0.14) scale(0.79)" xlink:href="#Degradado_sin_nombre"/><linearGradient id="Degradado_sin_nombre_81" x1="15285.24" y1="-5118.24" x2="15831.28" y2="-5118.24" gradientTransform="translate(-5626.12 4420.57) rotate(-0.14) scale(0.79)" xlink:href="#Degradado_sin_nombre"/><linearGradient id="Degradado_sin_nombre_82" x1="15208.77" y1="-5165.25" x2="16010.31" y2="-5165.25" gradientTransform="translate(-5626.12 4420.57) rotate(-0.14) scale(0.79)" xlink:href="#Degradado_sin_nombre"/><linearGradient id="Degradado_sin_nombre_83" x1="15168.56" y1="-5208.67" x2="16160.25" y2="-5208.67" gradientTransform="translate(-5626.12 4420.57) rotate(-0.14) scale(0.79)" xlink:href="#Degradado_sin_nombre"/><linearGradient id="Degradado_sin_nombre_84" x1="15143.04" y1="-5353.02" x2="16681.71" y2="-5353.02" gradientTransform="translate(-5626.12 4420.57) rotate(-0.14) scale(0.79)" xlink:href="#Degradado_sin_nombre"/><linearGradient id="Degradado_sin_nombre_85" x1="16113.02" y1="-5519.69" x2="19277.51" y2="-5519.69" gradientTransform="translate(-5626.12 4420.57) rotate(-0.14) scale(0.79)" xlink:href="#Degradado_sin_nombre"/><linearGradient id="Degradado_sin_nombre_86" x1="16520.64" y1="-5681.49" x2="19329.73" y2="-5681.49" gradientTransform="translate(-5626.12 4420.57) rotate(-0.14) scale(0.79)" xlink:href="#Degradado_sin_nombre"/><linearGradient id="Degradado_sin_nombre_87" x1="16413.45" y1="-5640.75" x2="19322.42" y2="-5640.75" gradientTransform="translate(-5626.12 4420.57) rotate(-0.14) scale(0.79)" xlink:href="#Degradado_sin_nombre"/><linearGradient id="Degradado_sin_nombre_88" x1="15138.37" y1="-5286.6" x2="16427.83" y2="-5286.6" gradientTransform="translate(-5626.12 4420.57) rotate(-0.14) scale(0.79)" xlink:href="#Degradado_sin_nombre"/><linearGradient id="Degradado_sin_nombre_89" x1="15147.41" y1="-5248.99" x2="16297.32" y2="-5248.99" gradientTransform="translate(-5626.12 4420.57) rotate(-0.14) scale(0.79)" xlink:href="#Degradado_sin_nombre"/><linearGradient id="Degradado_sin_nombre_90" x1="15154.28" y1="-5381.09" x2="16809.97" y2="-5381.09" gradientTransform="translate(-5626.12 4420.57) rotate(-0.14) scale(0.79)" xlink:href="#Degradado_sin_nombre"/><linearGradient id="Degradado_sin_nombre_91" x1="15137.88" y1="-5321.35" x2="16555.03" y2="-5321.35" gradientTransform="translate(-5626.12 4420.57) rotate(-0.14) scale(0.79)" xlink:href="#Degradado_sin_nombre"/><linearGradient id="Degradado_sin_nombre_92" x1="15190.25" y1="-5421.64" x2="17084.38" y2="-5421.64" gradientTransform="translate(-5626.12 4420.57) rotate(-0.14) scale(0.79)" xlink:href="#Degradado_sin_nombre"/><linearGradient id="Degradado_sin_nombre_93" x1="15272.77" y1="-4829.5" x2="18765.04" y2="-4829.5" gradientTransform="translate(-5626.12 4420.57) rotate(-0.14) scale(0.79)" xlink:href="#Degradado_sin_nombre"/><linearGradient id="Degradado_sin_nombre_94" x1="15639.12" y1="-5254.96" x2="19111.09" y2="-5254.96" gradientTransform="translate(-5626.12 4420.57) rotate(-0.14) scale(0.79)" xlink:href="#Degradado_sin_nombre"/><linearGradient id="Degradado_sin_nombre_95" x1="16310.08" y1="-5600.32" x2="19311.11" y2="-5600.32" gradientTransform="translate(-5626.12 4420.57) rotate(-0.14) scale(0.79)" xlink:href="#Degradado_sin_nombre"/><linearGradient id="Degradado_sin_nombre_96" x1="15932.09" y1="-5438.03" x2="19232.11" y2="-5438.03" gradientTransform="translate(-5626.12 4420.57) rotate(-0.14) scale(0.79)" xlink:href="#Degradado_sin_nombre"/><linearGradient id="Degradado_sin_nombre_97" x1="16210.18" y1="-5559.93" x2="19295.67" y2="-5559.93" gradientTransform="translate(-5626.12 4420.57) rotate(-0.14) scale(0.79)" xlink:href="#Degradado_sin_nombre"/><linearGradient id="Degradado_sin_nombre_98" x1="16019.74" y1="-5479.58" x2="19256.25" y2="-5479.58" gradientTransform="translate(-5626.12 4420.57) rotate(-0.14) scale(0.79)" xlink:href="#Degradado_sin_nombre"/><linearGradient id="Degradado_sin_nombre_99" x1="15850.42" y1="-5394.71" x2="19205.45" y2="-5394.71" gradientTransform="translate(-5626.12 4420.57) rotate(-0.14) scale(0.79)" xlink:href="#Degradado_sin_nombre"/><linearGradient id="Degradado_sin_nombre_100" x1="15214.32" y1="-5427.82" x2="17243.83" y2="-5427.82" gradientTransform="translate(-5626.12 4420.57) rotate(-0.14) scale(0.79)" xlink:href="#Degradado_sin_nombre"/><linearGradient id="Degradado_sin_nombre_101" x1="15170.06" y1="-5404.64" x2="16942.86" y2="-5404.64" gradientTransform="translate(-5626.12 4420.57) rotate(-0.14) scale(0.79)" xlink:href="#Degradado_sin_nombre"/><linearGradient id="Degradado_sin_nombre_102" x1="15426.91" y1="-5048.75" x2="18954.63" y2="-5048.75" gradientTransform="translate(-5626.12 4420.57) rotate(-0.14) scale(0.79)" xlink:href="#Degradado_sin_nombre"/><linearGradient id="Degradado_sin_nombre_103" x1="15343.89" y1="-4939.89" x2="18863.88" y2="-4939.89" gradientTransform="translate(-5626.12 4420.57) rotate(-0.14) scale(0.79)" xlink:href="#Degradado_sin_nombre"/><linearGradient id="Degradado_sin_nombre_104" x1="15384.02" y1="-4994.54" x2="18910.21" y2="-4994.54" gradientTransform="translate(-5626.12 4420.57) rotate(-0.14) scale(0.79)" xlink:href="#Degradado_sin_nombre"/><linearGradient id="Degradado_sin_nombre_105" x1="15306.95" y1="-4884.89" x2="18815.51" y2="-4884.89" gradientTransform="translate(-5626.12 4420.57) rotate(-0.14) scale(0.79)" xlink:href="#Degradado_sin_nombre"/><linearGradient id="Degradado_sin_nombre_106" x1="15241.96" y1="-5407.47" x2="17452.94" y2="-5407.47" gradientTransform="translate(-5626.12 4420.57) rotate(-0.14) scale(0.79)" xlink:href="#Degradado_sin_nombre"/><linearGradient id="Degradado_sin_nombre_107" x1="15524.06" y1="-5154.26" x2="19037.08" y2="-5154.26" gradientTransform="translate(-5626.12 4420.57) rotate(-0.14) scale(0.79)" xlink:href="#Degradado_sin_nombre"/><linearGradient id="Degradado_sin_nombre_108" x1="15704.03" y1="-5303.15" x2="19144.75" y2="-5303.15" gradientTransform="translate(-5626.12 4420.57) rotate(-0.14) scale(0.79)" xlink:href="#Degradado_sin_nombre"/><linearGradient id="Degradado_sin_nombre_109" x1="15774.49" y1="-5349.73" x2="19176.23" y2="-5349.73" gradientTransform="translate(-5626.12 4420.57) rotate(-0.14) scale(0.79)" xlink:href="#Degradado_sin_nombre"/><linearGradient id="Degradado_sin_nombre_110" x1="15579.37" y1="-5205.33" x2="19074.99" y2="-5205.33" gradientTransform="translate(-5626.12 4420.57) rotate(-0.14) scale(0.79)" xlink:href="#Degradado_sin_nombre"/><linearGradient id="Degradado_sin_nombre_111" x1="15473.45" y1="-5101.99" x2="18996.93" y2="-5101.99" gradientTransform="translate(-5626.12 4420.57) rotate(-0.14) scale(0.79)" xlink:href="#Degradado_sin_nombre"/></defs><g id="Capa_1-2" data-name="Capa 1"><g class="cls-2"><rect class="cls-3" x="4.34" y="9.99" width="8181.93" height="5454.62" transform="translate(-6.68 10.01) rotate(-0.14)"/><path class="cls-4" d="M10051.88,4596.18c216.54-333,309.05-729.48,391.24-1118.1,173.16-818.55,317.48-1665.22,164.53-2487.78S9947.3-635.54,9161.85-923.7C8745-1076.62,8289-1074.89,7854.66-1166.85c-476-100.76-920.37-312.79-1385.24-456.4s-978.69-215.83-1430.76-36c-333.08,132.49-631.65,471.71-544.94,819.52,77.29,310.1,407.36,472.63,628.83,703C5373.19,124.05,5491.76,505.76,5433,862.64c-89.76,545.08-559.82,1018.23-480.88,1565,74.49,515.66,624.07,839.44,1142.33,892.88,190.93,19.7,385.25,13.72,572.6,55.54s374.37,142.24,459.67,314.19c146.69,295.67-57.89,636.23-102.35,963.26-39.56,291,59.38,597.7,261.49,810.7C8015.61,6233.3,9592.17,5303.22,10051.88,4596.18Z"/><path class="cls-5" d="M9446.05,3237.56c144.12-237.83,200.05-517.3,248.93-791,103-576.61,185.14-1172.25,59.85-1744.41s-498.16-1123-1054.18-1307.17c-295-97.74-614.09-86.4-920.07-141.09-335.29-60-651-198.36-979.43-288.54s-689.59-129.29-1001.93,6.58C5569.14-928,5367.76-684,5436.16-442.58c60.95,215.26,295.52,321.65,455.6,478,181.17,176.89,272.66,441.35,239.44,692.37-50.71,383.4-369.12,724.91-301.73,1105.73,63.55,359.16,455.29,573.51,819.14,599.4,134,9.49,269.89,1,401.9,26.1s265.11,91.19,328.62,209.61c109.21,203.63-26.38,446.48-50.22,676.3-21.21,204.46,54.82,416.9,201,561.46C8057.58,4428.31,9140.08,3742.49,9446.05,3237.56Z"/><path class="cls-6" d="M8840.19,1878.93c71.69-142.65,91-305.13,106.61-464,32.82-334.66,52.84-679.26-44.77-1001s-336-620.13-662.55-700.32C8066.19-329,7884.12-308,7706.53-325.49,7512-344.6,7325.06-409.55,7133-446.27S6732.49-489,6559.9-397.09c-127.17,67.71-231.36,216.47-181.27,351.56C6423.25,74.9,6562.31,125.16,6661,207.36c111.7,93,176,240.23,168.41,385.39-11.68,221.72-178.43,431.59-122.61,646.48,52.64,202.68,286.57,307.59,495.95,305.92,77.15-.62,154.52-11.64,231.2-3.26s155.86,40.23,197.57,105.09c71.73,111.58,5.14,256.7,1.9,389.31-2.87,118,50.29,236.11,140.47,312.22C8099.56,2623.32,8688,2181.75,8840.19,1878.93Z"/><path class="cls-7" d="M2976.86-1944.62c-499.7-253.73-1039.95-514.82-1594.92-436.91-391.8,55-738.6,273.62-1071.79,487C-130.48-1612.26-587.11-1313.8-853.14-863.19c-345.34,585-305.72,1310.86-255.53,1988.26,7.45,100.71,18.62,204,34,308.14,116,784.66,700,1418.86,1470.48,1607.17h0c300.69,73.49,624.57,145.73,912.48,32,683.66-270,723.62-1376.13,1417.51-1618.72C3147,1306.47,3614.76,1560.16,4052.5,1474c410.23-80.68,718.79-465.89,784.29-878.79S4756-243.24,4515.07-584.93s-570.22-610.54-907.35-857.81C3386.64-1604.9,3221.35-1820.48,2976.86-1944.62Z"/><path class="cls-8" d="M2018.16-1060.46c-345.25-175.31-718.52-355.7-1102-301.87-270.71,38-510.38,189.06-740.55,336.5-304.45,195-619.94,401.22-803.75,712.56C-866.68,90.89-839.3,592.44-804.64,1060.5c5.15,69.59,12.87,140.93,23.5,212.91,80.13,542.11,483.66,980.32,1016,1110.4h0C442.6,2434.62,666.4,2484.53,865.31,2406c472.37-186.58,500-950.82,979.39-1118.41,291-101.72,614.19,73.56,916.64,14,283.44-55.78,496.62-321.88,541.89-607.19S3247.43,115.07,3081-121s-394-421.83-626.91-592.68C2301.31-825.73,2187.1-974.69,2018.16-1060.46Z"/><path class="cls-9" d="M1238.73-433.41C1047.89-530.3,841.59-630,629.67-600.25c-149.62,21-282,104.5-409.27,186C52.14-306.53-122.23-192.57-223.8-20.5c-131.87,223.36-116.75,500.59-97.58,759.24,2.85,38.46,7.12,77.89,13,117.67,44.27,299.63,267.26,541.79,561.51,613.7h0c114.82,28.05,238.49,55.65,348.44,12.23,261-103.12,276.3-525.5,541.28-618.12,160.82-56.21,339.44,40.66,506.6,7.76,156.65-30.82,274.48-177.88,299.48-335.57S1918,216.19,1826,85.72s-217.71-233.14-346.45-327.56C1395.17-303.73,1332.05-386,1238.73-433.41Z"/><path class="cls-10" d="M1129.7-289.91,1361.94-58.84l.79.8.79.79,150.77,150q14.76,7.41,29.7,14L1371.19-65.12l-.79-.79-.79-.79L1137.37-297.77l-.79-.79-.79-.79L1083.86-351q8.43,16.5,17.63,33l26.57,26.42.79.8Z"/><polygon class="cls-11" points="10114.99 3789.99 10282.97 3957.13 10298.52 3957.09 10122.75 3782.19 10121.94 3781.39 10121.13 3780.58 9888.9 3549.51 9888.08 3548.7 9654.23 3316.02 9653.42 3315.21 9653.41 3315.21 9421.18 3084.14 9420.64 3083.6 9420.37 3083.33 9419.56 3082.53 9187.32 2851.46 9187.33 2851.45 9186.51 2850.65 8952.65 2617.97 8951.84 2617.16 8719.6 2386.09 8718.8 2385.29 8484.94 2152.6 8484.13 2151.79 8484.13 2151.79 8251.89 1920.72 8251.08 1919.92 8141.64 1811.02 8126.08 1811.06 8242.51 1926.9 8243.32 1927.71 8477.18 2160.4 8477.99 2161.21 8478 2161.2 8710.22 2392.27 8711.03 2393.09 8711.85 2393.89 8944.89 2625.76 8945.71 2626.57 9177.94 2857.63 9177.93 2857.64 9178.75 2858.45 9412.61 3091.13 9412.89 3091.4 9646.47 3323.82 9647.28 3324.62 9647.28 3324.62 9879.51 3555.7 9880.32 3556.5 9881.14 3557.31 10113.37 3788.38 10114.18 3789.19 10114.99 3789.99"/><polygon class="cls-12" points="10076.22 3828.97 10205.22 3957.33 10220.78 3957.29 10083.16 3820.36 10082.35 3819.55 10082.35 3819.55 9849.3 3587.68 9848.48 3586.87 9616.25 3355.8 9615.44 3355 9614.63 3354.19 9382.39 3123.12 9381.59 3122.31 9380.77 3121.51 9148.54 2890.43 9147.72 2889.63 8913.88 2656.94 8913.06 2656.13 8913.06 2656.14 8680.83 2425.06 8680.01 2424.26 8446.97 2192.38 8446.16 2191.57 8445.35 2190.77 8213.12 1959.69 8212.3 1958.89 8211.5 1958.08 8063.88 1811.21 8048.33 1811.25 8203.74 1965.88 8204.54 1966.69 8205.36 1967.49 8437.59 2198.57 8438.4 2199.37 8439.21 2200.18 8671.45 2431.24 8672.26 2432.06 8906.12 2664.74 8906.92 2665.55 8906.93 2665.55 9139.16 2896.62 9139.97 2897.43 9140.78 2898.23 9373.01 3129.3 9373.83 3130.11 9374.64 3130.92 9606.87 3361.98 9607.68 3362.8 9608.49 3363.59 9841.54 3595.48 9842.35 3596.28 10075.4 3828.16 10076.22 3828.97 10076.22 3828.97"/><polygon class="cls-13" points="7986.12 1811.41 7970.57 1811.45 8164.94 2004.85 8165.49 2005.4 8165.76 2005.67 8166.57 2006.47 8398.81 2237.54 8398.8 2237.54 8399.62 2238.35 8633.48 2471.03 8634.29 2471.84 8866.53 2702.91 8867.33 2703.71 9101.19 2936.4 9102 2937.21 9102 2937.2 9334.24 3168.28 9335.05 3169.08 9335.86 3169.89 9568.09 3400.96 9568.9 3401.77 9569.72 3402.57 9801.95 3633.65 9802.76 3634.45 9803.57 3635.26 10035.81 3866.33 10036.62 3867.14 10037.43 3867.95 10127.46 3957.52 10143.02 3957.49 10045.19 3860.15 10044.38 3859.34 10043.57 3858.53 9811.33 3627.46 9810.52 3626.65 9809.71 3625.85 9577.48 3394.78 9576.66 3393.97 9575.85 3393.16 9343.62 3162.1 9342.81 3161.28 9108.95 2928.6 9108.14 2927.79 9108.14 2927.79 8875.91 2696.72 8875.09 2695.91 8642.05 2464.04 8641.24 2463.23 8640.42 2462.42 8408.19 2231.36 8408.19 2231.36 8407.38 2230.55 8173.52 1997.87 8173.24 1997.6 7986.12 1811.41"/><polygon class="cls-14" points="6002.19 229.39 6004.54 229.38 5991.29 216.2 5990.47 215.39 5757.43 -16.49 5756.62 -17.29 5523.58 -249.16 5522.76 -249.98 5289.71 -481.86 5288.9 -482.66 5055.86 -714.54 5055.04 -715.35 4822 -947.22 4821.19 -948.03 4588.14 -1179.91 4587.33 -1180.72 4354.28 -1412.6 4353.48 -1413.4 4120.43 -1645.27 4119.62 -1646.09 3886.57 -1877.96 3885.76 -1878.76 3847.65 -1916.68 3845.3 -1916.68 3883.78 -1878.4 3884.59 -1877.59 3885.4 -1876.79 4117.64 -1645.71 4118.45 -1644.91 4119.26 -1644.1 4351.49 -1413.03 4352.31 -1412.22 4353.11 -1411.42 4585.35 -1180.35 4586.16 -1179.54 4820.01 -946.85 4820.82 -946.04 4820.83 -946.05 5053.06 -714.97 5053.87 -714.16 5054.68 -713.35 5287.73 -481.48 5288.53 -480.67 5520.78 -249.61 5520.77 -249.61 5521.58 -248.8 5755.45 -16.11 5756.26 -15.31 5988.49 215.76 5989.3 216.57 5990.12 217.38 6002.19 229.39"/><polygon class="cls-15" points="3736.4 -1730.29 3549.82 -1915.94 3534.27 -1915.9 3729.46 -1721.68 3730.27 -1720.88 3730.28 -1720.88 3962.51 -1489.81 3962.51 -1489.8 3963.31 -1489 4197.18 -1256.32 4197.99 -1255.51 4430.23 -1024.43 4431.03 -1023.63 4431.85 -1022.82 4664.08 -791.76 4664.9 -790.95 4665.7 -790.13 4897.94 -559.07 4898.75 -558.26 4899.56 -557.46 5131.79 -326.39 5132.61 -325.58 5133.42 -324.77 5365.65 -93.7 5366.46 -92.89 5367.27 -92.09 5599.5 138.98 5600.32 139.79 5601.13 140.6 5691.16 230.18 5706.71 230.14 5608.88 132.8 5608.08 131.99 5607.26 131.18 5375.03 -99.89 5374.22 -100.69 5373.41 -101.5 5141.17 -332.56 5140.37 -333.38 5139.55 -334.19 4907.32 -565.25 4906.51 -566.06 4905.7 -566.87 4673.46 -797.93 4672.65 -798.74 4671.84 -799.55 4439.61 -1030.62 4438.79 -1031.43 4437.98 -1032.23 4205.75 -1263.3 4204.94 -1264.11 4204.13 -1264.92 3971.89 -1495.98 3971.89 -1495.99 3971.08 -1496.8 3737.22 -1729.48 3736.4 -1730.3 3736.4 -1730.29"/><polygon class="cls-16" points="3813.97 -1808.24 3705.33 -1916.33 3689.78 -1916.29 3806.22 -1800.44 3807.02 -1799.63 3807.84 -1798.83 4040.07 -1567.76 4040.88 -1566.95 4041.69 -1566.14 4273.93 -1335.08 4274.74 -1334.26 4275.55 -1333.46 4508.6 -1101.58 4509.4 -1100.78 4741.64 -869.72 4741.64 -869.71 4742.45 -868.9 4976.31 -636.22 4977.12 -635.41 5209.36 -404.35 5210.17 -403.53 5444.02 -170.85 5444.84 -170.03 5444.84 -170.04 5677.07 61.03 5677.88 61.84 5678.7 62.65 5846.67 229.79 5862.23 229.75 5686.46 54.85 5685.63 54.04 5451.79 -178.65 5450.97 -179.45 5450.96 -179.45 5218.74 -410.52 5217.93 -411.33 4984.88 -643.21 4984.07 -644.02 4983.26 -644.82 4751.02 -875.89 4751.03 -875.89 4750.21 -876.7 4516.36 -1109.38 4515.54 -1110.19 4283.31 -1341.26 4282.49 -1342.06 4281.68 -1342.87 4049.45 -1573.94 4048.64 -1574.75 4047.83 -1575.55 3815.6 -1806.63 3814.78 -1807.43 3813.97 -1808.24"/><polygon class="cls-17" points="3852.75 -1847.22 3783.09 -1916.53 3767.54 -1916.49 3844.99 -1839.43 3845.8 -1838.61 3846.61 -1837.81 4078.85 -1606.73 4079.66 -1605.93 4080.48 -1605.11 4312.71 -1374.05 4313.52 -1373.24 4314.34 -1372.44 4546.57 -1141.37 4547.38 -1140.56 4548.19 -1139.75 4780.43 -908.68 4781.23 -907.87 4782.05 -907.07 5014.28 -676 5015.09 -675.19 5015.9 -674.38 5248.14 -443.32 5248.94 -442.5 5249.76 -441.7 5481.99 -210.63 5482.81 -209.82 5483.61 -209.01 5715.85 22.05 5716.66 22.86 5717.47 23.66 5924.43 229.59 5939.98 229.55 5725.23 15.87 5724.42 15.07 5723.61 14.25 5491.38 -216.81 5490.56 -217.62 5489.74 -218.43 5257.52 -449.5 5256.7 -450.3 5255.89 -451.11 5023.66 -682.18 5022.85 -682.99 5022.03 -683.79 4789.81 -914.87 4788.99 -915.67 4788.18 -916.48 4555.94 -1147.54 4555.14 -1148.36 4554.32 -1149.16 4322.1 -1380.23 4321.27 -1381.04 4320.47 -1381.84 4088.23 -1612.91 4087.42 -1613.73 4086.61 -1614.53 3854.37 -1845.61 3853.56 -1846.41 3852.75 -1847.22"/><polygon class="cls-18" points="3775.19 -1769.27 3627.59 -1916.13 3612.03 -1916.09 3767.43 -1761.47 3768.25 -1760.66 3769.06 -1759.86 4001.29 -1528.79 4002.1 -1527.98 4002.91 -1527.17 4235.14 -1296.11 4235.96 -1295.29 4236.77 -1294.48 4469 -1063.42 4469.81 -1062.61 4702.86 -830.73 4703.67 -829.92 4704.48 -829.11 4936.71 -598.04 4937.52 -597.24 4938.34 -596.43 5170.57 -365.36 5171.38 -364.55 5172.19 -363.75 5405.24 -131.87 5406.05 -131.06 5639.1 100.81 5639.91 101.63 5768.92 229.98 5784.48 229.94 5647.67 93.83 5646.86 93.02 5646.05 92.21 5413 -139.67 5412.18 -140.47 5179.95 -371.54 5179.14 -372.35 5178.32 -373.16 4946.1 -604.22 4945.28 -605.03 4944.47 -605.84 4712.24 -836.91 4711.43 -837.71 4478.39 -1069.6 4477.57 -1070.41 4244.52 -1302.28 4243.72 -1303.09 4242.9 -1303.9 4010.67 -1534.97 4009.86 -1535.78 4009.05 -1536.58 3776.81 -1767.65 3776.01 -1768.46 3775.19 -1769.27"/><polygon class="cls-19" points="3359.5 2732.85 3127.26 2501.79 3127.27 2501.78 3126.46 2500.98 2991.73 2366.93 2976.18 2366.97 3117.88 2507.96 3117.88 2507.97 3118.7 2508.78 3352.55 2741.45 3352.83 2741.73 3586.41 2974.14 3587.22 2974.95 3587.23 2974.95 3819.46 3206.02 3820.26 3206.83 3821.08 3207.64 4053.31 3438.71 4054.13 3439.51 4054.93 3440.32 4142.81 3527.76 4158.36 3527.72 4062.69 3432.52 4061.88 3431.72 4061.07 3430.91 3828.84 3199.84 3828.02 3199.03 3594.17 2966.34 3593.36 2965.54 3593.35 2965.54 3361.13 2734.47 3360.59 2733.93 3360.31 2733.66 3359.5 2732.85"/><polygon class="cls-20" points="3087.67 2539.95 3086.86 2539.15 2913.97 2367.13 2898.42 2367.16 3079.1 2546.95 3079.91 2547.75 3080.72 2548.56 3312.95 2779.63 3313.77 2780.44 3314.58 2781.24 3546.81 3012.31 3547.63 3013.12 3548.44 3013.92 3781.48 3245.8 3782.3 3246.61 4015.34 3478.49 4016.16 3479.3 4065.06 3527.95 4080.61 3527.91 4023.92 3471.5 4023.1 3470.69 4022.29 3469.89 3789.24 3238.01 3788.43 3237.2 3556.19 3006.13 3555.39 3005.32 3554.57 3004.51 3322.34 2773.45 3321.53 2772.64 3320.71 2771.83 3088.48 2540.76 3087.67 2539.95"/><polygon class="cls-21" points="6392.09 2195.01 6335.39 2138.6 6335.4 2138.6 6334.58 2137.79 6100.72 1905.11 6099.91 1904.3 5867.68 1673.23 5866.86 1672.42 5866.06 1671.62 5633.82 1440.55 5633.01 1439.74 5632.2 1438.93 5399.97 1207.87 5399.15 1207.05 5225.46 1034.23 5209.91 1034.27 5390.59 1214.05 5391.39 1214.85 5392.21 1215.66 5624.44 1446.73 5625.25 1447.54 5626.06 1448.35 5858.3 1679.42 5859.1 1680.22 5859.92 1681.03 6092.97 1912.91 6093.77 1913.71 6326.02 2144.78 6326.01 2144.78 6326.82 2145.59 6376.53 2195.05 6392.09 2195.01"/><polygon class="cls-22" points="6373.37 2098.81 6139.51 1866.13 6138.69 1865.31 6138.69 1865.32 5906.46 1634.25 5905.65 1633.44 5672.61 1401.57 5671.8 1400.76 5670.98 1399.95 5437.94 1168.08 5437.12 1167.27 5303.21 1034.03 5287.66 1034.07 5430.18 1175.87 5430.98 1176.68 5664.04 1408.55 5664.85 1409.37 5897.09 1640.43 5897.9 1641.23 6131.75 1873.93 6132.56 1874.74 6132.57 1874.73 6364.8 2105.81 6365.61 2106.61 6366.42 2107.42 6454.29 2194.86 6469.84 2194.82 6374.18 2099.63 6373.37 2098.81"/><polygon class="cls-23" points="1800.06 1026.11 1567.83 795.04 1567.83 795.04 1567.02 794.23 1489.18 716.78 1473.62 716.83 1558.44 801.21 1558.44 801.22 1559.26 802.04 1793.12 1034.71 1793.93 1035.52 2026.16 1266.59 2026.97 1267.4 2027.79 1268.2 2260.01 1499.27 2260.83 1500.08 2384.59 1623.22 2400.15 1623.18 2269.4 1493.09 2268.59 1492.28 2035.54 1260.41 2034.73 1259.6 2033.92 1258.79 1801.68 1027.72 1800.88 1026.91 1800.06 1026.11"/><polygon class="cls-24" points="1411.42 716.98 1395.87 717.02 1520.47 841.01 1521.29 841.82 1521.29 841.82 1753.52 1072.89 1754.33 1073.69 1755.14 1074.5 1987.38 1305.57 1988.18 1306.38 1989 1307.18 2222.04 1539.06 2222.86 1539.87 2306.83 1623.42 2322.39 1623.38 2229.8 1531.26 2228.99 1530.46 1996.76 1299.39 1995.94 1298.59 1995.13 1297.77 1762.89 1066.71 1762.09 1065.9 1528.23 833.21 1527.42 832.39 1527.42 832.4 1411.42 716.98"/><path class="cls-25" d="M4748.49,547l-71.18-70.82h0l-.8-.79L4550.19,349.72q-9.68-2.33-19.59-4l137.32,136.62h0l.8.79,83.84,83.38Q4750.88,556.65,4748.49,547Z"/><path class="cls-26" d="M4755.65,631.7,4638.5,515.14l-.79-.79-.79-.79L4465.48,343q-7.12.54-14.13,1.45l177.85,177,.79.79.79.8,123.47,122.85Q4755.14,638.81,4755.65,631.7Z"/><path class="cls-27" d="M4326.64,825.37h0l-66.18-65.86a271.52,271.52,0,0,0,64.74,69l.93.69c4.56,3.37,9.31,6.56,14.06,9.65l-12.71-12.65Z"/><path class="cls-28" d="M4220.47,657.67l137.22,136.52.79.79.79.79,82.89,82.47c5.95,1,11.94,1.82,18,2.41L4367,788l-.79-.79-.79-.79L4218,639.65C4218.6,645.72,4219.47,651.72,4220.47,657.67Z"/><path class="cls-29" d="M4400.71,356.09q-5.79,1.92-11.46,4.12l201.13,200.12.8.79.79.79L4738.77,708q2.14-5.67,4-11.47l-143.1-142.37-.79-.79-.79-.79Z"/><path class="cls-30" d="M4303.07,414.09c-2.66,2.5-5.33,5-7.91,7.62l217.7,216.61.79.79.79.79,163.37,162.56c2.59-2.61,5.1-5.28,7.58-8l-163.24-162.4-.79-.79-.79-.79Z"/><path class="cls-31" d="M4238.62,505c-1.59,3.65-3.06,7.35-4.48,11.07l201.08,200.12.8.79.79.79,146.76,146q5.63-2.16,11.08-4.53L4444.59,710l-.79-.79-.79-.79Z"/><path class="cls-32" d="M4347.45,380.69c-3.17,1.94-6.33,4-9.49,6.05l213.67,212.6.79.79.8.79,159.35,158.55c2-3.14,4.07-6.32,6-9.55L4560.94,593.09l-.8-.79-.79-.79Z"/><path class="cls-33" d="M4266.74,455.47q-3.26,4.53-6.32,9.23l213.66,212.59.79.79.79.79L4635,837.33c3.11-2,6.17-4.14,9.2-6.33L4483.38,671l-.79-.79-.79-.79Z"/><path class="cls-34" d="M4220.78,564.87q-1.17,6.71-2,13.5L4396.5,755.22l.79.79.79.79,123.39,122.79q6.79-.89,13.49-2.09L4405.82,749l-.8-.79-.79-.79Z"/><path class="cls-35" d="M924.68,1549.31c.08-5.11.21-10.21.21-15.32L731.64,1341.72l-.79-.79-.79-.79L497.62,1108.87l-.79-.79-.79-.79L263.81,876.22l-.79-.79-.8-.79L30,643.58l-.79-.79-.79-.79L-203.83,410.92l-.79-.79-.79-.79L-437.64,178.27l-.79-.79-.79-.79L-671.5-54.37l-.79-.8-.79-.79-18.45-18.38c-2.26,2.93-4.54,5.83-6.76,8.79l17.5,17.4.79.79.79.79L-447,184.5l.79.8.79.79,232.47,231.25.79.79.79.79L20.9,650l.79.8.79.79L254.71,882.63l.79.79.79.79,232.24,231.07.79.79.79.8,232.23,231.07.79.79.79.79Z"/><path class="cls-36" d="M840.18,1232.55l69.52,69.17c-.79-6-1.48-11.94-2.37-17.88l-59.39-59.08-.79-.79-.79-.8L614.13,992.1l-.79-.79-.79-.79L380.27,759.39l-.79-.79-.79-.79L146.34,526.64l-.79-.79-.8-.79L-87.48,294l-.79-.79-.79-.79L-321.29,61.35l-.8-.79-.79-.79L-555.11-171.32l-.79-.79-.79-.79-17.13-17c-2.94,2.13-5.91,4.44-8.87,6.68l18.24,18.15.79.79.79.79L-330.46,67.68l.79.79.79.8L-96.65,300.34l.8.79.79.79L137.17,533l.79.79.79.79L371,765.64l.79.79.79.8,232.3,231.11.79.79.79.79L838.67,1231l.79.79Z"/><path class="cls-37" d="M879,1193.57l15,15q-1.93-9.76-4-19.49l-3.27-3.25L886,1185l-.79-.8L652.11,952.32l-.79-.79L419.07,720.44l-.79-.79L184.34,486.89l-.79-.79h0L-48.68,255l-.79-.79-233-231.89-.79-.79-.79-.79-232.09-231L-517-211l-.79-.79-7.61-7.56c-3.39,1.65-6.78,3.55-10.17,5.39l10,10,.79.79.79.79L-291.72,28.68l.79.79.79.79L-57.9,261.33l.79.79,233.85,232.7.79.79h0L409.77,726.69l.79.79.79.79,233,231.88.79.79,233,231.87Z"/><path class="cls-38" d="M801.35,1271.47l117.94,117.36c-.45-5.7-1-11.4-1.58-17.1l-109.4-108.86-.79-.8h0L575.29,1031l-.79-.79-233-231.88-.79-.79-.79-.79L107.64,565.68l-.79-.79-.79-.79-233-231.81-.79-.79L-359.93,100.44l-.79-.79-.79-.79L-593.74-132.22l-.79-.79-.79-.79L-616.68-155c-2.74,2.44-5.51,4.85-8.2,7.35L-603.11-126l.79.79.79.79L-369.3,106.65l.79.79.79.79,233.05,231.88.79.79L99.17,572.78l.79.79L332.2,804.64l.79.79.79.79,232.28,231.09.79.79L800.7,1270.78l.79.79Z"/><path class="cls-39" d="M761.76,1309.62,924,1471.06c-.17-5.33-.25-10.66-.47-16L770.33,1302.64h0l-.79-.79L535.68,1069.16l-.79-.79L302.65,837.31l-.79-.79-.79-.8L68.84,604.66l-.79-.79L-165.8,371.18l-.79-.79h0L-398.87,139.33l-.79-.79-233-231.88-.79-.79-.79-.79-21.77-21.66c-2.48,2.68-4.89,5.48-7.33,8.22L-642-87.12l.79.79.79.79,232.23,231.06.79.8,234,232.77.79.79h0L59.57,611l.8.79.79.79L293.39,843.59l.79.8.79.79,233.08,231.9.79.79,232.24,231.06h0Z"/><path class="cls-40" d="M684,922l186.67,185.71c-2-7.25-4.09-14.43-6.15-21.64L691.65,914.08l-.79-.79-.79-.79L457.84,681.43l-.79-.79-.8-.79L223.94,448.71l-.79-.79-.79-.79L-9.87,216.06h0l-.8-.79L-244.53-17.4l-.79-.79-220.84-219.7c-4.46.58-8.9,1.27-13.34,2.24L-252.21-9.51l.79.79L-19.18,222.35h0l.79.79L215.48,455.81l.79.79,232.3,231.1.79.79.79.79L682.37,920.35l.79.79Z"/><path class="cls-41" d="M722.75,883,835.67,995.35c-2.9-8.23-6-16.37-9-24.52l-96.21-95.7-.79-.79-.79-.79L496.61,642.49l-.79-.79-.79-.8L262.7,409.74l-.79-.79-.79-.79L28.88,177.08l-.79-.79-.79-.79L-204.93-55.57l-.79-.79L-372.11-222a202.19,202.19,0,0,0-25.51-9.87L-214.11-49.24l.79.79.8.79L19.71,183.41l.79.79.79.79L253.52,416.06l.8.79.79.79L487.34,648.71l.79.79.79.79L721.16,881.36l.79.8Z"/><path class="cls-42" d="M760.74,843.2l21.35,21.25c-4.33-9.31-8.63-18.62-13.17-27.84l-.55-1.08c-.09-.18-.18-.36-.28-.54L534.64,602.72,300.74,370l-.79-.79h0l-232.12-231-.79-.79L-153-81.45l-15.62-10.39-1-.64q-15.12-10-30.25-20.06l24.42,24.3.79.79.79.79L58.43,144.4l.79.79L293.07,377.88l.8.79h0L526.09,609.74l.79.79.79.79L759.91,842.39h0Z"/><path class="cls-43" d="M566.46,572.34,687.79,693.06q-14.85-23.14-30.36-45.73l-83.24-82.82-.79-.79-.79-.79L340.32,331.83l-.79-.8-.79-.79L113.12,105.76c-2.5-1.88-5-3.78-7.49-5.65l-.93-.69Q78.87,80.18,52.77,61.24L98,106.2l.79.79L331,338.09l.79.79.79.79L564.86,570.74l.79.79Z"/><path class="cls-44" d="M-901,2044.09-1099.15,1847l2.37,17.87L-908,2052.7l.79.79h0l233.05,231.88.79.79,233,231.77h0l233,231.88.79.79.8.79L26.48,2982.47l.79.79.79.79,58.32,58c.49-.6,1-1.23,1.46-1.84,1.82-2.27,3.71-4.47,5.53-6.72l-57.54-57.25-.79-.79-.79-.8L-198,2743.61l-.79-.79-233-231.88-.79-.79h0l-.79-.79-233.05-231.88-.79-.79-233-231.88-.79-.79Z"/><path class="cls-45" d="M-939.82,2083-1086,1937.54c1,6.15,2,12.31,3,18.47l135.48,134.81.8.79.79.79,232.23,231.07.79.79.79.79,232.23,231.07.79.79.79.79,233,231.88.79.79L-12.3,3021.44h0l.79.79,64.32,64c2.18-3,4.34-6,6.55-9l-62.3-62h0l-.79-.79-233.86-232.68-.79-.79-232.24-231.07-.79-.8-.79-.79-232.23-231.07-.79-.79-.8-.79L-938.25,2084.6l-.79-.79Z"/><path class="cls-46" d="M-978.56,2122l-90.9-90.44c1.25,6.47,2.6,12.92,3.89,19.39l79.25,78.85.79.79.8.79,232.23,231.07.79.79,233,231.88.79.79.79.79,232.24,231.07.79.79.79.79L-51,3060.42l.79.8.79.79,70.4,70.08q3.06-4.68,6.23-9.32l-68.91-68.56-.79-.79-.79-.79-232.23-231.08-.79-.79-.79-.79-232.24-231.06-.79-.79-233-231.88-.79-.79-233-231.88-.79-.79Z"/><path class="cls-47" d="M-1095.94,1772.51l-12.86-12.8q.84,8.63,1.74,17.25l3.36,3.35.79.79.79.79L-869.88,2013l.79.79.79.79,232.22,231.07.79.79,233,231.88.79.8.79.79,232.22,231.06.79.79.8.79L65.32,2943.56l.79.79.8.79,54.71,54.44c2.38-2.79,4.85-5.54,7.22-8.33l-54.18-53.9-.79-.79-.79-.79-232.24-231.08-.79-.79-.79-.79L-393,2472l-.8-.79-233.12-232-.79-.79-233.05-231.87-.79-.8-.79-.79L-1094.55,1774l-.79-.79Z"/><path class="cls-48" d="M-1018.58,1694.38l-102-101.51c.23,5.41.44,10.81.7,16.2l94.38,94,.79.8,232.24,231.06h0l.79.79,233.86,232.69.79.79L-324,2401h0l233.85,232.68.79.79h0l232.23,231.07.79.79.79.79,50.72,50.46q3.77-4,7.54-8l-50.5-50.24-.79-.79-233.85-232.7-.8-.79h0L-315.49,2394l-.79-.79h0l-.79-.79-233-231.87-.79-.79-232.23-231.07h0l-.8-.79-233.83-232.68Z"/><path class="cls-49" d="M-902.24,1577.51l-219-218q-.29,7.53-.5,15l212.6,211.54.79.8,233.1,231.85,233.85,232.69.79.79h0l232.18,231.07.79.79.28.27.54.54,233,231.87h0l233.05,231.88.79.79.79.79,49.74,49.49q3.88-3.89,7.8-7.75l-49.78-49.53-.79-.79-233-231.88L34,2509h0l-.79-.79-232.82-231.65-.27-.27-233.86-232.69-.79-.79h0l-232.23-231.07-.79-.79-.79-.79L-901.44,1578.3Z"/><path class="cls-50" d="M-941,1616.47l-182-181.14c0,5.1-.22,10.2-.22,15.3l174.56,173.7.8.79.79.79L-714.89,1857l.79.79.79.79,232.24,231.07.79.79.79.79,233.05,231.88.79.79L-13.41,2555h0l.79.79,233.86,232.68.27.27,50.19,49.93c2.59-2.6,5.15-5.21,7.75-7.81l-49.63-49.38-.55-.54-.27-.27-.79-.79L-4,2548.77h0l-.79-.79-234-232.74-.79-.79-232.23-231.07-.79-.79-.79-.79-232.24-231.07-.79-.79-.79-.79-232.22-231.09-.79-.79Z"/><path class="cls-51" d="M-979.68,1655.55l-143.17-142.46c.08,5.3.27,10.59.38,15.89l135.05,134.37.79.79.8.79L-753.6,1896l.79.8.79.79,232.24,231.07.79.79.79.79L-286,2361.3l.79.79L-52.1,2594l.79.79.79.79,232.24,231.07.79.79.79.79,49.92,49.67c2.55-2.64,5.09-5.28,7.65-7.91L191,2820.42l-.79-.79-.8-.79L-42.78,2587.77l-.79-.79-233.11-231.89-.79-.79-233-231.88-.8-.79-.79-.79L-744.39,1889.7l-.79-.79-.79-.79L-978.2,1657l-.79-.79Z"/><path class="cls-52" d="M-1057.24,1733.53-1116,1675c.38,5.58.8,11.15,1.21,16.73l49.84,49.55.79.79.79.79L-831.15,1974l.79.8.79.79,232.24,231.06.79.79.79.79,232.23,231.07.79.79.8.79,233,231.88.79.79L105,2905.38l.27.28,52.8,52.53c2.45-2.73,4.93-5.44,7.39-8.15l-51.89-51.64-.54-.54-.28-.27-.79-.79-233.18-232-.79-.79L-354.28,2433l-.79-.79-.79-.79-232.23-231.06-.79-.8-.79-.79L-821.9,1967.66l-.79-.79-.79-.79L-1055.77,1735l-.79-.79Z"/><path class="cls-53" d="M-941.3,1150.77-1087.77,1005c-.69,4.51-1.32,9-2,13.53l139.9,139.22.79.79,233,231.88.79.8.79.79,232.24,231.07.79.79.79.79,233.05,231.88.79.79,232.24,231.06h0l.79.79L220.1,2321.88l.8.79,232.22,231.07.79.79.79.79,48.52,48.25c2.49-2.69,5-5.37,7.48-8.08l-48.25-48-.79-.79-.79-.79L228.63,2314.85l-.79-.79-.79-.79L-5.18,2082.21h0l-.79-.79-233.87-232.68-.79-.79-232.28-231.1-.79-.79-.79-.79L-706.72,1384.2l-.79-.79-233-231.88Z"/><path class="cls-54" d="M-825.07,1033.8l-226.08-224.89c-.93,4.22-1.93,8.43-2.85,12.66l220.34,219.24.79.79L-599,1274.29l.79.79h0L-366,1506.15l.79.79.79.79,233.05,231.88.79.79,233.06,231.88.79.79,232.23,231.07.79.79.79.79,232.24,231.07.79.79.79.79,39.17,39c2.26-2.93,4.45-5.92,6.68-8.87l-38.09-37.9-.79-.79-.79-.79L344.85,2197.92l-.79-.79-.79-.8L111,1965.26l-.79-.79-.79-.79-233-231.88-.79-.79L-356.61,1500l-.79-.79-233.86-232.7-.79-.79h0L-824.28,1034.6Z"/><path class="cls-55" d="M-1097.14,1306l-20.51-20.41c-.32,4.92-.52,9.84-.79,14.75l13.52,13.44.79.8.79.79,232.24,231.07.79.79.79.79L-637.29,1779l.8.79.79.8,232.23,231.07.79.79.79.79,232.32,231.17.79.79,233,231.88.8.79.79.79,232.23,231.07.79.79.79.79,50,49.74,7.81-7.76-50.17-49.87-.79-.79-.79-.79L73.47,2470.8l-.79-.79-233-231.89-.79-.79-233-231.88-.79-.79-.79-.79L-628,1772.81l-.79-.79-.8-.79L-861.9,1540.08l-.79-.8-.8-.79-232.23-231.07-.79-.79Z"/><path class="cls-56" d="M-1058.41,1267l-54-53.78c-.41,4.78-.82,9.57-1.2,14.31l48.3,48.06.79.79h0l232.22,231.07.79.79.79.79,232.23,231.06.79.8.79.79,232.23,231.06.79.79.79.79,233.05,231.85.79.79,233.05,231.88.79.79,232.23,231.06.79.79.79.79,50.19,49.92,7.76-7.77-50.19-49.95-.79-.79-.79-.79L112.31,2431.81l-.79-.79-.79-.79-233.06-231.87-.79-.79-232.35-231.15-.79-.79-.8-.79-232.23-231.07-.79-.79-.79-.79L-823.1,1501.12l-.8-.79-233.85-232.69-.79-.8Z"/><path class="cls-57" d="M-864.62,1072l-199.74-198.76c-.86,4.31-1.74,8.63-2.58,12.94l194.8,193.8.8.79.79.79,232.23,231.06.79.79.79.79,232.24,231.07.79.79.79.79,232.23,231.07.79.79.79.79L63.13,2010.56l.79.79.79.8,232.23,231.07.79.79,233,231.88.54.53.28.27.79.79,43.55,43.33c2.35-2.84,4.63-5.73,7-8.59l-43.79-43.49-.27-.27L306.06,2236.85l-.79-.79-233-231.89-.79-.79-.79-.79-232.23-231.06-.8-.79-.79-.8-232.23-231.06-.79-.79-.79-.79-232.24-231.07-.79-.79-.79-.79L-863,1073.57l-.8-.79Z"/><path class="cls-58" d="M-1019.75,1227.91l-86-85.55c-.5,4.67-1,9.32-1.53,14l80.57,80.17.79.79,232.27,231.09h0l.79.79L-559,1701.87l.79.79,232.24,231.07.79.8,233.09,231.92.8.79.27.28.54.54,233.05,231.87h0l233.85,232.68.79.79h0l50,49.72c2.56-2.61,5.14-5.22,7.71-7.83l-50.89-50.63-.79-.79h0L151,2392.8l-.79-.79h0l-.8-.79-232.77-231.6-.27-.27-233-231.89-.79-.79-233-231.88-.8-.79-.79-.79L-784.3,1462.15h0l-.79-.79-233.86-232.68Z"/><path class="cls-59" d="M-903.28,1111.07l-173.51-172.64c-.78,4.43-1.43,8.87-2.22,13.3l168.79,167.94.79.79,233,231.88.79.79,232.23,231.07.79.79.79.79,232.24,231.06.79.79L25.1,2050.33l.79.79h0l232.24,231.07.79.79.27.27.54.54,232.86,231.72h0l47.46,47.19c2.44-2.76,4.81-5.6,7.18-8.37l-46-45.8-.8-.79h0l-.79-.79-232.77-231.6-.27-.27L32.73,2042.39l-.79-.79h0L-200.3,1810.53l-.79-.79-233-231.88-.79-.79-.79-.79-232.23-231.07-.79-.79-.79-.79-233.05-231.87Z"/><path class="cls-60" d="M-980.91,1189l-116.5-115.93q-.9,6.89-1.76,13.76l110.5,109.94.79.79.8.79,232.22,231.08.79.79.79.79L-521,1662.07l.79.79.79.79,232.23,231.07.79.79.8.79,232.23,231.07.79.79.79.79L180.4,2360l.8.79,233,231.88.79.79.79.79,49.63,49.39c2.54-2.62,5.1-5.25,7.62-7.91l-49.49-49.25-.79-.79-233-231.88L189,2353l-233-231.88-.79-.79-.8-.79L-277.91,1888.5l-.79-.79-.79-.79-232.24-231.08-.79-.79-.79-.79-232.23-231.07-.79-.79-.79-.79-232.26-231.12-.79-.79Z"/><path class="cls-61" d="M-864.74,606.43l-102-101.55c-1.3,3.89-2.55,7.8-3.83,11.7l97.29,96.85.8.79.79.79L-639.5,846.08l.79.79.79.79,232.24,231.06.79.79.79.8,232.23,231.06.79.79.79.79L62,1544l.79.79.79.79,232.23,231.08.79.79.8.79,233,231.84.79.8,228.44,227.28c1.73-3.48,3.34-7,5-10.5L538.07,2002.3l-.79-.79L305.05,1770.43l-.79-.79-.79-.79L71.05,1537.65l-.79-.79-.79-.79L-162.76,1305l-.79-.79-.79-.79-232.23-231.07-.79-.79-.79-.79L-630.37,839.7l-.79-.8-.8-.79L-864.18,607Z"/><path class="cls-62" d="M-981.34,723.17l-39.24-39.12c-1.09,4.09-2.19,8.18-3.26,12.28l34,33.86.79.79.79.79L-756,962.84l.79.79.79.79,232.49,231.22.79.79.79.79,232.23,231.07.79.79.79.79L-54.31,1661l.79.79.79.79L179.5,1893.59l.79.79.79.79L413.3,2126.24l.79.8.8.79,233,231.88.8.79,26.1,26c2.07-3.13,4-6.33,6-9.49l-25.2-25.07-.79-.79-232.3-231.09-.79-.79-.8-.79L188.66,1887.33l-.79-.79-.79-.8L-45.15,1654.67l-.79-.79-.79-.79-232.35-231.18-.79-.79-.79-.79L-512.9,1189.26l-.79-.79-.79-.8L-746.71,956.61l-.79-.79-.79-.79L-980.53,724Z"/><path class="cls-63" d="M-787.28,528.45-926.17,390.26c-1.42,3.77-2.78,7.57-4.19,11.34l134.51,133.84h0l.79.79,233.87,232.68.79.79,232.23,231.07.79.79.79.79,232.24,231.08.79.79.79.79,232.23,231.07.8.79.79.79,232.23,231.06.79.8.79.79,232.24,231,.79.79,199.9,198.91c1.51-3.71,2.9-7.46,4.37-11.17L616.45,1925.14l-.79-.79-233-231.87-.79-.8-.79-.79L148.71,1459.76l-.79-.79-.79-.79L-85.1,1227.11l-.79-.8-.79-.79L-319,994.38l-.79-.79-.79-.79L-552.8,761.74l-.79-.8-.79-.79L-786.62,529.09h0Z"/><path class="cls-64" d="M-515.93,255.46-749,23.58l-.79-.79-.79-.79-3.35-3.33q-2.9,4.89-5.73,9.81l1.32,1.31.79.8.79.79,232.24,231.07.79.79,234,232.76.79.79h0L-56.73,727.86l.79.79.79.79L177.08,960.51l.79.79.8.79L410.9,1193.16l.79.79.79.79,233,231.88.79.79,233.06,231.88.79.79L916,1695.73c.5-4.72.92-9.41,1.37-14.15l-29.44-29.27-.79-.79-.79-.79L653.29,1418.86l-.79-.79L420.16,1186.89l-.79-.79-.79-.79L186.35,954.24l-.8-.79-.79-.79L-47.47,721.59l-.79-.8L-282.14,488.12l-.79-.79h0L-515.16,256.25Z"/><path class="cls-65" d="M-943.22,683.45l-60.47-60.17q-1.74,6-3.45,12.09L-951,691.25l.8.79.79.79L-717.17,923.9l.79.79.79.8,232.23,231.07.79.79,233.17,232,.79.8.79.79L-15.58,1622h0l.79.79L219.07,1855.5l.79.79,232.23,231.06.8.79.79.79L685.91,2320l.79.79.79.79,17.21,17.12c1.95-3.26,3.78-6.57,5.71-9.84l-15.2-15.12-.79-.79-.79-.79L461.21,2081l-.79-.8-.79-.79L227.4,1848.3l-.79-.79-.79-.79L-6.43,1615.65h0l-.79-.79-233.86-232.67-233-231.89-.79-.79-233-231.88-.79-.79-.8-.79L-941.77,685l-.79-.79Z"/><path class="cls-66" d="M-1020.77,761.51l-15.51-15.44c-1,4.16-2.07,8.3-3.06,12.47l11.62,11.57.79.79L-794.69,1002h0l.79.79L-560,1235.43l.79.79L-327,1467.29l.79.79.79.79L-93.2,1699.94l.79.79.8.79,232.23,231.07.79.79,233,231.79.79.79.28.28.54.54,233.05,231.87h0l34.23,34.06c2.12-3,4.19-6.13,6.33-9.19l-32-31.87-.79-.79h0l-.79-.79-232.77-231.6-.28-.27-233-231.89-.79-.79-233-231.87-.79-.8-.79-.79L-317.83,1460.9l-.79-.79-.79-.79-232.24-231.07-.79-.79-.79-.79L-785.47,995.61h0l-.79-.79-233.86-232.68Z"/><path class="cls-67" d="M-904.43,644.57l-81.37-81c-1.24,3.95-2.43,7.91-3.65,11.86l78.07,77.68.79.79,233.06,231.88.79.79,232.23,231.06.8.79.79.79,232.23,231.07.79.79.79.79L23.13,1583l.79.79.79.79L257,1815.66l.79.79,233.85,232.7.79.79h0L724.63,2281l.79.79.27.27.54.54,6.71,6.67c1.84-3.37,3.56-6.79,5.37-10.17l-4.32-4.3-.54-.54-.27-.27-234-232.84-.79-.79h0L266.14,1809.29l-.79-.79-233-231.88-.79-.79-.79-.79L-201.52,1344l-.79-.79-.79-.79-232.23-231.07-.79-.79-.79-.79L-669.15,878.67l-.79-.79-.79-.79L-903.79,645.22Z"/><path class="cls-68" d="M-632.91,371.79-833.44,172.26c-1.67,3.5-3.27,7.09-4.92,10.62L-639.82,380.4l.79.79h0l232.22,231.08.79.79.79.79L-173,844.92l.79.79.79.79L60.81,1077.56l.79.79.79.79,232.23,231.07.79.8.79.79,233,231.87.79.8,232.23,231.06h0l.8.79L882.38,1895c1-4.24,2-8.44,2.9-12.66L771.62,1769.27h0l-.79-.79-234-232.77-.79-.79L303.84,1303.85l-.79-.79-.79-.79L70,1071.2l-.79-.79-.79-.79L-163.8,838.52l-.79-.79-.79-.79L-397.7,605.84l-.79-.79L-632.33,372.36l-.8-.8Z"/><path class="cls-69" d="M-749.5,488.5l-155-154.29c-1.49,3.71-2.9,7.44-4.38,11.16L-756.27,497.2l.79.79h0l232.22,231.07.79.79.8.79,232.23,231.07.79.79.79.8,232.23,231.07.8.79.79.79L178.19,1427l.79.79.79.79L412,1659.67l.79.79.79.79,233.05,231.88.79.79,181.81,180.89c1.38-3.82,2.66-7.68,4-11.51l-178.87-178-.79-.8L421.36,1653.47l-.8-.79-.79-.79L187.54,1420.82l-.79-.79-.79-.79L-46.39,1188.05l-.8-.79-.79-.79L-280.21,955.4l-.79-.79-.79-.79L-514,722.76l-.79-.8L-748.67,489.28l-.79-.79Z"/><path class="cls-70" d="M-710.69,449.49l-170.86-170c-1.56,3.64-3,7.33-4.56,11l167.92,167.08.79.79.79.8,232.23,231.07.79.79.79.79,233,231.88.79.79,232.24,231.06h0l.79.79,233.05,231.88.79.79.79.79,232.23,231.07.79.79.8.79,232.23,231.07.79.79.79.79L849,2016.88c1.29-4,2.44-7.91,3.66-11.87L693.86,1847.07l-.79-.8-.79-.79L460,1614.42l-.79-.79-.79-.79L226.23,1381.77l-.79-.79-.8-.79L-7.59,1149.11h0l-.79-.79L-242.24,915.64l-.79-.79L-475.27,683.78l-.79-.8-.79-.79L-709.08,451.12l-.8-.79Z"/><path class="cls-71" d="M-671.62,410.73-857.91,225.39c-1.63,3.58-3.17,7.21-4.75,10.81l184.07,183.13.79.79L-445.56,651.2l.79.79.79.79,232.23,231.06.79.79.79.79L22.07,1116.49l.79.79.79.79,232.23,231.07.79.79.79.79L489.7,1581.79l.79.79.79.79,232.23,231.08.79.79,142.38,141.69c1.12-4.07,2.2-8.16,3.29-12.24L732.84,1808.24l-.79-.79L498.78,1575.39l-.79-.79-.8-.79L265,1342.75l-.79-.79-.79-.79L31.15,1110.1l-.8-.79-.79-.79L-202.67,877.45l-.79-.79-.79-.79L-436.49,644.8l-.79-.8-.79-.79L-670.3,412.14l-.79-.79Z"/><path class="cls-72" d="M-827,566.54-947.11,447c-1.36,3.84-2.66,7.69-4,11.53l116.4,115.81.79.8.8.79L-600.9,807l.79.79.79.79,232.24,231.07.79.79,234,232.77.79.79h0l232.23,231.07.79.79.8.79L334.52,1737.7l.79.79.79.8,232.33,231.08.79.79.79.79,214.62,213.56c1.62-3.59,3.13-7.23,4.71-10.82L577.53,1964l-.79-.79-.79-.79L343.71,1731.32l-.79-.79-.79-.79L109.9,1498.68l-.79-.8-.8-.79-233-231.87-.8-.8h0l-232.22-231.07-.79-.79-233-231.88-.79-.79-.79-.79L-825.43,568.05l-.79-.79Z"/><path class="cls-73" d="M-478,215.68-710.21-15.38l-.79-.79-.79-.79L-724-29.12c-2.08,3.12-4.11,6.24-6.15,9.4l10.61,10.56.79.79.79.79,232.24,231.07.79.79.79.79,233.06,231.87.79.79L-18.06,688.79h0l.79.79L216.59,922.26l.79.79,232.24,231.07.79.79L683.46,1386.8l.79.79.79.79,232.23,231.07.79.79.8.79,2.95,3c.13-2.08.19-4.15.31-6.23,0-.57.09-1.14.09-1.71.13-2.28.21-4.57.33-6.86L692.76,1380.59l-.79-.79-233-231.88-.79-.79-233-231.88-.8-.79-.79-.79L-8.72,682.61h0l-.79-.8L-243.37,449.13l-.8-.79L-476.4,217.27l-.79-.79Z"/><path class="cls-74" d="M-555.56,293.66-781.83,68.46q-2.73,5.06-5.39,10.15l224.76,223.62.79.8,232.25,231.09.79.79.79.79L-95.44,767l.8.79.79.79L138.37,999.63l.79.79.79.79,232.23,231.06.79.79.79.79L606,1464.92l.79.79.79.79,232.23,231.06.79.79.79.79,65.78,65.46c.67-4.5,1.47-9,2.1-13.45l-60.12-59.81-.79-.79-.79-.8L615.32,1458.62l-.79-.79-.79-.79-232.4-231.17-.79-.79-.79-.79L147.53,993.22l-.79-.79-.79-.79L-86.28,760.56l-.8-.79-.79-.79L-320.15,527.89l-.79-.79-.79-.79L-554,295.24l-.79-.79Z"/><path class="cls-75" d="M-594.21,332.78-808.13,119.92l-.79,1.58c-1.46,2.94-2.84,5.9-4.29,8.84l211.27,210.2.8.79.79.79,232.23,231.07.79.79.79.79,233.05,231.89.79.79,233.06,231.87L334.21,1272l.79.79h0l232.22,231.07.79.79.79.79,232.28,231.07.79.79.79.79,93.28,92.81c.83-4.31,1.73-8.67,2.52-13l-88.08-87.62-.79-.79-.79-.79L576.56,1497.62l-.79-.8-233.9-232.7-.79-.79h0L108.8,1032.2l-.79-.79-.79-.79-233-231.87-.79-.8L-358.94,566.84l-.79-.79-.79-.8L-592.75,334.19l-.79-.79Z"/><path class="cls-76" d="M9657.26,925.11c.07-5.18-.05-10.37-.05-15.57l-41.43-41.22-.8-.79-.79-.79L9382,635.67l-.79-.79-.79-.79L9148.14,403l-.79-.79-233-231.88-.79-.79L8680.43-62.36l-.79-.79-.79-.8L8445.74-295.88l-.79-.79L8212.71-527.73l-.79-.79-.79-.79-232.27-231.1-.79-.79-.79-.79L7745-993.09l-.79-.8-.79-.79-209.94-208.88c-5.94-.82-11.91-1.46-17.86-2.26l220.13,219,.79.79.79.8,232.23,231.06.79.79.8.79,232.27,231.1.79.79.79.79L8438.09-288l.79.79L8671.93-55.32l.79.79L8905,176.59l.79.8,233.17,231.94.79.8.79.79L9372.74,642l.8.79.79.79,232.23,231.07.79.79.79.79Z"/><path class="cls-77" d="M9646,836.37l9.86,9.8c-.23-5.39-.38-10.79-.66-16.17l-.63-.63-.79-.79L9420.74,596.7l-.79-.79-.79-.79L9186.93,364.06l-.8-.79-.79-.79L8953.07,131.35l-.79-.79-.79-.79L8719.15-101.41l-.79-.79-.79-.79L8485.33-334.06l-.79-.79-.79-.79L8251.52-566.7l-.79-.8-.79-.79L8017.65-799.38l-.79-.79-.79-.79L7783.81-1032h0l-.79-.79-157-156.2c-6.28-1.09-12.61-2.28-18.94-3.33l167.36,166.53h0l.79.79,233.87,232.67.79.8L8242.4-560.31l.79.79.79.79,232.23,231.07.8.79.79.79L8710-95l.79.79.79.79,232.24,231.07.79.79.79.79,232.23,231.06.79.79.79.8,232.24,231.07.79.79.79.79,232.23,231.09Z"/><path class="cls-78" d="M9490.54,526.57,9639.75,675c-.91-6.17-2-12.31-3-18.47L9498.3,518.77l-.79-.79-233.85-232.7-.79-.79h0L9030.64,53.41l-.79-.79L8796.78-179.29l-.79-.79-.79-.79L8562.94-412h0l-.79-.79-233.91-232.7-.79-.79L8095.2-877.34l-.79-.79-.8-.79L7861.4-1110l-.79-.8-.79-.79-35.32-35.14c-6.95-1.76-13.89-3.54-20.85-5.24l48.42,48.18.79.79.79.79L8085.94-871l.79.79.79.79,233,231.88.79.79L8553.6-405.74h0l.79.79,233.88,232.72.79.79L9021.37,59.65l.79.8L9256,293.14l.79.79h0L9489,525l.79.79Z"/><path class="cls-79" d="M9568.24,448.65l30.85,30.71c-1.93-7.21-4-14.36-6.06-21.55l-17.12-17-.79-.79-.79-.79L9342,208.12h0l-.79-.8-233-231.87-.79-.79-.79-.8L8874.35-257.22l-.79-.79-233.88-232.7-.79-.8h0L8406.64-722.59l-.79-.79L8172.76-955.31l-.79-.79-.79-.79-123.55-122.93c-7.95-2.76-15.89-5.53-23.86-8.22l139.76,139,.79.79.79.79,232.24,231.07.79.79L8632-482.88l.8.79h0L8865.06-251l.79.79.79.79,233,231.88.79.79,232.26,231.08h0l.79.8,233.86,232.67Z"/><path class="cls-80" d="M9529.26,487.59,9623,580.81c-1.36-6.63-2.8-13.2-4.24-19.77L9537,479.75l-.79-.79-.8-.79L9303.21,247.1l-.79-.8-.79-.79L9069.4,14.44l-.79-.79-.79-.79L8835.55-218.27l-.79-.79-.79-.79L8601.58-451l-.79-.79-.79-.79L8367.76-683.68l-.79-.79-.79-.8L8134-916.34l-.79-.79-.8-.79-200.12-199.15c-7.45-2.23-14.87-4.56-22.33-6.72l214.78,213.73.79.79.79.79,232.36,231.14.79.79.79.79,232.22,231.07.8.79.79.79L8826.26-212l.79.79.79.79L9060.15,20.67l.79.79.8.79L9294,253.32l.79.79.79.79L9527.81,486l.79.79Z"/><path class="cls-81" d="M9451,564.65,9650.32,763c-.55-5.78-1.19-11.54-1.79-17.29L9459.48,557.67h0l-.79-.79L9224.83,324.2l-.79-.79L8991.8,92.35l-.79-.79-.79-.8L8758-140.31l-.79-.79-.79-.79L8524.16-373l-.79-.79L8290.28-605.69l-.79-.79L8056.38-838.41l-.79-.79-.79-.79L7822.57-1071l-.79-.8-.8-.79-98.37-97.87c-6.49-1.41-13-2.63-19.53-4l110.24,109.7.79.79.79.79,232.23,231.07.79.79.79.79L8281-599.42l.79.79,233,231.89.79.79.79.79L8748.77-134l.79.79.79.79L8982.57,98.65l.79.79.8.79,233,231.87.79.79L9450.22,564h0Z"/><path class="cls-82" d="M9372.23,176.12l192.93,192q-4-11.85-8.16-23.64L9380.8,169.14l-.79-.8L9147-63.53l-.79-.79-.79-.8-232.27-231.1-.79-.79-.79-.79L8679.26-528.9l-.79-.79-.79-.8L8444.63-762.38l-.79-.79L8211.61-994.23l-.8-.79-.79-.8-36.94-36.75c-8.73-3.54-17.44-7.13-26.21-10.57L8202.24-988l.79.79.79.79,233.07,231.92.8.79,233,231.88.79.79,232.33,231.13.79.79.79.79L9137.68-57.28l.79.79.79.79,232.23,231.06Z"/><path class="cls-83" d="M6535.08,223l233.1,231.9.79.79L6852,538.35c11.52,6.56,23.1,13,34.81,19.11L6775.82,447l-.79-.79L6542.8,215.16l-.8-.79-.79-.79-87.35-86.93c6.24,11.75,12.76,23.35,19.44,34.85l60.19,59.9.79.79Z"/><path class="cls-84" d="M6402.13,13.14l170.12,169.28.79.79,233.09,231.91.79.8.79.79,195.38,194.38c8.44,3.41,17,6.61,25.51,9.87L6815.46,408.89l-.79-.79L6581.61,176.2l-.79-.79L6393.05-11.42Q6397.45.93,6402.13,13.14Z"/><path class="cls-85" d="M6378.89-87.53l232.23,231.07.79.79.79.79,232.24,231.06.79.8.79.79,232.23,231.06.79.79.79.79,44.35,44.12c7.51,2.38,15.07,4.69,22.62,7l-59.23-58.95-.79-.79-.79-.79L6854.22,369.9l-.8-.79-.79-.8-232.27-231.1-.79-.79-.79-.79L6386.5-95.51l-.79-.79-.79-.79L6361-120.9c1.58,6.86,3.29,13.7,5,20.51l11.2,11.15.79.79Z"/><path class="cls-86" d="M6540.86-252.12l-199.45-198.5c-.49,4.71-1,9.37-1.4,14.12l192.34,191.38.79.79.79.79L6767-11.66l.79.79L7000,220.23h0l.79.79,233.93,232.76.79.79,232.23,231.07.79.79.79.79,70.57,70.22,20.1,4.49-82.95-82.57-.79-.79-.79-.79-232.3-231.13-.79-.79-.79-.79L7009.37,214h0l-.79-.79L6775.48-18.69l-.79-.79-.79-.79L6541.66-251.33Z"/><path class="cls-87" d="M7316.56-1031.6l-196-195c-5.07.13-10.14.2-15.23.36L7308-1024.61l.79.79.79.79,233,231.88.79.79,232.24,231.07h0l.79.79,233.84,232.69.79.79,232.31,231.1.79.79.79.79,232.32,231.15.8.79.79.79,232.22,231.06.79.8.79.79L8945,604.18l.79.79.79.79,232.23,231.06.79.79,233.86,232.69.79.79h0l197.15,196.25c1.09-4.15,2-8.34,3-12.49L9421.16,1062.5l-.79-.79h0L9188,830.46l-.79-.79-233-231.87-.79-.8-.79-.79L8720.31,365.14l-.8-.79-.79-.79L8486.49,132.49l-.79-.79-.79-.79L8252.67-100.16l-.79-.8-.79-.79-232.27-231.1-.79-.79-.79-.79L7785-565.52h0l-.79-.79L7551.1-798.21l-.79-.79-.79-.79-232.24-231.07Z"/><path class="cls-88" d="M7704.65-955.7,7472.4-1186.81l-.8-.79-.79-.79-25.67-25.53c-5.78-.6-11.57-1.21-17.36-1.77l35.35,35.19.79.79.8.79L7697-947.85l.79.79.79.79L7930.77-715.2l.79.79,233.88,232.7.79.79h0l232.23,231.08.79.79.79.79L8632.28-17.19l.79.79.79.79,232.23,231.07.79.79.79.8,233,231.87.79.79,232.25,231.07h0l.79.79,233.86,232.68.79.79,85,84.55c.3-4.85.66-9.71.93-14.58L9577,907.25l-.79-.8-.79-.79L9343.15,674.6h0l-.8-.79L9108.49,441.12l-.79-.79L8875.47,209.26l-.8-.79-.79-.79L8641.65-23.38l-.79-.79-.79-.8L8407.81-256.08l-.79-.79L8173.14-489.54l-.79-.79h0L7940.1-721.42l-.79-.79-233.07-231.9-.79-.79Z"/><path class="cls-89" d="M7432.93-1148.51l-73.18-72.82c-5.59-.38-11.18-.83-16.78-1.17l81.39,81,.79.79.79.79L7659-908.06l.79.79L7892.84-675.4l.79.79,232.23,231.07.79.79.79.79L8359.88-210.7l.8.79.79.79L8593.7,22l.79.79.79.79L8827.52,254.6l.79.79.79.79,232.23,231.07.79.8.79.79,232.24,231.07.79.79.79.79L9529,952.55l.8.79,118.35,117.74c.54-4.69.91-9.37,1.4-14.12L9538.28,946.34l-.79-.79-233-231.87-.79-.8-.79-.79L9070.53,480.92l-.79-.79-.79-.79L8836.72,248.27l-.79-.79-.79-.79L8602.87,15.59l-.79-.79-.79-.79L8369-217.09l-.79-.79-.79-.79-232.27-231.1-.79-.79-.8-.8L7901.3-682.42l-.79-.79-.79-.79L7667.45-915.14l-.79-.79-.79-.79-232.23-231.07Z"/><path class="cls-90" d="M6337.55-283.76l118,117.39.79.79L6688.61,65.48l.79.8L6923.32,299l.79.79h0l232.23,231.07.79.79.79.79,180.77,179.86q10.19,2.41,20.4,4.79L7165.66,524.63l-.79-.79L6931,291.15l-.79-.79h0L6698,59.28l-.79-.8L6464.07-173.43l-.79-.79-.79-.79-125.84-125.2C6336.89-294.74,6337.23-289.3,6337.55-283.76Z"/><path class="cls-91" d="M6346.53-197.32,6416-128.16l.79.79.79.79L6649.86,104.5l.79.79.79.79L6884.49,338l.79.79,233,231.86.79.79,115.49,114.94c7.06,1.87,14.08,3.76,21.2,5.59L7126.86,563.61l-.79-.79-.79-.79-233.07-231.9-.79-.79L6659.1,98.21l-.79-.79-.79-.79L6425.29-134.45l-.79-.79-.8-.79L6344-215.32C6344.79-209.34,6345.55-203.36,6346.53-197.32Z"/><path class="cls-92" d="M6578.83-291.94,6351-518.71c-.76,4.44-1.51,8.87-2.22,13.31L6571.26-284l.79.79.79.79L6805.07-51.34l.79.79.79.8,232.24,231.07.79.79,233,231.88.79.79.79.8,232.23,231.06.8.79.79.79,132.93,132.26c6.83,1.62,13.66,3.21,20.47,4.86l-145.68-145-.79-.79-.79-.79L7282,407.72l-.79-.79L7048.15,175l-.79-.79L6814.29-57.67l-.79-.79-.79-.79L6580.43-290.34l-.79-.79Z"/><path class="cls-93" d="M6501.27-214,6336.45-378c-.17,5.05-.24,10.1-.34,15.17l157.56,156.76.79.79.79.79L6727.48,26.57l.79.79.8.79L6961.3,259.22l.79.79.79.79,232.24,231.07.79.8.79.79,232.23,231.07.79.79.79.79,9.21,9.16,20,4.42-21.49-21.36-.79-.79-.79-.79L7204.34,485.57l-.79-.79-.79-.79L6970.52,252.92l-.79-.79-.79-.79L6736.71,20.28l-.79-.79-.8-.79L6502.87-212.38l-.79-.79Z"/><path class="cls-94" d="M6423.35-601.76l-42.93-42.71q-1.82,6-3.54,12l38,37.73.79.8,233,231.88.79.79.79.79,233.18,232,.79.79L7117.27,104.2l.79.79,232.23,231.07.79.79.79.79,232.24,231.07.79.79.79.79,232.23,231.07.79.8.8.79,36.06,35.88c7.73,2.48,15.46,4.95,23.16,7.53l-51.47-51.21-.79-.79-.8-.8L7593.42,562.43l-.79-.79-.79-.79L7359.51,329.71l-.79-.79-.8-.79L7125.69,97.07l-.79-.79-.79-.79-232.3-231.11-.79-.79-.79-.79L6658-368.29l-.79-.79-233-231.87Z"/><path class="cls-95" d="M6539.69-718.69,6446.86-811c-1.74,3.46-3.42,6.95-5.12,10.42l89.38,88.93.79.79,233.93,232.74.79.8h0l232.23,231.06h0l.79.79L7233.52-12.82l.79.79,232.28,231.1.79.79.79.79,232.35,231.11.79.79.79.8,232.23,231.06.79.79.79.79,232.25,231.13.79.79.79.79,232.4,231.17.79.79.79.79L8636,1382.52l.8.79.79.79,232.23,231.06.79.8,233.85,232.69.79.79h0l97.29,96.83c2.75-2.44,5.57-4.79,8.29-7.26l-98.67-98.18-.79-.79h0L8879,1608.88l-.79-.8-233-231.87-.79-.79-.79-.8L8411.3,1143.55l-.79-.79-.79-.79-232.27-231.1-.79-.79-.79-.79L7943.6,678.19l-.8-.79-.79-.79L7709.74,445.53l-.79-.79-.79-.79L7475.88,212.82l-.79-.79-.79-.79L7242-19.86l-.79-.79-.79-.8L7008.19-252.53h0l-.79-.79L6773.51-486l-.79-.8h0L6540.49-717.89Z"/><path class="cls-96" d="M6849.89-1030.5l-109.23-108.69c-3.33,1.84-6.66,3.69-10,5.6l110.74,110.15.79.79.79.79,232.24,231.08.79.79.79.79,232.29,231.11.79.79.79.79,233.05,231.88.79.79L7776.81-92.75h0l.79.79,234,232.76.8.79,232.23,231.07.79.8.79.79,232.24,231.06.79.79.79.79,232.21,231,.79.79,233.85,232.68.8.79h0l232.22,231.07.79.79.79.8,232.24,231.06.79.79.79.79L9478,1600c1.85-3.32,3.79-6.59,5.61-9.93L9423,1529.71l-.79-.79-.79-.79L9189.2,1297.07l-.79-.79-233.85-232.69-.79-.79h0L8721.54,831.73l-.79-.79-233-231.88-.79-.79-.79-.79-232.28-231.1-.79-.79-.79-.8L8020,133.69l-.79-.79-.79-.79L7786.15-99h0l-.79-.79L7551.49-332.46l-.79-.79L7318.37-564.36l-.79-.79-.79-.79L7084.56-797l-.79-.79-.79-.79-232.24-231.07Z"/><path class="cls-97" d="M7393.23-1110.43l-116-115.41c-5.34-.2-10.69-.27-16-.44l124.35,123.74.79.8.79.79,232.23,231.07.79.79.79.79,232.32,231.09.79.8.79.79,232.23,231.07.79.79.79.79L8321.73-171l.8.79L8554.77,60.8h0l.79.79,233.89,232.7.79.79h0l232.27,231.13.79.79.79.79,232.3,231.11.79.79.79.8,232.24,231.07.79.79.79.79L9638.46,1139c.69-4.42,1.58-8.82,2.27-13.26l-141.3-140.54-.79-.79-.79-.79L9265.61,752.58l-.79-.79L9264,751,9031.8,519.94l-.79-.79L8797.16,286.46l-.79-.79h0L8564.12,54.58h0l-.79-.79L8329.4-178.94l-.79-.79L8096.37-410.8l-.79-.79-.79-.79L7862.52-643.49l-.79-.79-.79-.79-232.3-231.12-.79-.79-.79-.79-232.24-231.06-.79-.79Z"/><path class="cls-98" d="M7005.82-1185.57h0l-.79-.79-29.34-29.2q-6.73,1-13.45,2.1l34.25,34.08h0l.79.79,233.86,232.68.8.79,232.29,231.06.79.79L7698.9-480.54l.79.79h0L7932-248.64l.79.79.79.79L8165.81-16l.79.8.79.79,232.36,231.15.79.8.79.79,232.24,231.07.79.79.79.79,232.23,231.07.79.79.79.79,233,231.85.79.79L9335,1147.37h0l.8.79,233.86,232.68.79.79,4.3,4.28c1.36-3.81,2.77-7.61,4.09-11.44l-.63-.63-.79-.79-.79-.79L9344.4,1141.2h0l-.8-.79L9109.74,907.74,9109,907,8876.64,675.81l-.79-.79-.8-.79L8642.82,443.16l-.79-.79-.79-.79L8408.93,210.47l-.8-.79-.79-.79L8175.11-22.2l-.79-.8-.79-.79L7941.27-254.87l-.79-.79L7706.6-488.37l-.79-.79h0L7473.56-720.25l-.79-.79-233.08-231.9-.79-.79-.79-.79Z"/><path class="cls-99" d="M7354.55-1071.41l-156.75-156h-15.63l164.62,163.8.8.79.79.79L7580.6-830.93l.79.79.8.79,232.23,231.07.79.79,233.18,232,.79.79.8.79,232.23,231.07.79.79.79.8L8516,99.84l.79.79.79.79,232.23,231.06.79.79.79.79L8983.79,565.2l.79.79.79.79,233,231.88.79.79,232.24,231.06h0l.79.79,173.77,173q1.36-6.43,2.67-12.87l-168-167.19h0l-.79-.79L9226,790.74l-.79-.79L8993,558.89l-.79-.79-.79-.8L8759.16,326.23l-.79-.79-.79-.79L8525.3,93.54l-.79-.79-.79-.79-232.27-231.1-.79-.79-.79-.79L8057.62-371.81l-.79-.79L7823.76-604.49l-.79-.79-233.1-231.93-.8-.8-.79-.79-232.23-231.06-.79-.79Z"/><path class="cls-100" d="M7277-993.38,7046-1223.28l-2.54.21-1.76.15c-3.37.23-6.75.49-10.11.79l3.86,3.83.79.79.79.8,232.22,231.07.8.79.79.79L7503-753l.79.79.79.79,232.28,231.14.79.8.79.79,232.26,231,.79.79.79.79L8204.59-54.94l.79.79.79.79L8438.5,177.77l.79.79.79.79,232.24,231.08.8.8.79.79,232.22,231.13.79.79.79.79L9140,875.8l.79.79.79.79,232.23,231.06.8.79.79.79,218.75,217.67c1.22-4,2.52-7.91,3.7-11.87l-214.69-213.61-.79-.79-.8-.79L9149.29,869.56l-.79-.8-.79-.79-232.24-231.1-.79-.79-.8-.79-232.27-231.1-.79-.8-.79-.79L8447.74,171.49l-.79-.79-.79-.79L8213.88-61.19l-.79-.79-.79-.79L7980-293.87l-.79-.79-.79-.79-232.28-231.1-.79-.8-.79-.79-232.27-231.1-.79-.79-.79-.79L7278.49-991.91l-.8-.79Z"/><path class="cls-101" d="M6966.35-1147.38l-56.16-55.86c-4.2,1-8.35,2-12.51,3.07l60.07,59.77.79.79.79.79,232.27,231.1.79.79.79.79L7425.46-675l.79.79.79.79,233.07,231.9.79.79L7894-208.88l.79.79L8127,23l.79.79.8.79,232.27,231.09.79.79.79.8,232.39,231.19.79.79.8.79,232.23,231.08.79.79.79.79L9062.5,953.78l.79.79,233.84,232.69.79.79h0l232.23,231.08.79.79.79.79,21.76,21.63c1.48-3.69,3-7.41,4.41-11.12l-18.41-18.31-.79-.79-233.91-232.74-.79-.79h0L9071.77,947.51l-.79-.79-233.18-232L8837,714l-.79-.79L8604,482.1l-.79-.79-.79-.79L8370.17,249.45l-.79-.79-.79-.79L8136.34,16.77l-.8-.79-.79-.79L7902.48-215.92l-.79-.79-.79-.79L7667.82-449.39l-.79-.79L7434.75-681.29l-.79-.79-.79-.79L7200.9-914l-.79-.8-.79-.79-232.24-231.07Z"/><path class="cls-102" d="M6461.34-641.52l-61.41-61.1c-1.4,3.79-2.8,7.57-4.16,11.37l58.62,58.32.8.79L6687.51-401l.79.79.79.79,232.22,231.06.8.8.79.79L7155.15,64.31l.79.79,234,232.78.79.79h0l232.23,231.07.79.79.79.79,232.24,231.07.79.79.79.79L7978,883q13.55,5.54,27,11.34L7866,756.14l-.79-.79-.79-.79L7632.18,523.47l-.8-.79L7397.51,290l-.79-.79h0L7164.49,58.1l-.79-.79L6930.57-174.6l-.79-.8-.79-.79L6696.75-407.28l-.79-.79-.79-.79L6462.91-639.95l-.79-.79Z"/><path class="cls-103" d="M6383.78-563.61,6364-583.34c-1,4.22-1.94,8.44-2.89,12.66l15.19,15.09.79.79.79.79,232.22,231.07.79.79.8.79L6843.86-90.28l.79.79.79.79,232.23,231.06.79.79.79.79L7311.48,375l.79.79.79.79,233,231.88.79.79,198.33,197.31q10.76,2.88,21.48,5.85L7553.82,600.61l-.79-.79L7320.76,368.73l-.8-.8-.79-.79L7086.87,136l-.79-.79-.79-.79L6853.05-96.64l-.79-.8-.79-.79-232.3-231.12-.8-.79-.79-.8L6385.35-562l-.79-.79Z"/><path class="cls-104" d="M6694-875.42,6570.27-998.54c-2.38,2.78-4.7,5.64-7.08,8.48l123.23,122.61.79.79.79.79,232.24,231.06.79.79.79.79,232.23,231.07.8.79.79.79,232.23,231.07.79.79.79.79L7621.69,63.14l.79.79,233.88,232.7.79.8h0l232.27,231.11.79.79.79.79L8324.08,762l.8.79L8557.11,993.9h0l.79.79,233.86,232.68.79.8,232.34,231.07.79.8.79.79,232.24,231.07.79.79.79.79,93.24,92.77c2.3-2.85,4.54-5.79,6.82-8.7l-92.47-92-.8-.79-.79-.79-232.23-231.08-.79-.79-.79-.79-232.24-231.06-.79-.79-.79-.79L8566.42,987.63h0l-.79-.79L8331.76,754.17l-.79-.8L8098.74,522.3l-.79-.79-233.89-232.7-.79-.79h0L7631,56.93l-.79-.8-233.19-232-.79-.79-.8-.79L7163.23-408.53l-.79-.79-.79-.79L6929.41-641.18l-.79-.8-.79-.79L6695.6-873.84l-.79-.79Z"/><path class="cls-105" d="M6616.56-797.3,6503.92-909.37c-2.05,3.13-4.15,6.21-6.17,9.37L6608.8-789.5l.79.79.79.79,232.23,231.07.79.79.79.79L7076.43-324.2l.79.8.79.79L7310.24-91.55l.79.79.8.79,233.1,231.87.79.79L7778,373.78h0l.79.79,233.87,232.7.79.79L8245.79,839.2l.79.8,233.86,232.68.79.79h0l232.23,231.07.79.79.79.8,232.22,231.09.79.79.8.79,232.23,231.07.79.79.79.79,98.7,98.2c2.52-2.67,4.92-5.44,7.41-8.13l-98.35-97.86-.79-.79-.79-.8-232.32-231.14-.79-.79-.79-.79L8722.7,1298.28l-.79-.79-233.85-232.7-.8-.79h0L8255,832.93l-.79-.79L8021.16,600.23l-.79-.79-.79-.79L7787.33,367.56h0l-.79-.79-233.89-232.7-.79-.79L7319.48-97.9l-.79-.79-.79-.79L7085.67-330.56l-.79-.79-.8-.79L6851.85-563.21l-.79-.79-.79-.79L6618-795.85l-.79-.8Z"/><path class="cls-106" d="M6655.46-836.27,6536-955.14c-2.21,3-4.43,5.94-6.61,8.94L6647.7-828.47l.8.79.79.8,232.22,231.06.79.79.79.79,232.25,231.08.79.79.79.79,232.23,231.07.79.79.79.79L7583,102.14l.79.79.79.79,232.23,231.07.8.79.79.79,232.24,231.14.79.79.79.79,232.39,231.17.79.8.79.79,232.24,231.06.79.79.79.79,232.23,231.07.8.79.79.79L8986,1498.24l.79.79.79.79,232.23,231.07.79.79.79.8,96.8,96.31c2.42-2.79,4.74-5.65,7.11-8.45l-96.14-95.66-.79-.79-.79-.8L8995.36,1492l-.79-.79-.79-.79-232.39-231.22-.79-.79-.79-.79-232.24-231.06-.79-.79-.79-.8L8293.76,793.91l-.79-.79-.79-.79L8059.94,561.26l-.79-.79-.79-.79L7826.09,328.57l-.79-.79-.8-.79L7592.23,95.91l-.79-.79-.79-.79L7358.34-136.82l-.8-.79-.79-.79L7124.52-369.47l-.79-.79-.79-.79L6890.63-602.17l-.79-.79-.79-.79L6656.82-834.83l-.79-.79Z"/><path class="cls-107" d="M6577.66-758.48,6474.31-861.31c-1.9,3.29-3.8,6.57-5.66,9.89L6570-750.55l.79.79.79.8,232.23,231.07.79.79.8.79,232.23,231.07.79.79.79.79L7271.49-52.59l.79.79.79.79,232.28,231.08.79.8,233.08,231.91.79.79.79.8,232.29,231.09.79.79.79.79,232.25,231.18.79.79.8.79,233,231.88.79.79,233.06,231.87.79.79,232.24,231.06.79.79.79.79,232.23,231.07.79.79.79.79,98.88,98.34c2.66-2.56,5.31-5.11,7.91-7.69l-99-98.44-.79-.79-.79-.79-232.32-231.13-.79-.79-.79-.79L8684,1337.27l-.79-.79-.79-.8-233.1-231.89-.8-.79L8216.23,871.87l-.79-.79-.79-.79L7982.38,639.22l-.79-.79-.79-.79L7748.54,406.55l-.79-.79-233.06-231.9-.79-.79L7280.81-58.84l-.79-.79-.79-.8L7046.92-291.57l-.8-.79-.79-.79L6813.1-524.22l-.79-.79-.79-.79L6579.26-756.88l-.79-.79Z"/><path class="cls-108" d="M6500.11-680.49l-78-77.6c-1.57,3.62-3.09,7.27-4.62,10.91l74.86,74.49.79.79.79.79,232.4,231.17.79.79.79.79L6960.15-207.3l.79.8.79.79L7194,25.36l.79.79.79.79L7427.8,258.07l.79.79.79.79,233.07,231.87.79.79L7896.32,724.2l.79.79,232.25,231.08.79.79.36.37.57.31q20,11.55,39.51,24l-31.89-31.72-.79-.79L7904.82,717.16l-.79-.79-.79-.79-233.1-231.89-.79-.79L7437.1,251.79l-.79-.79-.79-.79L7203.25,19.11l-.79-.79-.8-.79L6969.38-213.58l-.79-.79-.79-.79L6735.53-446.25l-.79-.79-.79-.8L6501.7-678.92l-.8-.79Z"/><path class="cls-109" d="M6771.58-953.36,6648.32-1076c-2.82,2.37-5.67,4.74-8.47,7.11l124.83,124.19.79.79,232.24,231.06h0l.79.8,233.85,232.69.8.79h0l232.27,231.11.79.79.79.79,232.27,231.1.8.8.79.79,232.27,231.1.79.79.79.79L8167,450.58l.79.79.79.79,232.36,231.21.79.79.79.79L8634.74,916l.8.79.79.79,232.23,231.07.79.79.79.79,233.05,231.88.79.79L9336.22,1614h0l.79.79,82.1,81.69c2.08-3.1,4.19-6.19,6.23-9.31l-79.85-79.45h0l-.79-.79-233-231.88-.8-.79-.79-.79-232.22-231.07-.79-.79-.8-.79L8643.91,909.62l-.79-.79-.79-.79L8410.1,677l-.79-.79-.8-.79L8176.28,444.33l-.79-.79-.79-.79-232.28-231.1-.79-.79-.79-.79L7708.57-21l-.79-.79-.79-.8L7474.73-253.7l-.79-.79L7240.05-487.22l-.79-.79h0L7007-719.08h0l-.79-.79L6772.37-952.55Z"/><path class="cls-110" d="M6887.86-1070.29l-95.07-94.63c-3.62,1.58-7.23,3.12-10.81,4.74l99,98.53.79.79L7114.87-829l.79.79L7348.05-597l.79.79,233.05,231.89.79.79.79.79,232.24,231.07.79.79.79.79L8049.52,101l.8.79.79.79,232.23,231.07.79.79.79.79,232.24,231.06.79.8.79.79L8751,799l.79.79.79.79,232.24,231.07.79.79.79.79,233,231.88.79.79,232.24,231.07h0l.79.79,51.82,51.55c1.74-3.46,3.38-7,5.09-10.44l-48.33-48.1h0l-.79-.79L9228,1258.06l-.79-.79-.79-.79-232.24-231.06-.79-.79-.79-.79L8760.34,792.77l-.79-.79-.79-.79L8526.47,560.06l-.79-.79-.8-.79L8292.65,327.4l-.79-.79-.79-.79-232.3-231.1-.79-.79-.79-.79L7824.91-138l-.79-.79-.79-.79L7591-370.63l-.79-.8-233-231.89-.79-.79L7123.34-836l-.79-.79-.79-.79-233.05-231.88Z"/><path class="cls-111" d="M6926.78-1109.18l-77.45-77c-3.89,1.27-7.79,2.55-11.67,3.9l81.36,80.94.79.79.79.79,232.24,231.07.79.79.79.79L7386.78-636l.79.79.79.79L7620.6-403.33l.79.79.79.79,232.23,231.07.79.79.79.79L8088.23,62l.79.79L8323,295.5l.79.79h0L8556,527.37h0l.79.79,233.86,232.67.79.79L9023.66,992.7l.79.79.79.79,232.23,231.07.79.79.8.79L9491.29,1458l.79.79.79.79,37.3,37.12c1.64-3.58,3.17-7.21,4.75-10.81l-34.27-34.1-.79-.8-.8-.79-232.23-231.07-.79-.79-.79-.79L9033,986.48l-.79-.79-.79-.79L8799.12,753.8l-.79-.79-.79-.79-232.26-231.1h0l-.79-.79-233.87-232.7-.79-.79h0L8097.57,55.76l-.79-.8L7863.69-177l-.79-.79-.79-.79L7629.8-409.63l-.79-.79-.79-.79L7396-642.32l-.79-.79-.79-.79L7162.1-875l-.79-.79-.79-.79-232.24-231.07-.79-.79Z"/><path class="cls-112" d="M6810.34-992.34l-117.65-117.09c-3.07,2.1-6.14,4.2-9.18,6.38L6802.75-984.4l.79.79.79.79,232.23,231.07.79.79.79.79L7270.38-519.1l.79.8.79.79,232.23,231.06.79.79.8.79,232.27,231.1.79.79.79.79L7971.89,178.9l.79.8,233.08,231.9.79.8.79.79,233.07,231.89.79.79,233,231.81.79.79,232.23,231.07.79.79.79.79L9141,1342.19l.8.79.79.79,232.22,231.06.79.79.79.79,72.87,72.51c2-3.22,4-6.38,5.94-9.61l-71-70.69-.79-.79-.8-.79L9150.35,1336l-.79-.79-.79-.8-232.24-231.07-.79-.79-.79-.79L8682.72,870.67l-.79-.79-.79-.79L8448.89,638l-.79-.79-.79-.79L8215.08,405.37l-.79-.79L7981.23,172.69l-.79-.79L7747.34-60l-.79-.79-.79-.8L7513.49-292.7l-.79-.79-.79-.79-232.28-231.1-.79-.79-.79-.8L7045.74-758.09l-.79-.79-.79-.79L6811.92-990.74l-.79-.79Z"/><path class="cls-113" d="M6732.9-914.26l-125.24-124.62q-3.9,3.87-7.75,7.82l125.23,124.59.79.8.79.79L6959-673.82l.79.79.79.79,232.23,231.07.79.79.8.79L7426.63-208.5l.79.79.79.79L7661.28,25l.79.79L7895.18,257.7l.79.79L8128.2,489.56l.79.79.8.79,232.29,231.13.79.79.8.8L8595.9,954.93l.79.79,234,232.75.79.79h0l232.22,231.07.79.79.8.79L9297.52,1653l.79.79.79.79,88.08,87.64q3.27-4.5,6.53-9l-87-86.47-.79-.79-.79-.79-232.24-231.07-.79-.8-233.85-232.69-.79-.79h0L8605.16,948.61l-.79-.79L8371.32,716l-.79-.79-.79-.79L8137.51,483.31l-.8-.79-.79-.79L7903.65,250.62l-.79-.79-.79-.79L7669,17.15l-.79-.79L7435.92-214.75l-.79-.79-.79-.79-232.27-231.1-.79-.79-.79-.79L6968.22-680.12l-.79-.8-.79-.79L6734.4-912.78l-.79-.79Z"/><circle class="cls-114" cx="5397.28" cy="1081.65" r="124.3"/><circle class="cls-114" cx="6381.69" cy="2399.02" r="197.18"/><circle class="cls-114" cx="2341.04" cy="1286.5" r="197.18"/><circle class="cls-115" cx="6318.51" cy="1760.49" r="57.28"/><circle class="cls-115" cx="2258.41" cy="736.16" r="57.28"/><circle class="cls-115" cx="4327" cy="1917.28" r="57.28"/><rect class="cls-116" x="870.48" y="1811.83" width="84.55" height="84.55" transform="translate(-4.53 2.24) rotate(-0.14)"/><polygon class="cls-115" points="638.62 797.5 506.7 797.83 572.95 911.9 638.62 797.5"/><polygon class="cls-115" points="1543.53 2366.08 1411.63 2366.41 1477.86 2480.49 1543.53 2366.08"/><polygon class="cls-115" points="7956.55 1842.71 7824.65 1843.04 7890.88 1957.11 7956.55 1842.71"/><polygon class="cls-115" points="5906.65 659.69 5774.74 660.02 5840.98 774.09 5906.65 659.69"/><line class="cls-115" x1="7059.88" y1="2155.37" x2="7132.07" y2="2227.18"/><line class="cls-115" x1="7060.06" y1="2227.36" x2="7131.88" y2="2155.19"/><line class="cls-115" x1="3423.53" y1="1291.21" x2="3495.7" y2="1363.03"/><line class="cls-115" x1="3423.7" y1="1363.21" x2="3495.52" y2="1291.03"/><line class="cls-115" x1="2376.49" y1="2144.72" x2="2448.67" y2="2216.54"/><line class="cls-115" x1="2376.67" y1="2216.72" x2="2448.48" y2="2144.54"/><line class="cls-115" x1="4902.79" y1="754.06" x2="4974.97" y2="825.87"/><line class="cls-115" x1="4902.97" y1="826.05" x2="4974.79" y2="753.87"/><line class="cls-115" x1="1532.81" y1="1106.15" x2="1604.99" y2="1177.97"/><line class="cls-115" x1="1532.99" y1="1178.15" x2="1604.81" y2="1105.97"/></g></g></svg>