<svg id="Capa_1" data-name="Capa 1" xmlns="http://www.w3.org/2000/svg" viewBox="0 0 1920 1920"><defs><style>.cls-1,.cls-2{fill:#fff;}.cls-2{fill-rule:evenodd;}</style></defs><g id="c133de6af664cd4f011a55de6b000d0b"><path class="cls-1" d="M265.38,6.73H308V48.82h39V6.73h42.6V134.19H347V91.51H308v42.68H265.38V6.73ZM445.58,49h-37.5V6.73H525.71V49H488.19v85.19h-42.6V49Zm98.8-42.27h44.43l27.32,44.79,27.3-44.79h44.44V134.19H645.44V71l-29.31,45.32h-.73L586.07,71v63.17H544.38V6.73Zm164.69,0h42.62V92.06H811.6v42.13H709.07Zm-506,185.76L264,876l273.47,75.91,274.23-76,61-683.42ZM745.6,354.7l-3.81,42.5L740.11,416H419.31L427,501.88H732.48l-2.05,22.52L710.74,745.11l-1.27,14.15L537.9,806.82h0l-.38.11L365.79,759.26,354,627.64H438.2l6,66.86,93.36,25.21.08,0h0l93.5-25.23,9.73-108.73H350.3l-20.6-231-2-22.49H747.61Z"/></g><g id="c133de6af664cd4f011a55de6b001a2b"><path class="cls-1" d="M1291.45,88.15v42H1184V0h107.47V46.06H1230V88.15Zm110.47-42.09h42.93V0H1337.37V46.06c14.38,14.38,21.88,21.26,42.67,42.06-12.15,0-42.67,0-42.67,0v42h107.48v-42Zm152.33,0h42.92V0H1489.7V46.06c14.37,14.38,21.88,21.26,42.67,42.06-12.15,0-42.67,0-42.67,0v42h107.47v-42Zm184.47,146L1673.44,899.2l-282.86,76.16L1107.71,899.2,1042.43,192ZM1607.18,335.83H1169.63l10.55,85.4h221.94l-11.8,4.91-202.45,84.32,6.71,83.47,195.74.64,104.91.33-6.72,111.3-98.19,27.65v-.09l-.81.22L1294.68,710,1288.93,641h-88.59l11.51,133.38,178.47,52.77V827l.32.09,177.51-51.81,23-264.83H1389.82l.5-.21,208.22-89Z"/></g><g id="Page-1"><g id="Dribbble-Light-Preview"><g id="icons"><path id="javascript-_155_" data-name="javascript-[#155]" class="cls-2" d="M1100.55,1853.75c-72.11,0-118.72-34.38-141.45-79.34h0l63.23-36.62C1039,1765,1060.59,1785,1098.9,1785c32.15,0,52.69-16.08,52.69-38.28,0-33.37-44.55-46.45-76-59.91-56-23.85-93.22-53.81-93.22-117.07,0-58.23,44.38-102.6,113.76-102.6,49.34,0,84.88,17.19,110.38,62.11L1146.05,1568c-13.31-23.85-27.73-33.27-49.92-33.27-22.77,0-37.19,14.42-37.19,33.27,0,23.3,14.42,32.73,47.73,47.15,69.79,29.91,122.6,53.43,122.6,130.37,0,69.92-54.91,108.19-128.72,108.19ZM921.7,1736.68c0,80.45-49.54,123-118.35,123-62.15,0-99.38-23.77-117.69-65.09h-1.07l63.18-44.17c12.19,21.61,23.19,36.95,49.8,36.95,25.54,0,41.49-12.94,41.49-51.74V1464H921.7ZM467.15,1918.54h826.47V1092.07H467.15Z"/></g></g></g></svg>