<svg id="Capa_1" data-name="Capa 1" xmlns="http://www.w3.org/2000/svg" viewBox="0 0 445 450"><defs><style>.cls-1,.cls-2{fill:#9d9d9c;}.cls-1{stroke:#fff;stroke-miterlimit:10;}.cls-2{font-size:147.26px;font-family:ArialMT, Arial;}.cls-3{letter-spacing:-0.06em;}</style></defs><path class="cls-1" d="M159.58,129S177,266.89,315,285.94c0,0-134,15.06-150,151.06,0,0-19-131.11-155-151.06C10,285.94,130.15,283,159.58,129Z"/><path class="cls-1" d="M331.42,88.58s11,87,98.1,99.07c0,0-84.58,9.5-94.68,95.35,0,0-12-82.76-97.84-95.35C237,187.65,312.84,185.79,331.42,88.58Z"/><path class="cls-1" d="M235.65,8s8,63.75,71.85,72.56c0,0-61.95,7-69.34,69.83,0,0-8.79-60.61-71.66-69.83C166.5,80.59,222.05,79.22,235.65,8Z"/><text class="cls-2" transform="translate(291.52 437)">I<tspan class="cls-3" x="40.91" y="0">A</tspan></text></svg>