<svg id="Capa_1" data-name="Capa 1" xmlns="http://www.w3.org/2000/svg" viewBox="0 0 1920 1920"><defs><style>.cls-1{fill:#fff;}</style></defs><path class="cls-1" d="M778.69,1914c345.76,22.15,876.73-12.22,889.28-175.85,0,0-24.14,62-285.78,111.26-144.49,26.06-310.81,40.91-480.65,40.91A2870.57,2870.57,0,0,1,492,1861l15.3,1.79C507.25,1862.74,551.49,1899.36,778.69,1914ZM1152,0s199.55,199.54-189.17,506.38c-311.71,246.15-71.06,386.55-.07,546.91C780.86,889,647.39,744.66,736.88,610.16,868.38,412.66,1232.64,317,1152.11,0Zm217.22,1406.74c360.23-187.19,193.65-367.15,77.46-342.82a278.12,278.12,0,0,0-43.15,11.65l1.92-.58a66.51,66.51,0,0,1,30.35-23.62l.44-.13c230-80.85,406.9,238.47-74.26,365a30.34,30.34,0,0,0,7.11-9.28l.06-.19ZM743.35,1056.81s-349,82.91-123.49,112.93c60.69,5,131.36,7.81,202.68,7.81a2668.16,2668.16,0,0,0,270-13.7l-11.14.9c144.49-12.17,289.43-38.16,289.43-38.16a603,603,0,0,0-90.2,48.4l2.36-1.41c-354.34,93.21-1038.88,49.87-841.77-45.45,86.87-45,189.68-71.38,298.64-71.38h3.46Zm803.05,583.53s54.35,44.75-59.73,79.25c-217,65.75-903,85.53-1093.5,2.63-68.5-29.83,60-71.19,100.32-79.83a255.72,255.72,0,0,1,62.09-7.49c1.48,0,2.89,0,4.36.06h-.19c-76.25-53.71-492.5,105.38-211.46,151,766.43,124.26,1397-56,1198.17-145.58ZM1049.29,918a140.73,140.73,0,0,1-24,202.36l-.39.26S1260,999.2,1152,847.22c-100.89-141.74-178.22-212.16,240.58-455,0-.07-657.27,164.07-343.33,525.84ZM662.05,1274.67s-82.27,60.88,43.34,73.94c55,6.91,118.56,10.82,183.09,10.82A1555.43,1555.43,0,0,0,1228.74,1322l-10.37,1.92a228.1,228.1,0,0,0,77.39,47.63l1.6.51C843,1504.94,336.83,1382.41,662,1274.6Zm46,210.17s-73.37,42.7,52.24,57.1c46,6.85,99.1,10.76,153.13,10.76a1095.31,1095.31,0,0,0,251.84-29.13l-7.42,1.47a674.39,674.39,0,0,0,101,50.07l4.73,1.66c-375.91,161.07-850.61-9.41-555.42-91.93Z"/></svg>