<svg id="Capa_1" data-name="Capa 1" xmlns="http://www.w3.org/2000/svg" viewBox="0 0 1920 1920"><defs><style>.cls-1{fill:#fff;}</style></defs><path class="cls-1" d="M450.07,629.23h-380a30.55,30.55,0,0,0-30.53,30.56v1222a30.54,30.54,0,0,0,30.53,30.56h380a30.54,30.54,0,0,0,30.52-30.56V659.79A30.54,30.54,0,0,0,450.07,629.23Z"/><path class="cls-1" d="M260.21,21.77C121.94,21.77,9.46,134.24,9.46,272.49S121.94,523.31,260.21,523.31,510.75,410.79,510.75,272.49,398.36,21.77,260.21,21.77Z"/><path class="cls-1" d="M1416.6,598.86c-152.62,0-265.44,65.68-333.87,140.3V659.79a30.54,30.54,0,0,0-30.53-30.56H688.3a30.54,30.54,0,0,0-30.53,30.56v1222a30.54,30.54,0,0,0,30.53,30.56h379.16a30.54,30.54,0,0,0,30.53-30.56V1277.16c0-203.73,55.28-283.1,197.16-283.1,154.52,0,166.79,127.24,166.79,293.58v594.11a30.54,30.54,0,0,0,30.53,30.56h379.31a30.54,30.54,0,0,0,30.53-30.56V1211.49C1902.31,908.55,1844.6,598.86,1416.6,598.86Z"/></svg>