<svg id="Capa_1" data-name="Capa 1" xmlns="http://www.w3.org/2000/svg" viewBox="0 0 50 50"><defs><style>.cls-1{fill:none;stroke:#fff;stroke-linecap:round;stroke-linejoin:round;stroke-width:3px;}</style></defs><g id="Communication_Mail" data-name="Communication / Mail"><path id="Vector" class="cls-1" d="M4.48,11.42,20.15,21.86h0a12.23,12.23,0,0,0,3.56,1.91,5.91,5.91,0,0,0,2.58,0,12.23,12.23,0,0,0,3.56-1.91s10-6.8,15.67-10.44M1.91,33.6V16.4c0-2.53,0-3.8.56-4.77a4.93,4.93,0,0,1,2.24-2c1.1-.49,2.54-.49,5.41-.49H39.88c2.87,0,4.31,0,5.4.49a4.91,4.91,0,0,1,2.25,2c.56,1,.56,2.24.56,4.77V33.61c0,2.53,0,3.79-.56,4.76a4.91,4.91,0,0,1-2.25,2c-1.09.49-2.53.49-5.39.49H10.11c-2.86,0-4.3,0-5.4-.49a4.93,4.93,0,0,1-2.24-2C1.91,37.4,1.91,36.13,1.91,33.6Z"/></g></svg>