<?xml version="1.0" encoding="utf-8"?>
<!-- Generator: Adobe Illustrator 24.1.0, SVG Export Plug-In . SVG Version: 6.00 Build 0)  -->
<svg version="1.1" id="Capa_1" xmlns="http://www.w3.org/2000/svg" xmlns:xlink="http://www.w3.org/1999/xlink" x="0px" y="0px"
	 viewBox="0 0 800 800" style="enable-background:new 0 0 800 800;" xml:space="preserve">
<style type="text/css">
	.st0{fill-rule:evenodd;clip-rule:evenodd;fill:#565554;}
	.st1{fill-rule:evenodd;clip-rule:evenodd;fill:#727070;}
	.st2{fill-rule:evenodd;clip-rule:evenodd;fill:#FFFFFF;}
	.st3{fill-rule:evenodd;clip-rule:evenodd;fill:#A6A385;}
	.st4{fill-rule:evenodd;clip-rule:evenodd;fill:#727772;}
	.st5{fill-rule:evenodd;clip-rule:evenodd;fill:#959695;}
</style>
<path class="st0" d="M734.4,584.3c-0.8,0.2-1.7,2-1.7,3.1c-0.2,6.8-0.3,24.8-0.3,37c0,0.3,0.5,1,1,1c2.5,0.2,8.7,0.3,13.9,0.3
	c7.3,0,11.5-1,13.9-2c6.1-3.1,9-9.7,9-17c0-16.5-11.5-22.8-28.7-22.8C740.3,583.8,736.9,583.8,734.4,584.3L734.4,584.3L734.4,584.3z
	 M778.2,660.2c0-16.8-12.4-26.2-34.8-26.2c-1,0-8.1-0.2-9.8,0.2c-0.5,0.2-1.2,0.5-1.2,1c0,12.1-0.2,31.2,0.3,38.7
	c0.3,3.2,2.7,7.8,5.6,9.2c3.1,1.7,10,2,14.8,2C766.5,685.2,778.2,677.7,778.2,660.2L778.2,660.2L778.2,660.2z M699.8,575
	c1.7,0,6.8,0.5,19.9,0.5c12.4,0,22.2-0.3,34.3-0.3c14.8,0,35.1,5.3,35.1,27.3c0,10.9-7.6,19.5-17.7,23.8c-0.5,0.2-0.5,0.5,0,0.7
	c14.3,3.6,26.8,12.4,26.8,29c0,16.3-10.2,26.7-25,33.1c-9,3.9-20.2,5.3-31.6,5.3c-8.7,0-31.9-1-44.8-0.7c-1.4-0.5,1.2-6.6,2.4-7.6
	c3.1-0.2,5.4-0.3,8.7-1.4c4.6-1.2,5.1-2.5,5.8-9.5c0.3-5.9,0.3-27,0.3-41.9c0-20.5,0.2-34.5,0-41.3c-0.2-5.3-2-7-5.8-8
	c-2.9-0.5-7.6-1.2-11.5-1.7C695.8,581.4,698.7,575.6,699.8,575L699.8,575L699.8,575z M601.8,680.6c4.1,3.2,12.1,4.6,19.2,4.6
	c9.2,0,18.3-1.7,27.2-9.7c9-8.2,15.3-20.7,15.3-40.8c0-19.2-7.3-34.8-22.2-44c-8.5-5.3-19.4-7.5-31.9-7.5c-3.7,0-7.3,0.2-9.5,1.2
	c-0.5,0.3-1.7,1.9-1.7,2.7c-0.3,3.4-0.3,29.5-0.3,44.8c0,15.8,0,37.9,0.3,40.4C598.1,675,599.2,678.9,601.8,680.6L601.8,680.6
	L601.8,680.6z M563.3,575c3.2,0,15.6,0.5,21.6,0.5c10.7,0,18.3-0.5,38.5-0.5c17,0,31.2,4.6,41.4,13.2c12.4,10.7,18.8,25.5,18.8,43.5
	c0,25.6-11.7,40.4-23.4,48.9c-11.7,8.7-27,13.8-48.7,13.8c-11.5,0-31.4-0.3-47.9-0.5h-0.2c-0.8-1.5,1.4-7.5,2.7-7.6
	c4.4-0.5,5.6-0.7,7.8-1.5c3.6-1.4,4.2-3.2,4.8-9.5c0.5-11.7,0.3-25.8,0.3-41.8c0-11.4,0.2-33.6-0.2-40.8c-0.5-5.9-3.1-7.5-8.1-8.5
	c-2.5-0.5-5.9-1.2-10.7-1.7C559.3,581.2,562.4,576,563.3,575L563.3,575L563.3,575z"/>
<path class="st1" d="M357.8,687.2c-4.2-0.5-7.3-1.2-11-2.9c-0.5-0.3-1.4-2-1.4-2.7c-0.3-5.9-0.3-22.9-0.3-34.3
	c0-9.2-1.5-17.2-5.4-22.8c-4.6-6.5-11.2-10.2-19.7-10.2c-7.5,0-17.5,5.1-25.8,12.2c-0.2,0.2-1.5,1.4-1.4-0.5c0-1.9,0.3-5.6,0.5-8.2
	c0.2-2.4-1.2-3.6-1.2-3.6c-5.4,2.7-20.7,6.3-26.3,6.8c-4.1,0.8-5.1,4.8-0.8,6.1h0.2c4.6,1.4,7.6,2.9,10,4.4c1.7,1.4,1.5,3.2,1.5,4.8
	c0.2,12.7,0.2,32.3-0.3,43c-0.2,4.2-1.4,5.8-4.4,6.5l0.3-0.2c-2.4,0.5-4.2,1-7.1,1.4c-1,1-1,6.5,0,7.6c1.9,0,11.7-0.5,19.9-0.5
	c11.2,0,17,0.5,19.9,0.5c1.2-1.4,1.5-6.5,0.8-7.6c-3.2-0.2-5.6-0.5-7.8-1.2c-3.1-0.7-3.9-2.2-4.1-5.8c-0.3-9-0.3-28-0.3-40.9
	c0-3.6,1-5.3,2-6.3c3.9-3.4,10.2-5.8,15.8-5.8c5.4,0,9,1.7,11.7,3.9c3.7,3.1,4.9,7.5,5.4,10.7c0.8,7.3,0.5,21.7,0.5,34.3
	c0,6.8-0.5,8.5-3.1,9.3c-1.2,0.5-4.2,1.2-7.8,1.5c-1.2,1.2-0.8,6.5,0,7.6c4.9,0,10.7-0.5,19.2-0.5c10.5,0,17.3,0.5,20,0.5
	C358.2,693.5,358.5,688.6,357.8,687.2L357.8,687.2L357.8,687.2z M404.9,622.3c-9,0-14.6,7-14.6,17.8c0,11,4.9,23.8,18.8,23.8
	c2.4,0,6.8-1,8.8-3.4c3.2-3.1,5.4-9.2,5.4-15.6C423.4,630.8,416.4,622.3,404.9,622.3L404.9,622.3L404.9,622.3z M403.7,697.4
	c-3.4,0-5.8,1-7.3,1.9c-7.1,4.6-10.4,9-10.4,14.3c0,4.9,1.9,8.8,5.9,12.2c4.9,4.2,11.7,6.3,20.4,6.3c17.3,0,25-9.3,25-18.5
	c0-6.5-3.2-10.7-9.8-13.1C422.7,698.4,414,697.4,403.7,697.4L403.7,697.4L403.7,697.4z M404.9,741.6c-10.4,0-17.8-2.2-24.3-7.1
	c-6.3-4.8-9-11.9-9-16.8c0-1.4,0.3-5.1,3.4-8.5c1.9-2,5.9-5.9,15.6-12.6c0.3-0.2,0.5-0.3,0.5-0.7c0-0.3-0.3-0.7-0.7-0.8
	c-8-3.1-10.4-8-11-10.7V684c-0.2-1-0.5-2,1-3.1c1.2-0.8,2.9-1.9,4.8-3.1c2.9-1.7,5.9-3.6,7.8-5.1c0.3-0.3,0.3-0.7,0.3-1
	s-0.3-0.7-0.7-0.8c-11.9-3.9-17.8-12.7-17.8-26c0-8.7,3.9-16.5,10.9-21.4c4.8-3.7,16.6-8.3,24.4-8.3h0.5c8,0.2,12.4,1.9,18.7,4.1
	c3.4,1.2,6.6,1.7,11,1.7c6.6,0,9.5-2,11.9-4.4c0.2,0.3,0.5,1.2,0.7,3.4c0.2,2.2-0.5,5.4-2.2,7.8c-1.4,1.9-4.4,3.2-7.5,3.2h-0.8
	c-3.1-0.3-4.4-0.7-4.4-0.7l-0.7,0.3c-0.2,0.3,0,0.7,0.2,1.2l0.2,0.3c0.3,1.5,1,6.1,1,7.3c0,13.9-5.6,20-11.5,24.6
	c-5.8,4.2-12.4,7-19.9,7.6c-0.2,0-0.8,0-2.4,0.2c-0.8,0-2,0.2-2.2,0.2h-0.2c-1.4,0.3-4.8,2-4.8,4.9c0,2.5,1.5,5.6,8.8,6.1
	c1.5,0.2,3.1,0.2,4.8,0.3c9.7,0.7,21.7,1.5,27.3,3.4c7.8,2.9,12.7,9.8,12.7,18.2c0,12.6-9,24.3-23.9,31.6
	C420.1,739.9,412.8,741.6,404.9,741.6L404.9,741.6L404.9,741.6z M501.6,623.2c-3.6,0-6.8,0.8-9.2,2.5c-6.6,4.1-10,12.2-10,24.1
	c0,22.2,11.2,37.9,27.2,37.9c4.8,0,8.5-1.4,11.7-4.1c4.9-4.1,7.5-12.2,7.5-23.6C528.8,638,517.8,623.2,501.6,623.2L501.6,623.2
	L501.6,623.2z M504.7,695.9c-28.9,0-39.2-21.2-39.2-41.1c0-13.9,5.6-24.6,16.8-32.3c8-4.9,17.5-7.6,26-7.6
	c22.1,0,37.5,15.8,37.5,38.5c0,15.5-6.1,27.7-17.8,35.2C522.3,692.3,512.7,695.9,504.7,695.9L504.7,695.9L504.7,695.9z M202.1,623.2
	c-3.6,0-6.8,0.8-9.2,2.5c-6.6,4.1-10,12.2-10,24.1c0,22.2,11.2,37.9,27.2,37.9c4.8,0,8.5-1.4,11.7-4.1c4.9-4.1,7.5-12.2,7.5-23.6
	C229.3,638,218.4,623.2,202.1,623.2L202.1,623.2L202.1,623.2z M205.2,695.9c-28.9,0-39.2-21.2-39.2-41.1c0-13.9,5.6-24.6,16.8-32.3
	c8-4.9,17.5-7.6,26-7.6c22.1,0,37.5,15.8,37.5,38.5c0,15.5-6.1,27.7-17.8,35.2C223,692.3,213.4,695.9,205.2,695.9L205.2,695.9
	L205.2,695.9z M11.2,694.2c-0.3-0.5-0.7-2-0.5-3.9c0-1.4,0.3-2.2,0.5-2.5c3.6-0.5,5.4-1,7.5-1.5c3.4-0.9,4.8-2.7,4.9-7
	c0.5-10.2,0.5-29.5,0.3-43v-0.3c0-1.5,0-3.4-1.9-4.8c-2.7-1.7-5.9-3.2-10.2-4.4c-1.5-0.5-2.5-1.4-2.4-2.4c0-1,1-2.2,3.2-2.5
	c5.6-0.5,20.2-4.1,26-6.6c0.3,0.3,0.8,1.4,0.8,2.7l-0.2,1.9c-0.2,1.9-0.3,4.1-0.3,6.3c0,0.7,0.7,1.2,1.4,1.2c0.3,0,0.7-0.2,1-0.3
	c10.9-8.5,20.7-11.5,25.8-11.5c8.3,0,14.8,3.9,19.7,12.1c0.3,0.5,0.7,0.7,1.2,0.7c0.3,0,0.8-0.2,1-0.5c10-7.6,20-12.2,26.7-12.2
	c15.8,0,25.1,11.7,25.1,31.6c0,5.6,0,12.9-0.2,19.5c0,5.9-0.2,11.4-0.2,15.3c0,0.8,1.2,3.6,3.1,4.1c2.4,1.2,5.6,1.7,9.8,2.4h0.2
	c0.3,1.2-0.3,5.6-1,6.5c-1,0-2.5,0-4.2-0.2c-3.2-0.2-7.8-0.3-12.9-0.3c-10.5,0-16,0.2-21.2,0.5c-0.3-1.4-0.5-5.4,0-6.5
	c3.1-0.5,4.6-1,6.5-1.5c3.4-1,4.2-2.5,4.4-7c0-3.2,0.7-30.7-0.3-37.4c-1-6.8-6.1-14.8-17.3-14.8c-4.2,0-10.9,1.7-17.3,6.6
	c-0.3,0.3-0.7,1.2-0.7,1.7v0.2c0.7,3.6,0.7,7.6,0.7,13.9v11c0,7.6-0.2,14.8,0,20.2c0,3.7,2.2,4.6,4.1,5.3c1,0.2,1.7,0.3,2.5,0.5
	c1.5,0.3,3.1,0.7,5.4,1.2c0.3,0.7,0.3,2.9-0.2,4.8c-0.2,1-0.5,1.5-0.7,1.7c-5.8-0.2-11.7-0.3-20.4-0.3c-2.5,0-7,0.2-10.7,0.2
	c-3.1,0-5.9,0.2-7.6,0.2c-0.2-0.3-0.5-1.5-0.5-3.4c0-1.5,0.3-2.7,0.7-3.1c0.8-0.2,1.5-0.3,2.4-0.3c2-0.3,3.7-0.7,5.4-1
	c2.9-0.8,3.9-2.4,4.1-6.1c0.5-8.5,1-32.8-0.2-38.9c-2-9.8-7.6-14.8-16.6-14.8c-5.3,0-11.9,2.5-17.3,6.6c-0.8,0.7-1.5,2.4-1.5,3.9v10
	c0,12.2,0,27.5,0.2,34.1c0.2,2,0.8,4.4,4.8,5.3c0.8,0.2,2.2,0.5,3.9,0.7l3.1,0.5c0.3,1,0.2,5.1-0.5,6.5c-1.7,0-3.7-0.2-6.1-0.2
	c-3.6-0.2-8.1-0.3-13.2-0.3c-5.9,0-10.2,0.2-13.6,0.3C15.1,694.2,13.2,694.2,11.2,694.2L11.2,694.2L11.2,694.2z"/>
<g>
	<path class="st2" d="M405.8,521.9l-13.3-4.6c0,0,1.6-68.1-22.8-72.9c-16.3-18.9,2.6-801.1,61.2-2.6c0,0-20.2,10.1-23.8,27.4
		C403.2,486,405.8,521.9,405.8,521.9L405.8,521.9L405.8,521.9z"/>
	<path class="st3" d="M405.8,521.9l-13.3-4.6c0,0,1.6-68.1-22.8-72.9c-16.3-18.9,2.6-801.1,61.2-2.6c0,0-20.2,10.1-23.8,27.4
		C403.2,486,405.8,521.9,405.8,521.9L405.8,521.9L405.8,521.9z"/>
	<path class="st2" d="M413,456.1c0,0,116.9-76.9,89.5-236.8c-26.4-116.3-88.6-154.4-95.4-169c-7.5-10.4-14.7-28.7-14.7-28.7
		l4.9,323.4C397.3,345.4,387.3,444,413,456.1"/>
	<path class="st4" d="M413,456.1c0,0,116.9-76.9,89.5-236.8c-26.4-116.3-88.6-154.4-95.4-169c-7.5-10.4-14.7-28.7-14.7-28.7
		l4.9,323.4C397.3,345.4,387.3,444,413,456.1"/>
	<path class="st2" d="M385.6,460.3c0,0-109.7-74.9-103.2-206.8c6.2-131.9,83.7-196.7,98.6-208.4c9.8-10.4,10.1-14.3,10.7-24.7
		c6.8,14.7,5.5,219.2,6.5,243.3C401.3,356.4,393.1,442.7,385.6,460.3L385.6,460.3L385.6,460.3z"/>
	<path class="st5" d="M385.6,460.3c0,0-109.7-74.9-103.2-206.8c6.2-131.9,83.7-196.7,98.6-208.4c9.8-10.4,10.1-14.3,10.7-24.7
		c6.8,14.7,5.5,219.2,6.5,243.3C401.3,356.4,393.1,442.7,385.6,460.3L385.6,460.3L385.6,460.3z"/>
</g>
</svg>
