<svg id="Capa_1" data-name="Capa 1" xmlns="http://www.w3.org/2000/svg" viewBox="0 0 1920 1920"><defs><style>.cls-1{fill:#fff;}</style></defs><path class="cls-1" d="M1839.21,909.31c-5.14-.38-11.1-.63-17.12-.63A239.12,239.12,0,0,0,1736,924.6l1.63-.56c-7.83,3.13-20.37,3.13-21.43,13.1,4.32,4.14,5,11,8.58,16.74a121.29,121.29,0,0,0,26.9,31.72l.18.19c11,8.58,21.94,16.92,33.48,24.26,20.37,12.53,43.5,20,63.44,32.59,11.34,7.34,22.94,16.68,34.47,24.51,5.71,3.89,9.41,11,16.74,13.48v-1.57c-3.57-4.7-4.7-11.53-8.21-16.73-5.27-5.27-10.47-10-15.67-15.11a254.54,254.54,0,0,0-53.72-52.34l-.76-.51c-16.73-11.4-53.4-27.39-60.3-46.63l-1-1.13a213.2,213.2,0,0,0,37.55-8.72l-1.51.44c17.8-4.7,34.1-3.7,52.47-8.27,8.27-2.13,16.67-4.7,25.07-7.34V918c-9.4-9.4-16.42-22.19-26.14-31a690.51,690.51,0,0,0-83.68-62.82l-2.82-1.69c-16.43-10.47-37.3-17.24-54.6-26.14-6.27-3.13-16.74-4.7-20.38-10a198.18,198.18,0,0,1-21.06-38.92l-.5-1.38q-23.07-44.76-42.88-91.09a524.89,524.89,0,0,0-28.08-62.75l1.44,3C1546,512.57,1477.32,446.12,1395.39,400.8l-2.7-1.38a246.37,246.37,0,0,0-65.51-21.25l-1.56-.25c-13.1-.63-26.14-1.57-39.18-2.13A189.94,189.94,0,0,1,1262,357.23l.19.19c-29.78-18.81-106.82-59.55-128.76-5.64-14.1,34,20.94,67.51,33,84.75a242.58,242.58,0,0,1,26,37.92l.63,1.26c3.7,9.09,4.7,18.43,8.4,27.89a619.39,619.39,0,0,0,28.77,74.1l-1.63-3.89a234.7,234.7,0,0,0,19.87,33.1l-.5-.75c4.2,5.7,11.41,8.4,13.1,17.8a147.53,147.53,0,0,0-11.91,38.24l-.12.88a227.91,227.91,0,0,0-10.72,69.7,231.2,231.2,0,0,0,26.51,107.82l-.62-1.25c8.4,13,28.33,41.81,55,30.78,23.5-9.4,18.3-39.18,25.07-65.38,1.57-6.27.57-10.41,3.76-14.67v1.19c7.34,14.73,14.73,28.77,21.44,43.5a297.92,297.92,0,0,0,67.14,69.59l.81.56c12.54,9.4,22.51,25.7,38.18,31.47v-1.57h-1.19a68.93,68.93,0,0,0-11.85-10.28l-.25-.12a270.71,270.71,0,0,1-26.89-30.66l-.5-.69a671,671,0,0,1-56.74-91.58l-1.81-3.83c-8.59-16.42-15.8-34.16-22.7-50.4-3.13-6.26-3.13-15.67-8.4-18.8a194,194,0,0,0-24.57,34.48l-.5,1a288.59,288.59,0,0,0-14.67,78.42v.69c-2.13.56-1.06,0-2.13,1.13-16.74-4.08-22.5-21.44-28.77-36A223.54,223.54,0,0,1,1261.24,731a226.81,226.81,0,0,1,9.21-64.26l-.37,1.63c3.7-11,19.37-45.57,13.1-56.1-3.26-10-13.6-15.67-19.37-23.76a193.39,193.39,0,0,1-18.31-32.22L1245,555c-12.53-29.28-18.8-61.75-32.41-91A272.32,272.32,0,0,0,1186,423.24l.43.56a265.1,265.1,0,0,1-28.14-39.49l-.69-1.25c-2.57-5.71-6.27-15.17-2.13-21.44a8.85,8.85,0,0,1,7.33-7h.06c6.9-5.64,26.27,1.69,33,4.82a268.08,268.08,0,0,1,52.84,26.77l-1-.63c7.34,5.15,15.3,15.11,24.7,17.68h11c16.74,3.7,35.67,1.13,51.34,5.71a336.44,336.44,0,0,1,76.67,36.79l-1.32-.81c69.2,44.69,124.62,105.12,162.11,176.52l1.25,2.57c6.27,12,9,23.13,14.73,35.67,11,25.83,24.51,52,35.67,76.92a342.73,342.73,0,0,0,38,71.4l-.75-1.13c7.83,11,39.3,16.67,53.41,22.38a354.46,354.46,0,0,1,38.3,15.73l-2.32-1c18,11,35.54,23.51,52.47,35.54,8.58,6,34.72,19.06,36.29,29.59Zm-734.94,458.42c0,.94.07,2,.07,3.07a114.41,114.41,0,0,1-40.31,87.33l-.19.12a158,158,0,0,1-100,35.48c-2.94,0-5.89-.06-8.77-.25h.37a216.09,216.09,0,0,1-123.87-40.81l.63.44,18.56-37.3a207.24,207.24,0,0,0,92.83,25.71h.38c1.69.12,3.64.18,5.64.18a97.58,97.58,0,0,0,56-17.61l-.31.19a59,59,0,0,0,23.51-47.14v-1c0-25.82-18-47.76-50.78-66.19-30.4-16.68-91.08-51.47-91.08-51.47-30-18.55-49.59-51.21-49.59-88.45,0-1.32,0-2.63.07-4v.19c-.07-1.19-.07-2.57-.07-4a107.24,107.24,0,0,1,36.74-80.93l.12-.12a137.88,137.88,0,0,1,89.39-32.66c2.2,0,4.33.06,6.46.12h1.63a195.57,195.57,0,0,1,108.45,32.6l-.75-.44-16.68,37.3a209.12,209.12,0,0,0-83.18-18h-.13c-1.5-.13-3.2-.19-4.95-.19a73.39,73.39,0,0,0-46.39,16.42l.13-.12a53.5,53.5,0,0,0-19.44,41.06h0c0,25.7,18.31,47.77,52.16,66.57,30.78,16.86,93,52.47,93,52.47,30.59,18,50.84,50.71,50.84,88.2,0,1.13,0,2.32-.06,3.45v-.19ZM1234.16,1401c-17.11-34.16-27.08-74.41-27.08-117,0-6.71.25-13.35.75-19.87l-.06.87q0-163.66,99.48-163.73c1.63-.13,3.57-.19,5.58-.19a83.62,83.62,0,0,1,70.77,39l.19.31c17,34,27,74.1,27,116.47,0,6.52-.25,13-.69,19.37l.06-.87q0,165-99.48,165.11c-1.7.13-3.64.19-5.58.19a83.78,83.78,0,0,1-70.84-39l-.19-.31Zm257.89,97.29-79.61-39.18a175.49,175.49,0,0,0,19.81-19.37l.19-.19a263.42,263.42,0,0,0,51.46-157q0-10.24-.75-20.31l.06.88q0-215-168.81-215.14c-2.51-.12-5.46-.19-8.4-.19a160.06,160.06,0,0,0-120.67,54.66l-.13.19a263.91,263.91,0,0,0-51.28,157q0,10,.76,19.75l-.07-.88c-.56,6.33-.88,13.73-.88,21.19a255.77,255.77,0,0,0,46.39,147.25l-.56-.82a153.61,153.61,0,0,0,112.27,48.65c4.14,0,8.21-.19,12.22-.51l-.56.07h2a200.51,200.51,0,0,0,56.22-8l-1.37.38,103.8,60.49,28.21-48.71Zm260-10.6H1546V1054.55h69.33v379.94h136.72ZM786.64,1168.14c-18,130.64-59.17,248.55-119.42,354.18l2.51-4.83c-24.13,46.45-69.77,78.8-123.37,84l-.62.06a122.7,122.7,0,0,1-45.07-11.09l.75.31v-38.68a192.09,192.09,0,0,0,28.58,2.07h1.7c1,.06,2.13.06,3.26.06a72.72,72.72,0,0,0,47.51-17.55l-.12.07a63.24,63.24,0,0,0,23.13-47.33v-.07a315.41,315.41,0,0,0-18.75-76.1l.76,2.13-79.43-247.23h71.28l57,184.86a244.16,244.16,0,0,1,16,87.83v.12h0c30.21-79.11,53.16-171.38,64.81-267.11l.57-5.76ZM472,1487.71H399.37q-3.08-173.07-21.13-345.46h-.63L267.16,1487.71H211.93l-109.7-345.46h-.75q-12.86,172.45-15.3,345.46H20q6.45-231,32.09-433.22h90.08l104.56,318.38h.63l105.5-318.38h85.76q28.45,236.76,33.53,433.22Zm833.1-1033.5h-.5A87.54,87.54,0,0,0,1283,456.9l.63-.12v1h1.06a181.3,181.3,0,0,0,16.87,21.5l-.13-.12c4.2,8.4,7.84,16.73,12,25.07l1.06-1.19a29.14,29.14,0,0,0,11.16-22.94,28.6,28.6,0,0,0-.19-3.33v.13c-3.13-3.7-3.57-7.34-6.27-11-3.13-5.27-9.84-7.84-14.1-12Z"/></svg>