<svg id="Capa_1" data-name="Capa 1" xmlns="http://www.w3.org/2000/svg" viewBox="0 0 1920 1920"><defs><style>.cls-1{fill:none;}.cls-2{fill:#fff;}</style></defs><g id="Layer_2" data-name="Layer 2"><g id="invisible_box" data-name="invisible box"><rect class="cls-1" x="-71.58" y="-73.52" width="2069.04" height="2069.04"/></g><g id="Q3_icons" data-name="Q3 icons"><path class="cls-2" d="M1751.76,435.12,1036.22,29.93a172.39,172.39,0,0,0-146.56,0L174.11,435.12a146.54,146.54,0,0,0-73.27,125v801.76a146.54,146.54,0,0,0,73.27,125l189.67,107.76a310.29,310.29,0,0,0,163.8,43.11c133.62,0,211.21-81.9,211.21-219.84V629.09a21.55,21.55,0,0,0-21.55-21.55H626.72a21.55,21.55,0,0,0-21.55,21.55v788.82c0,64.66-64.66,125-168.11,73.28L238.77,1379.12a21.57,21.57,0,0,1-8.62-17.24V560.12a34.49,34.49,0,0,1,8.62-21.55L950,137.69h25.86L1687.1,538.57a34.43,34.43,0,0,1,8.62,21.55v801.76a21.54,21.54,0,0,1-8.62,17.24L975.87,1780a25.86,25.86,0,0,1-25.86,0L769,1676.54a12.94,12.94,0,0,0-17.25,0L644,1724c-12.93,4.31-30.17,8.62,4.31,30.17l241.39,133.63a133.63,133.63,0,0,0,146.56,0l715.54-400.88a146.55,146.55,0,0,0,73.28-125V560.12A146.55,146.55,0,0,0,1751.76,435.12Z"/><path class="cls-2" d="M1182.77,1232.56c-189.66,0-228.45-43.1-245.69-133.62a17.25,17.25,0,0,0-17.25-17.25H825a17.24,17.24,0,0,0-17.24,17.25c0,116.38,64.66,258.63,375,258.63,224.15,0,353.47-86.21,353.47-237.08s-103.46-194-323.29-219.84-241.39-43.1-241.39-94.83S988.8,711,1152.6,711s202.59,30.17,224.15,125a21.55,21.55,0,0,0,21.55,17.25h90.52l17.24-8.62a17.28,17.28,0,0,0,4.31-12.94C1497.44,663.57,1381.06,586,1152.6,586S829.31,672.2,829.31,810.13,950,1004.1,1144,1025.66s254.32,51.72,254.32,99.14S1333.64,1232.56,1182.77,1232.56Z"/></g></g></svg>