<svg id="Capa_1" data-name="Capa 1" xmlns="http://www.w3.org/2000/svg" viewBox="0 0 1920 1920"><defs><style>.cls-1{fill:#fff;}.cls-2{fill:#202529;stroke:#1d1d1b;stroke-miterlimit:10;stroke-width:0.25px;}.cls-3{fill:#9d9d9c;}</style></defs><g id="_5151e0c8492e5103c096af88a51ec286" data-name="5151e0c8492e5103c096af88a51ec286"><path class="cls-1" d="M749.2,934.93h445.65c124.07,0,223.09-102.14,223.09-226.73V283.35c0-120.9-102-211.74-223.09-231.93-76.65-12.75-156.18-18.55-232.44-18.19S813.31,40.09,749.2,51.42C560.4,84.79,526.12,154.6,526.12,283.35v170H972.29v56.68H358.68C229,510.08,115.45,588,80,736.28c-41,170-42.8,276,0,453.45,31.71,132.08,107.45,226.21,237.12,226.21H470.49V1212.09C470.49,1064.82,597.89,934.93,749.2,934.93Z"/><path class="cls-2" d="M721.12,340c-46.24,0-83.72-37.9-83.72-84.76,0-47,37.48-85.28,83.72-85.28s83.72,38.25,83.72,85.28C804.84,302.14,767.22,340,721.12,340Z"/><path class="cls-3" d="M1837.28,719.67c-32.07-129.08-93.27-226.2-223.11-226.2H1446.73V691.59c0,153.61-130.22,282.88-278.72,282.88H722.35c-122.05,0-223.07,104.47-223.07,226.74V1626c0,120.91,105.13,192,223.07,226.7,141.23,41.55,276.65,49.08,445.66,0,112.31-32.48,223.09-98,223.09-226.7V1456H945.44v-56.68h668.73c129.67,0,178-90.45,223.11-226.2C1883.84,1033.36,1881.85,899,1837.28,719.67Z"/><path class="cls-2" d="M1138.32,1743.66c-46.25,0-83.73-37.9-83.73-84.77,0-47,37.48-85.27,83.73-85.27,46.09,0,83.71,38.24,83.71,85.27C1222,1705.76,1184.41,1743.66,1138.32,1743.66Z"/></g></svg>