<svg id="Capa_1" data-name="Capa 1" xmlns="http://www.w3.org/2000/svg" viewBox="0 0 1920 1920"><defs><style>.cls-1{fill:none;}.cls-2{fill:#fff;fill-rule:evenodd;}</style></defs><path class="cls-1" d="M56.63,56.63H1863.37V1863.37H56.63Z"/><path class="cls-2" d="M365.24,1637.13c33.09,26.71,81.65,21.74,108.3-11.4a77,77,0,1,0-113.21,7.11l-15-13.21C168,1454.71,56.63,1219.55,56.63,958.76c0-497.42,404.71-902.13,902.24-902.13,252.94,0,481.61,104.85,645.63,273,37.26-50.7,69.56-107.38,96-170.22,115,345.42,182.54,635.74,157.81,864.41-33.43,467.15-423.91,837.31-899.42,837.31-220.87,0-423.23-80-580.19-212.13l-13.44-11.85Zm1331.34-281.29C1923,1054.57,1796.8,567.37,1691.78,256c-93.55,195-324,344.07-522.93,391.28-186.49,44.49-351.53,8-524.13,74.41C251.19,873,257.4,1342.29,474.21,1447.76c.12,0,13,7,12.82,6.78,0-.12,318.66-63.35,494.82-128.39,257.46-95.08,540.1-329.45,633.09-601.7-49.51,283.15-292.58,555.57-536.77,680.68-130,66.74-231,81.59-444.91,155.61-26.2,8.92-46.75,17.73-46.75,17.73,54.21-9,108.24-12,108.24-12,304.49-14.4,779.55,85.59,1001.89-210.6Z"/></svg>