<svg id="Capa_1" data-name="Capa 1" xmlns="http://www.w3.org/2000/svg" viewBox="0 0 1920 1920"><defs><style>.cls-1{fill:#fff;fill-rule:evenodd;}</style></defs><path class="cls-1" d="M1618.82,315.4A919.7,919.7,0,0,0,963.91,43.88C453.54,43.88,38.18,459.2,38,969.69a923.88,923.88,0,0,0,123.6,462.87L30.23,1912.38l490.83-128.75a924.67,924.67,0,0,0,442.45,112.72h.4c510.27,0,925.67-415.36,925.85-925.85A920.24,920.24,0,0,0,1618.82,315.4ZM963.91,1739.77h-.32a768.45,768.45,0,0,1-391.74-107.12L543.75,1616l-291.23,76.4,77.78-284.13L312,1379.15A768.11,768.11,0,0,1,194.49,969.74c0-424.2,345.22-769.5,769.73-769.5a769.68,769.68,0,0,1,769.23,770.12C1733.27,1394.69,1388.05,1739.77,963.91,1739.77ZM1386,1163.39c-23.13-11.59-136.87-67.52-158.09-75.47s-36.62-11.59-52,11.59-59.75,75.25-73.25,90.7-27,17.35-50.13,5.77-97.66-36-186-114.81C797.69,1019.81,751,944.08,737.71,920.9s-1.42-35.52,10.17-47.24c10.39-10.34,23.13-27,34.67-40.52S798,810,805.68,794.56s3.86-28.95-1.91-40.54S751.7,628.56,732.43,582.26c-18.78-45.11-37.83-39-52-40-13.32-.66-28.95-.8-44.4-.8a85.06,85.06,0,0,0-61.71,29c-21.17,23.17-80.93,79.11-80.93,193s82.89,223.88,94.43,239.33,163.15,249.1,395.12,349.34a1338.57,1338.57,0,0,0,131.9,48.84c55.4,17.76,105.83,15.14,145.7,9.19,44.39-6.66,136.87-56,156.18-110s19.27-100.37,13.32-110-20.87-15-44-26.54Z"/></svg>