<svg id="Capa_1" data-name="Capa 1" xmlns="http://www.w3.org/2000/svg" viewBox="0 0 1920 1920"><defs><style>.cls-1{fill:#fff;}</style></defs><g id="_5151e0c8492e5103c096af88a51f5fb6" data-name="5151e0c8492e5103c096af88a51f5fb6"><path class="cls-1" d="M960,27.27C445.69,27.27,27.27,445.66,27.27,960S445.69,1892.73,960,1892.73,1892.73,1474.27,1892.73,960,1474.29,27.27,960,27.27ZM121.41,960A835.34,835.34,0,0,1,194,618.68l400,1096C314.27,1578.78,121.41,1291.89,121.41,960ZM960,1798.62a838.47,838.47,0,0,1-236.92-34.17l251.65-731.12,257.74,706.19a78.28,78.28,0,0,0,6,11.56A837.06,837.06,0,0,1,960,1798.62ZM1075.57,566.78c50.48-2.64,96-8,96-8,45.18-5.34,39.85-71.76-5.36-69.1,0,0-135.83,10.66-223.53,10.66-82.38,0-220.84-10.66-220.84-10.66-45.22-2.66-50.52,66.43-5.31,69.1,0,0,42.77,5.32,88,8l130.63,358L751.56,1475.16,446.19,566.78c50.53-2.64,96-8,96-8,45.17-5.34,39.84-71.76-5.36-69.1,0,0-135.79,10.66-223.49,10.66-15.73,0-34.27-.4-54-1C409.27,271.71,667,121.36,960,121.36c218.31,0,417.08,83.48,566.28,220.19-3.61-.21-7.14-.67-10.87-.67-82.37,0-140.82,71.75-140.82,148.84,0,69.1,39.87,127.58,82.38,196.67,31.89,55.85,69.13,127.6,69.13,231.28,0,71.76-27.6,155.06-63.81,271.09l-83.66,279.47Zm306,1118,256.14-740.57c47.84-119.63,63.78-215.3,63.78-300.34a642.52,642.52,0,0,0-5.65-86.24A834.43,834.43,0,0,1,1798.58,960C1798.58,1269.34,1630.91,1539.45,1381.59,1684.81Z"/></g></svg>